<?xml version="1.0" encoding="utf-8"?>
<!-- Generator: Adobe Illustrator 15.0.0, SVG Export Plug-In . SVG Version: 6.00 Build 0)  -->
<!DOCTYPE svg PUBLIC "-//W3C//DTD SVG 1.1//EN" "http://www.w3.org/Graphics/SVG/1.1/DTD/svg11.dtd">
<svg version="1.1" id="Layer_1" xmlns="http://www.w3.org/2000/svg" xmlns:xlink="http://www.w3.org/1999/xlink" x="0px" y="0px"
	 width="28.347px" height="28.347px" viewBox="-8.05 -8.05 28.347 28.347" enable-background="new -8.05 -8.05 28.347 28.347"
	 xml:space="preserve">
<path fill="none" stroke="#000000" stroke-width="2" stroke-linecap="round" stroke-linejoin="round" stroke-dasharray="0,2.8" d="
	M19.246,6.056c0,4.543-5.875,10.449-13.123,10.449C-1.125,16.506-7,10.109-7,6.056C-7,2.004-1.125-4.392,6.123-4.392
	C13.371-4.392,19.246,1.513,19.246,6.056z"/>
<title>OBSTRN02_1</title>
<desc>obstruction in the intertidal area</desc>
<rect x="-1.706" y="-1.706" display="none" fill="none" stroke="#000000" stroke-width="0.32" width="11.339" height="11.339"/>
<rect x="-1.706" y="-1.706" display="none" fill="none" stroke="#0000FF" stroke-width="0.32" width="11.339" height="11.339"/>
<circle display="none" fill="none" stroke="#FF0000" stroke-width="0.64" cx="3.963" cy="3.963" r="2.835"/>
<circle display="none" fill="none" stroke="#000000" stroke-width="0.32" cx="6.047" cy="-4.392" r="0.453"/>
<circle display="none" fill="none" stroke="#000000" stroke-width="0.32" cx="7.642" cy="-4.29" r="0.453"/>
<circle display="none" fill="none" stroke="#000000" stroke-width="0.32" cx="9.205" cy="-3.959" r="0.453"/>
<circle display="none" fill="none" stroke="#000000" stroke-width="0.32" cx="10.714" cy="-3.443" r="0.453"/>
<circle display="none" fill="none" stroke="#000000" stroke-width="0.32" cx="12.158" cy="-2.754" r="0.453"/>
<circle display="none" fill="none" stroke="#000000" stroke-width="0.32" cx="13.517" cy="-1.913" r="0.453"/>
<circle display="none" fill="none" stroke="#000000" stroke-width="0.32" cx="14.808" cy="-0.948" r="0.453"/>
<circle display="none" fill="none" stroke="#000000" stroke-width="0.32" cx="15.995" cy="0.125" r="0.453"/>
<circle display="none" fill="none" stroke="#000000" stroke-width="0.32" cx="17.087" cy="1.296" r="0.453"/>
<circle display="none" fill="none" stroke="#000000" stroke-width="0.32" cx="18.063" cy="2.552" r="0.453"/>
<circle display="none" fill="none" stroke="#000000" stroke-width="0.32" cx="18.879" cy="3.937" r="0.453"/>
<circle display="none" fill="none" stroke="#000000" stroke-width="0.32" cx="4.452" cy="-4.284" r="0.454"/>
<circle display="none" fill="none" stroke="#000000" stroke-width="0.32" cx="2.889" cy="-3.953" r="0.454"/>
<circle display="none" fill="none" stroke="#000000" stroke-width="0.32" cx="1.381" cy="-3.437" r="0.454"/>
<circle display="none" fill="none" stroke="#000000" stroke-width="0.32" cx="-0.064" cy="-2.748" r="0.454"/>
<circle display="none" fill="none" stroke="#000000" stroke-width="0.32" cx="-1.423" cy="-1.907" r="0.454"/>
<circle display="none" fill="none" stroke="#000000" stroke-width="0.32" cx="-2.714" cy="-0.942" r="0.454"/>
<circle display="none" fill="none" stroke="#000000" stroke-width="0.32" cx="-3.901" cy="0.131" r="0.454"/>
<circle display="none" fill="none" stroke="#000000" stroke-width="0.32" cx="-4.992" cy="1.302" r="0.454"/>
<circle display="none" fill="none" stroke="#000000" stroke-width="0.32" cx="-5.969" cy="2.557" r="0.454"/>
<circle display="none" fill="none" stroke="#000000" stroke-width="0.32" cx="-6.784" cy="3.943" r="0.454"/>
<circle display="none" fill="none" stroke="#000000" stroke-width="0.32" cx="-7.238" cy="5.574" r="0.454"/>
<circle display="none" fill="none" stroke="#000000" stroke-width="0.32" cx="19.493" cy="5.574" r="0.454"/>
<circle display="none" fill="none" stroke="#000000" stroke-width="0.32" cx="6.219" cy="17.142" r="0.453"/>
<circle display="none" fill="none" stroke="#000000" stroke-width="0.32" cx="4.624" cy="17.04" r="0.453"/>
<circle display="none" fill="none" stroke="#000000" stroke-width="0.32" cx="3.062" cy="16.709" r="0.453"/>
<circle display="none" fill="none" stroke="#000000" stroke-width="0.32" cx="1.553" cy="16.193" r="0.453"/>
<circle display="none" fill="none" stroke="#000000" stroke-width="0.32" cx="0.109" cy="15.504" r="0.453"/>
<circle display="none" fill="none" stroke="#000000" stroke-width="0.32" cx="-1.251" cy="14.663" r="0.453"/>
<circle display="none" fill="none" stroke="#000000" stroke-width="0.32" cx="-2.542" cy="13.698" r="0.453"/>
<circle display="none" fill="none" stroke="#000000" stroke-width="0.32" cx="-3.728" cy="12.626" r="0.453"/>
<circle display="none" fill="none" stroke="#000000" stroke-width="0.32" cx="-4.82" cy="11.454" r="0.453"/>
<circle display="none" fill="none" stroke="#000000" stroke-width="0.32" cx="-5.797" cy="10.198" r="0.453"/>
<circle display="none" fill="none" stroke="#000000" stroke-width="0.32" cx="-6.612" cy="8.813" r="0.453"/>
<circle display="none" fill="none" stroke="#000000" stroke-width="0.32" cx="7.814" cy="17.034" r="0.454"/>
<circle display="none" fill="none" stroke="#000000" stroke-width="0.32" cx="9.377" cy="16.703" r="0.454"/>
<circle display="none" fill="none" stroke="#000000" stroke-width="0.32" cx="10.885" cy="16.187" r="0.454"/>
<circle display="none" fill="none" stroke="#000000" stroke-width="0.32" cx="12.33" cy="15.498" r="0.454"/>
<circle display="none" fill="none" stroke="#000000" stroke-width="0.32" cx="13.689" cy="14.657" r="0.454"/>
<circle display="none" fill="none" stroke="#000000" stroke-width="0.32" cx="14.98" cy="13.692" r="0.454"/>
<circle display="none" fill="none" stroke="#000000" stroke-width="0.32" cx="16.167" cy="12.62" r="0.454"/>
<circle display="none" fill="none" stroke="#000000" stroke-width="0.32" cx="17.259" cy="11.448" r="0.454"/>
<circle display="none" fill="none" stroke="#000000" stroke-width="0.32" cx="18.235" cy="10.192" r="0.454"/>
<circle display="none" fill="none" stroke="#000000" stroke-width="0.32" cx="19.051" cy="8.807" r="0.454"/>
<circle display="none" fill="none" stroke="#000000" stroke-width="0.32" cx="19.504" cy="7.175" r="0.454"/>
<circle display="none" fill="none" stroke="#000000" stroke-width="0.32" cx="-7.226" cy="7.175" r="0.454"/>
</svg>
