<?xml version="1.0" encoding="utf-8"?>
<!-- Generator: Adobe Illustrator 15.0.0, SVG Export Plug-In . SVG Version: 6.00 Build 0)  -->
<!DOCTYPE svg PUBLIC "-//W3C//DTD SVG 1.1//EN" "http://www.w3.org/Graphics/SVG/1.1/DTD/svg11.dtd">
<svg version="1.1" id="Layer_1" xmlns="http://www.w3.org/2000/svg" xmlns:xlink="http://www.w3.org/1999/xlink" x="0px" y="0px"
	 width="128px" height="128px" viewBox="0 0 128 128" enable-background="new 0 0 128 128" xml:space="preserve">
<path fill="#F36C21" stroke="#231F20" stroke-width="0.4" stroke-miterlimit="10" d="M60.371,51.144
	c2.267-0.702,3.533-3.109,2.83-5.375c-0.702-2.267-3.11-3.534-5.377-2.829c-2.263,0.701-3.533,3.11-2.827,5.375
	C55.698,50.581,58.107,51.849,60.371,51.144z"/>
<linearGradient id="SVGID_1_" gradientUnits="userSpaceOnUse" x1="334.957" y1="-200.4312" x2="383.1211" y2="-200.4312" gradientTransform="matrix(1 0 0 -1 -296 -117)">
	<stop  offset="0" style="stop-color:#2AC4F3"/>
	<stop  offset="0.5" style="stop-color:#00AEEE"/>
	<stop  offset="1" style="stop-color:#0095DA"/>
</linearGradient>
<path fill="url(#SVGID_1_)" stroke="#231F20" stroke-width="0.4" stroke-miterlimit="10" d="M86.255,83.8
	c-2.815,0-3.734-2.779-7.399-2.779c-4.25,0-5.409,2.126-7.964,2.126c-2.483,0-3.872-2.448-7.894-2.448
	c-4.024,0-4.88,2.448-7.774,2.448c-2.893,0-3.908-2.126-7.103-2.126c-4.432,0-6.009,2.857-8.374,2.857c0,0-0.79,0.007-0.79,0.821
	c0,0.821,0.979,0.694,0.979,0.694c4.845,0,4.018-1.921,7.438-1.921c3.42,0,3.906,2.691,7.85,2.691c3.908,0,5.707-2.425,7.774-2.425
	c2.065,0,4.1,2.425,7.894,2.425c3.795,0,4.771-2.691,7.964-2.691c3.117,0,3.117,1.921,7.399,1.921c0,0,0.866-0.089,0.866-0.844
	C87.121,83.8,86.255,83.8,86.255,83.8z"/>
<linearGradient id="SVGID_2_" gradientUnits="userSpaceOnUse" x1="336.0342" y1="-194.8232" x2="348.582" y2="-194.8232" gradientTransform="matrix(1 0 0 -1 -296 -117)">
	<stop  offset="0" style="stop-color:#AFD140"/>
	<stop  offset="1" style="stop-color:#00A94F"/>
</linearGradient>
<path fill="url(#SVGID_2_)" stroke="#231F20" stroke-width="0.4" stroke-miterlimit="10" d="M42.743,81.233
	c1.327-0.785,2.909-1.672,5.378-1.672c1.954,0,3.091,0.583,4.341,1.036c-2.022-2.997,0.12-6.185,0.12-6.185
	s-9.042,0.936-11.229,1.157c-2.183,0.217-0.998,2.028-0.998,2.028L42.743,81.233z"/>
<linearGradient id="SVGID_3_" gradientUnits="userSpaceOnUse" x1="338.7344" y1="-188.0615" x2="349.5781" y2="-188.0615" gradientTransform="matrix(1 0 0 -1 -296 -117)">
	<stop  offset="0" style="stop-color:#AFD140"/>
	<stop  offset="1" style="stop-color:#00A94F"/>
</linearGradient>
<path fill="url(#SVGID_3_)" stroke="#231F20" stroke-width="0.4" stroke-miterlimit="10" d="M43.883,73.382l9.695-0.897
	c0,0-5.415-1.871-7.167-2.626c-0.706-0.304-1-0.626-1.467-1.076c-2.87-0.356-2.123,1.729-2.123,1.729L43.883,73.382z"/>
<path fill="#F36C21" stroke="#231F20" stroke-width="0.4" stroke-miterlimit="10" d="M69.411,61.651
	c0-1.458-2.578-1.779-2.578-1.779l-4.354-0.158l-5.554-6.696c0,0-0.86-1.264-3.542-1.264c-2.1,0-2.906,1.557-2.906,1.557
	s-3.489,7.214-4.689,9.566c-2.156,4.205,1.633,5.606,1.633,5.606l8.197,2.927l-2.21,5.245c0,0-1.359,2.456,1.34,3.506
	c2.243,0.875,3.019-1.251,3.019-1.251l3.257-7.466c0,0,0.647-1.324,0.306-2.379c-0.341-1.062-1.358-1.426-1.358-1.426l-5.662-2.707
	l2.567-4.047l2.44,3.095c0,0,0.303,0.35,1.104,0.35c0.804,0,7.066,0,7.066,0s1.051-0.05,1.65-0.854
	C69.139,63.477,69.411,63.344,69.411,61.651z"/>
<linearGradient id="SVGID_4_" gradientUnits="userSpaceOnUse" x1="355.2646" y1="-186.5967" x2="385.3574" y2="-186.5967" gradientTransform="matrix(1 0 0 -1 -296 -117)">
	<stop  offset="0" style="stop-color:#AFD140"/>
	<stop  offset="1" style="stop-color:#00A94F"/>
</linearGradient>
<path fill="url(#SVGID_4_)" stroke="#231F20" stroke-width="0.4" stroke-miterlimit="10" d="M88.128,71.444
	c-2.056-1.706-5.161-3.156-6.511-4.105c-1.355-0.956-0.55-1.206-4.262-4.811c-3.705-3.608-6.46-4.309-8.166-4.562
	c-1.7-0.25-2.307,0.05-2.557,0.703c-0.249,0.65,0.2,1.203,0.2,1.203s2.578,0.321,2.578,1.779c0,1.693-0.272,1.825-0.272,1.825
	s1.156,2.105,1.605,4.911c0,0-2.205,0-2.904,0.15c-0.701,0.15-2.005,0.75-2.556,1.707c-0.55,0.949-0.451,2.449-3.259,3.105
	l-2.761,6.348c0.95-0.462,2.069-0.853,3.733-0.853c4.643,0,5.598,2.47,8.083,2.47c2.548,0,2.988-1.754,7.775-1.754
	c0.688,0,1.279,0.098,1.801,0.255c0.027,0.007,0.045,0.015,0.072,0.027c6.16-1.809,8-4.957,8-4.957
	C89.129,74.187,90.185,73.15,88.128,71.444z"/>
</svg>
