<?xml version="1.0" encoding="utf-8"?>
<!-- Generator: Adobe Illustrator 15.0.0, SVG Export Plug-In . SVG Version: 6.00 Build 0)  -->
<!DOCTYPE svg PUBLIC "-//W3C//DTD SVG 1.1//EN" "http://www.w3.org/Graphics/SVG/1.1/DTD/svg11.dtd" [
	<!ENTITY ns_flows "http://ns.adobe.com/Flows/1.0/">
	<!ENTITY ns_extend "http://ns.adobe.com/Extensibility/1.0/">
	<!ENTITY ns_ai "http://ns.adobe.com/AdobeIllustrator/10.0/">
	<!ENTITY ns_graphs "http://ns.adobe.com/Graphs/1.0/">
]>
<svg version="1.1" id="Layer_1" xmlns:x="&ns_extend;" xmlns:i="&ns_ai;" xmlns:graph="&ns_graphs;"
	 xmlns="http://www.w3.org/2000/svg" xmlns:xlink="http://www.w3.org/1999/xlink" xmlns:a="http://ns.adobe.com/AdobeSVGViewerExtensions/3.0/"
	 x="0px" y="0px" width="128px" height="128px" viewBox="0 0 128 128" enable-background="new 0 0 128 128" xml:space="preserve">
<path fill="#F36C21" stroke="#231F20" stroke-miterlimit="10" d="M75.676,22.47c5.789-0.551,10.038-5.688,9.486-11.479
	C84.608,5.209,79.471,0.961,73.68,1.515c-5.783,0.549-10.023,5.687-9.476,11.473C64.754,18.773,69.89,23.021,75.676,22.47z"/>
<path fill="#F36C21" stroke="#231F20" stroke-miterlimit="10" d="M48.142,74.623l9.575-3.448l17.364-0.926l-1.703,19.142
	l12.457,0.722l2.367-25.893c0.181-1.993-0.519-3.962-1.907-5.4c-1.384-1.434-3.312-2.193-5.325-2.095l-7.872-0.03l5.147-19.062
	l17.586-5.089c1.072-0.267,2.006-0.914,2.638-1.815l10.418-14.837c1.459-2.077,0.953-4.942-1.121-6.4
	c-2.078-1.455-4.951-0.955-6.4,1.12l-9.434,13.439l-14.026,3.526L67.18,25.056c-0.644-0.149-1.303-0.208-1.956-0.172l-22.312,1.23
	c-0.859,0.045-1.683,0.332-2.389,0.826L25.402,37.547c-2.075,1.46-2.581,4.324-1.122,6.401c0.822,1.166,2.083,1.836,3.396,1.943
	c1.029,0.08,2.096-0.181,3.005-0.819l14.045-9.856l10.717-0.048l-6.616,24.504l-9.833,4.073c-3.301,1.185-5.181,4.661-4.375,8.077
	l4.435,18.669l12.625-0.938L48.142,74.623z"/>
<g>
	<g>
		<linearGradient id="SVGID_1_" gradientUnits="userSpaceOnUse" x1="13.4937" y1="121.3477" x2="115.8613" y2="121.3477">
			<stop  offset="0" style="stop-color:#0095DA"/>
			<stop  offset="0.5" style="stop-color:#00AEEE"/>
			<stop  offset="1" style="stop-color:#2AC4F3"/>
			<a:midPointStop  offset="0" style="stop-color:#0095DA"/>
			<a:midPointStop  offset="0.5" style="stop-color:#0095DA"/>
			<a:midPointStop  offset="0.5" style="stop-color:#00AEEE"/>
			<a:midPointStop  offset="0.5" style="stop-color:#00AEEE"/>
			<a:midPointStop  offset="1" style="stop-color:#2AC4F3"/>
		</linearGradient>
		<path fill="url(#SVGID_1_)" d="M79.912,126.729c-4.615,0-7.836-1.512-10.424-2.726c-1.846-0.866-3.438-1.614-5.063-1.614
			c-1.643,0-3.328,0.76-5.279,1.64c-2.668,1.203-5.989,2.7-10.445,2.7c-4.049,0-7.142-1.321-10.134-2.6
			c-2.656-1.135-5.165-2.207-8.103-2.207c-2.751,0-4.192,0.68-5.86,1.467c-1.956,0.922-4.172,1.968-8.886,1.968
			c-0.801-0.076-2.225-0.591-2.225-2.009c0-1.46,1.455-1.846,2.225-1.846c2.48,0,4.144-1.004,6.069-2.167
			c2.176-1.313,4.642-2.803,8.678-2.803c4.844,0,8.436,1.213,11.605,2.282c2.408,0.813,4.488,1.516,6.631,1.516
			c2.057,0,3.731-0.807,5.669-1.74c2.554-1.231,5.449-2.626,10.055-2.626c4.458,0,7.052,1.332,9.34,2.507
			c1.943,0.998,3.622,1.859,6.146,1.859c2.725,0,5.284-0.875,7.995-1.801c2.873-0.981,5.845-1.997,9.189-1.997
			c5.226,0,8.563,1.775,11.244,3.202c1.919,1.021,3.576,1.902,5.44,1.902c0.839,0.008,2.08,0.54,2.08,1.975
			c0,1.084-0.837,1.757-2.184,1.757c-0.195,0-0.323-0.015-0.323-0.015c-0.008,0-0.016,0-0.023,0c-5.297,0-7.292-1.061-9.054-1.996
			c-1.45-0.771-2.702-1.436-5.69-1.436c-3.184,0-5.74,1.086-8.446,2.235C87.163,125.422,84.084,126.729,79.912,126.729z"/>
	</g>
	<g>
		<path fill="#231F20" d="M64.425,116.465c8.015,0,9.722,4.366,15.487,4.366c5.759,0,10.82-3.798,17.185-3.798
			c8.827,0,11.973,5.104,16.685,5.104c0,0,1.58,0.015,1.58,1.475c0,1.126-1.15,1.257-1.684,1.257c-0.161,0-0.267-0.012-0.267-0.012
			c-9.654,0-8.008-3.435-14.824-3.435c-6.813,0-10.815,4.807-18.675,4.807c-7.781,0-11.366-4.34-15.487-4.34
			s-8.165,4.34-15.724,4.34c-7.564,0-11.879-4.807-18.236-4.807c-6.216,0-6.216,3.435-14.747,3.435c0,0-1.725-0.17-1.725-1.509
			c0-1.346,1.725-1.346,1.725-1.346c5.61,0,7.436-4.97,14.747-4.97c8.457,0,13.144,3.798,18.236,3.798
			C53.639,120.831,56.408,116.465,64.425,116.465 M64.425,115.465c-4.72,0-7.669,1.421-10.272,2.675
			c-1.883,0.908-3.509,1.691-5.452,1.691c-2.061,0-4.105-0.69-6.472-1.489c-3.206-1.082-6.839-2.309-11.765-2.309
			c-4.175,0-6.705,1.527-8.936,2.875c-1.861,1.124-3.469,2.095-5.811,2.095c-1.354,0-2.725,0.806-2.725,2.346
			c0,1.543,1.361,2.379,2.626,2.504l0.049,0.005h0.049c4.826,0,7.096-1.071,9.1-2.016c1.614-0.762,3.008-1.419,5.647-1.419
			c2.836,0,5.299,1.053,7.906,2.166c3.038,1.299,6.179,2.641,10.33,2.641c4.564,0,7.939-1.521,10.651-2.745
			c1.898-0.855,3.538-1.595,5.073-1.595c1.512,0,3.059,0.726,4.85,1.566c2.633,1.235,5.91,2.773,10.637,2.773
			c4.273,0,7.4-1.327,10.424-2.611c2.658-1.129,5.169-2.195,8.251-2.195c2.863,0,4.064,0.639,5.456,1.377
			c1.811,0.962,3.861,2.052,9.321,2.058c0.065,0.005,0.175,0.012,0.313,0.012c1.63,0,2.684-0.886,2.684-2.257
			c0-1.798-1.537-2.465-2.571-2.475c-1.749,0-3.278-0.813-5.215-1.844c-2.73-1.453-6.129-3.261-11.479-3.261
			c-3.428,0-6.438,1.029-9.351,2.023c-2.671,0.913-5.192,1.774-7.834,1.774c-2.403,0-4.032-0.836-5.918-1.804
			C71.655,116.826,69.004,115.465,64.425,115.465L64.425,115.465z"/>
	</g>
</g>
<linearGradient id="SVGID_2_" gradientUnits="userSpaceOnUse" x1="15.8462" y1="70.3125" x2="122.1211" y2="70.3125" gradientTransform="matrix(0.9968 0.0795 -0.0795 0.9968 -0.9014 21.7036)">
	<stop  offset="0" style="stop-color:#AFD140"/>
	<stop  offset="1" style="stop-color:#00A94F"/>
	<a:midPointStop  offset="0" style="stop-color:#AFD140"/>
	<a:midPointStop  offset="0.5" style="stop-color:#AFD140"/>
	<a:midPointStop  offset="1" style="stop-color:#00A94F"/>
</linearGradient>
<path fill="url(#SVGID_2_)" stroke="#231F20" stroke-miterlimit="10" d="M38.54,102.789c2.236,1.066,4.164,1.988,6.601,1.988
	c2.339,0,4.324-1.067,6.62-2.3c3.059-1.646,6.866-3.69,12.717-3.69c5.685,0,8.963,1.877,11.859,3.535
	c2.298,1.318,4.285,2.455,7.188,2.455c3.133,0,5.315-1.145,7.629-2.361c2.55-1.334,5.434-2.851,9.771-2.851
	c3.726,0,6.662,0.795,9.141,1.838c3.506-1.166,5.497-2.467,5.489-3.84c-0.018-3.308-11.559-6.118-28.407-7.451l-13.77-0.722
	c-3.323-0.087-6.752-0.133-10.278-0.111c-3.926,0.021-7.738,0.115-11.419,0.273L37.737,90.49
	c-12.067,1.159-23.285,3.978-25.012,5.302c-1.727,1.315-8.527,3.478,1.331,6.469c0.46,0.134,1.044,0.29,1.731,0.455
	c2.482-1.608,5.408-3.15,9.844-3.15C31.786,99.565,35.532,101.355,38.54,102.789z"/>
<g>
	<linearGradient id="SVGID_3_" gradientUnits="userSpaceOnUse" x1="4.8789" y1="109.4277" x2="123.8789" y2="109.4277">
		<stop  offset="0" style="stop-color:#2AC4F3"/>
		<stop  offset="0.5" style="stop-color:#00AEEE"/>
		<stop  offset="1" style="stop-color:#0095DA"/>
		<a:midPointStop  offset="0" style="stop-color:#2AC4F3"/>
		<a:midPointStop  offset="0.5" style="stop-color:#2AC4F3"/>
		<a:midPointStop  offset="0.5" style="stop-color:#00AEEE"/>
		<a:midPointStop  offset="0.5" style="stop-color:#00AEEE"/>
		<a:midPointStop  offset="1" style="stop-color:#0095DA"/>
	</linearGradient>
	<path fill="url(#SVGID_3_)" d="M83.524,116.619c-5.662,0-9.615-2.065-12.792-3.725c-2.277-1.19-4.244-2.218-6.255-2.218
		c-2.035,0-4.113,1.044-6.521,2.252c-3.274,1.645-7.349,3.69-12.816,3.69c-4.99,0-8.005-1.818-10.921-3.576
		c-2.564-1.546-4.986-3.006-8.588-3.006c-3.396,0-5.174,0.935-7.233,2.017c-2.398,1.26-5.117,2.688-10.903,2.688
		c-0.94-0.099-2.616-0.758-2.616-2.569c0-1.851,1.711-2.34,2.616-2.34c3.071,0,5.225-1.451,7.505-2.987
		c2.666-1.796,5.688-3.831,10.631-3.831c5.97,0,9.471,1.671,12.56,3.146c2.323,1.108,4.329,2.065,6.95,2.065
		c2.545,0,4.611-1.11,7.004-2.396c3.133-1.685,6.685-3.594,12.333-3.594c5.466,0,8.647,1.822,11.454,3.43
		c2.399,1.374,4.472,2.561,7.593,2.561c3.33,0,5.601-1.19,8.004-2.451c2.588-1.356,5.264-2.76,9.396-2.76
		c6.41,0,10.504,2.428,13.793,4.379c2.369,1.406,4.416,2.62,6.728,2.62c0.845,0.009,2.434,0.547,2.434,2.522
		c0,1.371-0.984,2.223-2.567,2.223c-0.235,0-0.389-0.021-0.389-0.021c-0.009,0-0.018,0-0.026,0c-6.505,0-8.95-1.447-11.108-2.724
		c-1.793-1.062-3.342-1.978-7.031-1.978c-3.891,0-6.173,1.474-8.589,3.034C91.469,114.815,88.677,116.619,83.524,116.619z"/>
	<path fill="#231F20" d="M64.478,102.735c9.856,0,11.956,5.99,19.047,5.99c7.082,0,9.576-5.211,17.4-5.211
		c10.858,0,14.721,6.999,20.521,6.999c0,0,1.934,0.02,1.934,2.022c0,1.544-1.413,1.723-2.067,1.723
		c-0.197,0-0.326-0.017-0.326-0.017c-11.87,0-9.848-4.705-18.229-4.705c-8.376,0-9.568,6.582-19.232,6.582
		c-9.569,0-13.981-5.942-19.047-5.942c-5.069,0-10.039,5.942-19.336,5.942c-9.3,0-11.688-6.582-19.51-6.582
		c-7.642,0-7.642,4.705-18.136,4.705c0,0-2.116-0.229-2.116-2.069s2.116-1.84,2.116-1.84c6.902,0,9.148-6.818,18.136-6.818
		c10.4,0,13.251,5.211,19.51,5.211C51.214,108.726,54.621,102.735,64.478,102.735 M64.478,101.735c-5.773,0-9.384,1.94-12.569,3.653
		c-2.333,1.254-4.348,2.337-6.767,2.337c-2.508,0-4.466-0.935-6.734-2.017c-3.137-1.497-6.692-3.194-12.775-3.194
		c-5.096,0-8.185,2.081-10.91,3.916c-2.312,1.558-4.308,2.902-7.226,2.902h0c-0.077,0-0.758,0.009-1.456,0.313
		c-1.055,0.458-1.66,1.379-1.66,2.527c0,2.166,1.968,2.951,3.009,3.063l0.054,0.006h0.054c5.909,0,8.686-1.459,11.135-2.746
		c2.001-1.051,3.729-1.959,7.001-1.959c3.464,0,5.828,1.425,8.33,2.934c2.836,1.71,6.051,3.648,11.18,3.648
		c5.585,0,9.719-2.075,13.041-3.743c2.35-1.18,4.38-2.199,6.296-2.199c1.888,0,3.805,1.001,6.023,2.16
		c3.225,1.686,7.238,3.782,13.023,3.782c5.3,0,8.283-1.927,10.915-3.627c2.454-1.586,4.574-2.955,8.317-2.955
		c3.553,0,5.047,0.884,6.777,1.907c2.21,1.309,4.715,2.79,11.398,2.798c0.077,0.007,0.21,0.017,0.379,0.017
		c1.863,0,3.067-1.069,3.067-2.723c0-2.196-1.748-3.011-2.924-3.022c-2.185,0-4.176-1.182-6.482-2.55
		c-3.342-1.982-7.5-4.449-14.048-4.449c-4.256,0-6.987,1.433-9.629,2.817c-2.348,1.23-4.565,2.394-7.771,2.394
		c-2.988,0-5.007-1.156-7.344-2.495C73.319,103.593,70.077,101.735,64.478,101.735L64.478,101.735z"/>
</g>
</svg>
