<?xml version="1.0" encoding="utf-8"?>
<!-- Generator: Adobe Illustrator 15.0.0, SVG Export Plug-In . SVG Version: 6.00 Build 0)  -->
<!DOCTYPE svg PUBLIC "-//W3C//DTD SVG 1.1//EN" "http://www.w3.org/Graphics/SVG/1.1/DTD/svg11.dtd" [
	<!ENTITY ns_flows "http://ns.adobe.com/Flows/1.0/">
	<!ENTITY ns_extend "http://ns.adobe.com/Extensibility/1.0/">
	<!ENTITY ns_ai "http://ns.adobe.com/AdobeIllustrator/10.0/">
	<!ENTITY ns_graphs "http://ns.adobe.com/Graphs/1.0/">
]>
<svg version="1.1" id="Layer_1" xmlns:x="&ns_extend;" xmlns:i="&ns_ai;" xmlns:graph="&ns_graphs;"
	 xmlns="http://www.w3.org/2000/svg" xmlns:xlink="http://www.w3.org/1999/xlink" xmlns:a="http://ns.adobe.com/AdobeSVGViewerExtensions/3.0/"
	 x="0px" y="0px" width="128px" height="128px" viewBox="0 0 128 128" enable-background="new 0 0 128 128" xml:space="preserve">
<path fill="#F36C21" stroke="#231F20" stroke-miterlimit="10" d="M70.685,33.928c5.283-1.641,8.229-7.246,6.595-12.526
	c-1.641-5.282-7.248-8.23-12.53-6.59c-5.274,1.638-8.228,7.25-6.588,12.526C59.8,32.619,65.411,35.567,70.685,33.928z"/>
<linearGradient id="SVGID_1_" gradientUnits="userSpaceOnUse" x1="23.0664" y1="106.71" x2="127.1387" y2="106.71">
	<stop  offset="0" style="stop-color:#2AC4F3"/>
	<stop  offset="0.5" style="stop-color:#00AEEE"/>
	<stop  offset="1" style="stop-color:#0095DA"/>
	<a:midPointStop  offset="0" style="stop-color:#2AC4F3"/>
	<a:midPointStop  offset="0.5" style="stop-color:#2AC4F3"/>
	<a:midPointStop  offset="0.5" style="stop-color:#00AEEE"/>
	<a:midPointStop  offset="0.5" style="stop-color:#00AEEE"/>
	<a:midPointStop  offset="1" style="stop-color:#0095DA"/>
</linearGradient>
<path fill="url(#SVGID_1_)" stroke="#231F20" stroke-miterlimit="10" d="M125.272,107.507c-6.09,0-8.067-6.013-15.995-6.013
	c-9.172,0-11.687,4.595-17.208,4.595c-5.357,0-8.361-5.283-17.054-5.283c-8.69,0-10.547,5.283-16.798,5.283
	c-6.25,0-8.443-4.595-15.346-4.595c-9.577,0-12.985,6.174-18.097,6.174c0,0-1.708,0.017-1.708,1.787c0,1.769,2.112,1.5,2.112,1.5
	c10.47,0,8.685-4.15,16.076-4.15c7.39,0,8.439,5.81,16.963,5.81c8.441,0,12.329-5.243,16.798-5.243
	c4.471,0,8.854,5.243,17.054,5.243c8.204,0,10.312-5.81,17.208-5.81c6.74,0,6.74,4.15,15.995,4.15c0,0,1.866-0.203,1.866-1.825
	C127.139,107.506,125.272,107.507,125.272,107.507z"/>
<g>
	<linearGradient id="SVGID_2_" gradientUnits="userSpaceOnUse" x1="71.9697" y1="113.0059" x2="81.8613" y2="113.0059">
		<stop  offset="0" style="stop-color:#322106"/>
		<stop  offset="1" style="stop-color:#8F552F"/>
		<a:midPointStop  offset="0" style="stop-color:#322106"/>
		<a:midPointStop  offset="0.5091" style="stop-color:#322106"/>
		<a:midPointStop  offset="1" style="stop-color:#8F552F"/>
	</linearGradient>
	<path fill="url(#SVGID_2_)" stroke="#231F20" stroke-miterlimit="10" d="M75.016,110.481c-0.835,0-1.868,0.429-3.046,1.017
		c0.649,0.967,1.321,1.94,1.858,2.674c1.57,2.141,3.117,1.112,3.117,1.112s1.893-0.627,4.916-1.985
		c-0.809-0.372-1.575-0.754-2.293-1.114C77.75,111.271,76.178,110.481,75.016,110.481z"/>
	<linearGradient id="SVGID_3_" gradientUnits="userSpaceOnUse" x1="74.5059" y1="81.1172" x2="127.1396" y2="81.1172">
		<stop  offset="0" style="stop-color:#322106"/>
		<stop  offset="1" style="stop-color:#8F552F"/>
		<a:midPointStop  offset="0" style="stop-color:#322106"/>
		<a:midPointStop  offset="0.5091" style="stop-color:#322106"/>
		<a:midPointStop  offset="1" style="stop-color:#8F552F"/>
	</linearGradient>
	<path fill="url(#SVGID_3_)" stroke="#231F20" stroke-miterlimit="10" d="M126.795,67.603l-3.48-7.454
		c-0.609-1.87-3.415-0.228-3.415-0.228c-5.242,2.237-10.111,4.96-14.597,7.935l-8.055,5.911c-4.755,3.836-8.941,7.836-12.507,11.637
		l-6.663,7.672c-1.357,1.686-2.549,3.249-3.572,4.642c0.174-0.004,0.332-0.021,0.51-0.021c5.652,0,9.249,1.934,12.139,3.488
		c1.939,1.042,3.342,1.796,4.915,1.796c1.707,0,3.081-0.655,4.98-1.563c1.868-0.891,4.052-1.915,6.993-2.517
		c1.226-1.111,2.441-2.281,3.631-3.521c13.722-14.294,18.953-24.733,18.953-24.733C127.672,69.219,126.795,67.603,126.795,67.603z"
		/>
</g>
<path fill="#38454F" stroke="#231F20" stroke-miterlimit="10" d="M29.375,52.342l-8.155-4.414l-4.525-2.448l3.307-2.118l6.242-3.998
	l0.82,3.404l4.344-1.473l-1.479-6.12c-0.172-0.718-0.684-1.307-1.367-1.583c-0.686-0.273-1.462-0.203-2.084,0.196l-14.943,9.573
	H3.421c-1.258,0-2.281,1.022-2.281,2.283s1.023,2.283,2.281,2.283h8.204l20.086,10.87c0.342,0.185,0.715,0.276,1.086,0.276h0.012
	c1.248,0.04,2.295-1.02,2.295-2.284c0-0.297-0.058-0.582-0.162-0.843l-1.782-7.388l-4.562,0.574L29.375,52.342z"/>
<path fill="#F36C21" stroke="#231F20" stroke-miterlimit="10" d="M101.625,46.43c0,0-9.947-7.088-33.329-8.179
	c-23.38-1.09-34.892,2.483-34.892,2.483s-0.936,0.262-1.996,0.562l-4.344,1.473c-0.914,0.592-1.627,1.611-1.05,3.483
	c0.59,1.914,1.584,2.65,2.584,2.881l4.562-0.574c1.251-0.149,4.293-0.564,5.745-0.628c8.886-0.39,14.101,0.049,14.101,0.049
	s-5.569,10.583-1.512,22.167c3.744,10.691,23.141,21.352,26.583,22.93l6.663-7.672c-1.944-0.934-4.738-2.336-7.224-3.801
	c-4.358-2.565-8.391-5.92-8.391-5.92s6.721-6.834,16.007-6.784c6.025,0.032,10.032,2.872,12.114,4.868l8.055-5.911
	c-2.476-2.888-8.117-8.378-15.807-9.132c-10.492-1.029-18.414,3.149-18.414,3.149s-0.325-2.845,0.561-7.015
	c0.887-4.17,2.169-6.454,2.169-6.454s3.624,0.209,7.49,0.811c3.089,0.48,4.248,0.794,5.929,1.217
	c3.729,0.939,9.791,2.539,9.791,2.539s3.854,1.438,5.671-1.348C104.51,48.836,101.625,46.43,101.625,46.43z"/>
</svg>
