<?xml version="1.0" encoding="utf-8"?>
<!-- Generator: Adobe Illustrator 15.0.0, SVG Export Plug-In . SVG Version: 6.00 Build 0)  -->
<!DOCTYPE svg PUBLIC "-//W3C//DTD SVG 1.1//EN" "http://www.w3.org/Graphics/SVG/1.1/DTD/svg11.dtd">
<svg version="1.1" id="Layer_1" xmlns="http://www.w3.org/2000/svg" xmlns:xlink="http://www.w3.org/1999/xlink" x="0px" y="0px"
	 width="240px" height="80px" viewBox="0 0 240 80" enable-background="new 0 0 240 80" xml:space="preserve">
<ellipse fill="#FFFFFF" cx="101.507" cy="31.22" rx="24.368" ry="24.252"/>
<path fill="#E30613" d="M77.251,31.218c0-11.53,8.051-21.175,18.837-23.636V4.179c-3.491,0.688-6.745,2.037-9.629,3.907
	c0.025-0.016,0.047-0.034,0.072-0.05H14.556c-5.373,0-9.728,4.553-9.728,10.171V43.3c0,5.618,4.354,10.173,9.728,10.173h70.617
	c3.187,2.334,6.897,3.986,10.916,4.778v-3.396C85.302,52.396,77.251,42.752,77.251,31.218z"/>
<path d="M226.16,8.036H116.362c0.037,0.023,0.072,0.051,0.111,0.076c-2.914-1.897-6.209-3.255-9.744-3.943v3.369
	c10.882,2.391,19.028,12.083,19.028,23.682c0,11.6-8.146,21.291-19.028,23.682v3.359c4.062-0.789,7.811-2.455,11.026-4.813
	c-0.012,0.01-0.023,0.016-0.034,0.026h108.443c5.372,0,9.729-4.201,9.729-9.816V18.562C235.889,12.945,231.535,8.036,226.16,8.036z"
	/>
<path fill="#FFFFFF" d="M20.179,18.071h6.612L37.31,31.582V18.071h7.013v25.565h-6.208L27.192,29.611v14.026h-7.013V18.071z"/>
<path fill="#FFFFFF" d="M143.697,17.888h6.828l10.886,25.748h-7.597l-1.862-4.563h-9.861l-1.827,4.563h-7.451L143.697,17.888z
	 M149.908,33.555l-2.85-7.268l-2.886,7.268H149.908z"/>
<path fill="#FFFFFF" d="M157.309,18.071h7.926l5.808,16.179l5.81-16.179h7.776l-10.371,25.748h-6.573L157.309,18.071z"/>
<path fill="#FFFFFF" d="M187.257,18.071h7.124v25.565h-7.124V18.071z"/>
<path fill="#FFFFFF" d="M198.178,30.925v-0.072c0-7.449,5.733-13.292,13.479-13.292c5.225,0,8.585,2.191,10.849,5.333l-5.332,4.125
	c-1.463-1.825-3.141-2.993-5.589-2.993c-3.58,0-6.099,3.029-6.099,6.754v0.073c0,3.834,2.519,6.83,6.099,6.83
	c2.665,0,4.235-1.242,5.771-3.104l5.33,3.799c-2.412,3.325-5.662,5.772-11.322,5.772C204.059,44.146,198.178,38.559,198.178,30.925z
	"/>
<g>
	<path fill="#FFFFFF" d="M39.617,74.061h-5.246l1.136-10.131h5.023l-0.119,1.073h-3.865l-0.377,3.37h3.576l-0.12,1.066h-3.576
		l-0.398,3.547h4.085L39.617,74.061z"/>
	<path fill="#FFFFFF" d="M47.238,74.061h-1.133l0.462-4.127c0.172-1.533-0.29-2.302-1.385-2.302c-0.566,0-1.058,0.218-1.478,0.652
		c-0.418,0.437-0.666,0.987-0.74,1.649l-0.463,4.127h-1.132l0.812-7.234h1.131l-0.135,1.201h0.029c0.636-0.914,1.46-1.37,2.473-1.37
		c0.773,0,1.337,0.255,1.688,0.768c0.353,0.513,0.475,1.249,0.368,2.216L47.238,74.061z"/>
	<path fill="#FFFFFF" d="M55.236,74.061h-1.132l0.467-4.168c0.169-1.509-0.295-2.262-1.39-2.262c-0.551,0-1.042,0.219-1.467,0.652
		c-0.427,0.438-0.677,0.996-0.754,1.68l-0.459,4.098h-1.133l1.201-10.711h1.132l-0.524,4.678h0.027
		c0.646-0.914,1.47-1.37,2.474-1.37c1.592,0,2.278,0.979,2.057,2.944L55.236,74.061z"/>
	<path fill="#FFFFFF" d="M62.428,74.061h-1.131l0.127-1.131h-0.028c-0.589,0.868-1.362,1.303-2.319,1.303
		c-0.706,0-1.235-0.191-1.589-0.572c-0.355-0.383-0.497-0.889-0.428-1.52c0.152-1.354,1.018-2.141,2.599-2.361l2.152-0.305
		c0.138-1.228-0.279-1.843-1.25-1.843c-0.852,0-1.653,0.295-2.405,0.89l0.133-1.186c0.745-0.452,1.572-0.679,2.478-0.679
		c1.661,0,2.391,0.899,2.19,2.698L62.428,74.061z M61.707,70.4l-1.732,0.238c-0.532,0.075-0.944,0.209-1.231,0.399
		c-0.289,0.192-0.459,0.528-0.515,1.015c-0.04,0.354,0.051,0.643,0.272,0.864c0.22,0.226,0.537,0.336,0.945,0.336
		c0.562,0,1.047-0.2,1.459-0.604c0.41-0.401,0.65-0.912,0.72-1.528L61.707,70.4z"/>
	<path fill="#FFFFFF" d="M70.428,74.061h-1.133l0.463-4.127c0.172-1.533-0.289-2.302-1.384-2.302c-0.567,0-1.06,0.218-1.478,0.652
		c-0.419,0.437-0.666,0.987-0.74,1.649l-0.463,4.127h-1.132l0.812-7.234h1.131l-0.134,1.201h0.026
		c0.636-0.914,1.461-1.37,2.474-1.37c0.774,0,1.335,0.255,1.689,0.768c0.351,0.513,0.473,1.249,0.366,2.216L70.428,74.061z"/>
	<path fill="#FFFFFF" d="M77.416,73.729c-0.581,0.334-1.245,0.502-1.99,0.502c-1.008,0-1.783-0.336-2.327-1.006
		c-0.544-0.674-0.755-1.543-0.635-2.613c0.132-1.189,0.574-2.147,1.321-2.872c0.749-0.722,1.679-1.085,2.793-1.085
		c0.621,0,1.156,0.117,1.603,0.354l-0.133,1.188c-0.483-0.377-1.023-0.565-1.621-0.565c-0.722,0-1.345,0.265-1.866,0.796
		c-0.521,0.528-0.832,1.225-0.927,2.088c-0.094,0.846,0.048,1.516,0.427,2.006c0.38,0.487,0.937,0.734,1.667,0.734
		c0.616,0,1.22-0.21,1.81-0.629L77.416,73.729z"/>
	<path fill="#FFFFFF" d="M80.222,74.061H79.09l0.811-7.233h1.131L80.222,74.061z M80.686,64.988c-0.203,0-0.367-0.069-0.493-0.211
		c-0.127-0.143-0.178-0.321-0.154-0.537c0.024-0.217,0.116-0.396,0.274-0.54c0.159-0.144,0.339-0.216,0.542-0.216
		c0.208,0,0.375,0.072,0.503,0.216c0.129,0.146,0.182,0.323,0.158,0.54c-0.024,0.209-0.116,0.385-0.277,0.529
		C81.077,64.915,80.894,64.988,80.686,64.988z"/>
	<path fill="#FFFFFF" d="M88.38,74.061h-1.131l0.461-4.127c0.172-1.533-0.29-2.302-1.384-2.302c-0.565,0-1.058,0.218-1.478,0.652
		c-0.419,0.437-0.667,0.987-0.741,1.649l-0.463,4.127h-1.132l0.812-7.234h1.132l-0.135,1.201h0.028
		c0.636-0.914,1.461-1.37,2.473-1.37c0.773,0,1.335,0.255,1.688,0.768c0.353,0.513,0.474,1.249,0.367,2.216L88.38,74.061z"/>
	<path fill="#FFFFFF" d="M96.609,73.48c-0.297,2.656-1.689,3.984-4.174,3.984c-0.874,0-1.619-0.17-2.235-0.509l0.13-1.159
		c0.744,0.453,1.478,0.678,2.201,0.678c1.739,0,2.715-0.947,2.927-2.838l0.09-0.791H95.52c-0.643,0.922-1.504,1.385-2.585,1.385
		c-0.879,0-1.55-0.321-2.014-0.965c-0.465-0.645-0.636-1.506-0.514-2.588c0.138-1.229,0.536-2.207,1.195-2.934
		c0.659-0.727,1.489-1.087,2.492-1.087c0.952,0,1.616,0.391,1.988,1.173h0.028l0.111-1.003h1.132L96.609,73.48z M95.779,70.788
		l0.12-1.065c0.063-0.572-0.071-1.065-0.405-1.476c-0.333-0.41-0.784-0.615-1.35-0.615c-0.699,0-1.274,0.261-1.729,0.781
		c-0.456,0.521-0.733,1.247-0.839,2.187c-0.091,0.807,0.027,1.447,0.352,1.93c0.326,0.484,0.802,0.727,1.427,0.727
		c0.636,0,1.178-0.23,1.627-0.691C95.434,72.1,95.699,71.51,95.779,70.788z"/>
	<path fill="#FFFFFF" d="M109.149,74.061h-1.285l-0.73-2.84h-4.196l-1.305,2.84h-1.291l4.932-10.131h1.204L109.149,74.061z
		 M106.874,70.152l-1.069-4.315c-0.033-0.142-0.06-0.368-0.075-0.679h-0.028c-0.078,0.289-0.157,0.515-0.235,0.679l-2.022,4.315
		H106.874z"/>
	<path fill="#FFFFFF" d="M119.981,66.826l-2.931,7.234h-1.173l-0.875-5.181c-0.031-0.196-0.045-0.422-0.036-0.67h-0.026
		c-0.034,0.169-0.106,0.39-0.219,0.657l-2.163,5.191h-1.131l-1.33-7.235h1.188l0.852,5.44c0.029,0.164,0.037,0.381,0.024,0.649
		h0.056c0.037-0.207,0.103-0.429,0.198-0.664l2.237-5.429h1.035l0.852,5.453c0.027,0.174,0.034,0.392,0.03,0.649h0.054
		c0.031-0.183,0.093-0.399,0.189-0.649l2.048-5.453L119.981,66.826L119.981,66.826z"/>
	<path fill="#FFFFFF" d="M125.541,74.061h-1.132l0.127-1.131h-0.028c-0.59,0.868-1.361,1.303-2.318,1.303
		c-0.707,0-1.233-0.191-1.59-0.572c-0.354-0.383-0.499-0.889-0.428-1.52c0.151-1.354,1.02-2.141,2.596-2.361l2.155-0.305
		c0.138-1.228-0.28-1.843-1.25-1.843c-0.853,0-1.653,0.295-2.405,0.89l0.133-1.186c0.746-0.452,1.572-0.679,2.478-0.679
		c1.662,0,2.394,0.899,2.19,2.698L125.541,74.061z M124.818,70.4l-1.731,0.238c-0.532,0.075-0.944,0.209-1.231,0.399
		c-0.287,0.192-0.459,0.528-0.514,1.015c-0.04,0.354,0.051,0.643,0.271,0.864c0.222,0.226,0.537,0.336,0.945,0.336
		c0.563,0,1.049-0.2,1.461-0.604c0.41-0.401,0.648-0.912,0.721-1.528L124.818,70.4z"/>
	<path fill="#FFFFFF" d="M132.04,67.999c-0.183-0.155-0.458-0.233-0.83-0.233c-0.481,0-0.912,0.233-1.29,0.699
		c-0.376,0.467-0.609,1.104-0.699,1.907l-0.412,3.688h-1.134l0.812-7.233h1.132l-0.168,1.487h0.028
		c0.217-0.508,0.508-0.901,0.871-1.188c0.363-0.283,0.75-0.429,1.159-0.429c0.293,0,0.517,0.032,0.665,0.099L132.04,67.999z"/>
	<path fill="#FFFFFF" d="M138.455,70.732h-4.99c-0.07,0.807,0.069,1.427,0.428,1.865c0.355,0.438,0.887,0.657,1.598,0.657
		c0.797,0,1.559-0.269,2.283-0.808l-0.123,1.088c-0.67,0.464-1.519,0.693-2.539,0.693c-0.997,0-1.745-0.328-2.243-0.986
		c-0.496-0.656-0.677-1.582-0.545-2.771c0.129-1.125,0.541-2.041,1.243-2.754c0.703-0.708,1.518-1.063,2.439-1.063
		c0.928,0,1.607,0.308,2.043,0.92c0.438,0.611,0.596,1.462,0.475,2.55L138.455,70.732z M137.406,69.75
		c0.07-0.669-0.03-1.189-0.297-1.563c-0.271-0.373-0.682-0.558-1.232-0.558c-0.534,0-1.009,0.194-1.426,0.587
		c-0.415,0.391-0.704,0.902-0.862,1.532L137.406,69.75L137.406,69.75z"/>
	<path fill="#FFFFFF" d="M145.661,74.061h-1.132l0.464-4.127c0.17-1.533-0.289-2.302-1.386-2.302c-0.565,0-1.059,0.218-1.477,0.652
		c-0.421,0.437-0.668,0.987-0.742,1.649l-0.464,4.127h-1.132l0.813-7.234h1.131l-0.135,1.201h0.028
		c0.636-0.914,1.462-1.37,2.474-1.37c0.774,0,1.336,0.255,1.688,0.768s0.476,1.249,0.367,2.216L145.661,74.061z"/>
	<path fill="#FFFFFF" d="M153.846,70.732h-4.99c-0.068,0.807,0.071,1.427,0.429,1.865c0.356,0.438,0.887,0.657,1.596,0.657
		c0.796,0,1.56-0.269,2.287-0.808l-0.124,1.088c-0.671,0.463-1.52,0.693-2.541,0.693c-0.998,0-1.746-0.33-2.242-0.986
		c-0.496-0.657-0.678-1.582-0.546-2.773c0.127-1.123,0.542-2.041,1.243-2.752c0.705-0.708,1.52-1.063,2.441-1.063
		c0.926,0,1.605,0.307,2.043,0.919c0.438,0.61,0.597,1.462,0.474,2.55L153.846,70.732z M152.797,69.75
		c0.071-0.669-0.029-1.189-0.297-1.563c-0.27-0.373-0.68-0.558-1.232-0.558c-0.533,0-1.009,0.194-1.424,0.587
		c-0.418,0.391-0.707,0.902-0.863,1.532L152.797,69.75L152.797,69.75z"/>
	<path fill="#FFFFFF" d="M154.787,73.799l0.139-1.242c0.565,0.465,1.217,0.697,1.957,0.697c0.993,0,1.528-0.339,1.605-1.018
		c0.021-0.193-0.004-0.357-0.072-0.491c-0.07-0.136-0.171-0.252-0.307-0.356c-0.135-0.104-0.295-0.197-0.48-0.279
		s-0.387-0.17-0.602-0.258c-0.299-0.127-0.562-0.254-0.784-0.386c-0.222-0.128-0.402-0.274-0.545-0.437
		c-0.14-0.163-0.237-0.348-0.296-0.557c-0.059-0.207-0.07-0.449-0.039-0.727c0.037-0.338,0.146-0.641,0.33-0.9
		c0.179-0.261,0.408-0.48,0.682-0.656c0.271-0.176,0.577-0.312,0.909-0.398c0.334-0.091,0.674-0.134,1.021-0.134
		c0.612,0,1.146,0.108,1.605,0.323l-0.131,1.176c-0.48-0.35-1.061-0.524-1.734-0.524c-0.213,0-0.406,0.026-0.582,0.073
		c-0.176,0.05-0.33,0.119-0.463,0.209c-0.13,0.09-0.238,0.195-0.318,0.322c-0.08,0.125-0.131,0.263-0.147,0.412
		c-0.021,0.188-0.007,0.348,0.048,0.474c0.055,0.128,0.139,0.237,0.256,0.338c0.117,0.099,0.266,0.188,0.439,0.271
		c0.174,0.08,0.373,0.17,0.599,0.262c0.299,0.124,0.567,0.249,0.8,0.378c0.232,0.131,0.43,0.274,0.588,0.438
		c0.154,0.162,0.269,0.35,0.34,0.562c0.069,0.21,0.09,0.464,0.056,0.756c-0.041,0.358-0.149,0.668-0.336,0.935
		c-0.183,0.264-0.413,0.48-0.691,0.655c-0.274,0.175-0.585,0.304-0.933,0.39c-0.346,0.084-0.702,0.127-1.07,0.127
		C155.902,74.23,155.288,74.085,154.787,73.799z"/>
	<path fill="#FFFFFF" d="M160.784,73.799l0.142-1.242c0.564,0.465,1.215,0.697,1.955,0.697c0.993,0,1.53-0.339,1.605-1.018
		c0.021-0.193-0.004-0.357-0.072-0.491c-0.07-0.136-0.171-0.252-0.307-0.356c-0.133-0.104-0.293-0.197-0.48-0.279
		s-0.386-0.17-0.602-0.258c-0.301-0.127-0.562-0.254-0.783-0.386c-0.223-0.128-0.402-0.274-0.547-0.437
		c-0.141-0.163-0.238-0.348-0.295-0.557c-0.057-0.207-0.069-0.449-0.039-0.727c0.039-0.338,0.148-0.641,0.33-0.9
		c0.181-0.26,0.406-0.48,0.68-0.656c0.271-0.179,0.576-0.312,0.912-0.398c0.333-0.091,0.674-0.134,1.02-0.134
		c0.611,0,1.146,0.108,1.605,0.323l-0.131,1.176c-0.481-0.35-1.061-0.524-1.735-0.524c-0.212,0-0.408,0.026-0.582,0.073
		c-0.176,0.05-0.329,0.119-0.462,0.209c-0.132,0.09-0.238,0.195-0.318,0.322c-0.08,0.125-0.131,0.263-0.147,0.412
		c-0.021,0.188-0.007,0.348,0.05,0.474c0.05,0.128,0.137,0.237,0.255,0.338c0.117,0.099,0.265,0.188,0.438,0.271
		c0.174,0.08,0.373,0.17,0.6,0.262c0.298,0.124,0.566,0.249,0.799,0.378c0.234,0.131,0.43,0.274,0.587,0.438
		c0.156,0.162,0.271,0.35,0.341,0.562c0.07,0.21,0.09,0.464,0.057,0.756c-0.041,0.358-0.15,0.668-0.336,0.935
		c-0.182,0.264-0.413,0.48-0.691,0.655c-0.275,0.175-0.587,0.304-0.934,0.39c-0.344,0.084-0.7,0.127-1.069,0.127
		C161.9,74.23,161.285,74.085,160.784,73.799z"/>
	<path fill="#FFFFFF" d="M176.111,74.061h-1.131l0.127-1.131h-0.027c-0.592,0.868-1.363,1.303-2.321,1.303
		c-0.702,0-1.231-0.191-1.589-0.572c-0.354-0.383-0.497-0.889-0.428-1.52c0.15-1.354,1.017-2.141,2.598-2.361l2.153-0.305
		c0.138-1.228-0.278-1.843-1.248-1.843c-0.853,0-1.654,0.295-2.406,0.89l0.134-1.186c0.745-0.452,1.57-0.679,2.478-0.679
		c1.661,0,2.392,0.899,2.188,2.698L176.111,74.061z M175.391,70.4l-1.732,0.238c-0.53,0.075-0.942,0.209-1.231,0.399
		c-0.288,0.192-0.459,0.528-0.512,1.015c-0.04,0.354,0.049,0.643,0.271,0.864c0.221,0.226,0.537,0.336,0.945,0.336
		c0.561,0,1.051-0.2,1.458-0.604c0.412-0.401,0.651-0.912,0.722-1.528L175.391,70.4z"/>
	<path fill="#FFFFFF" d="M181.529,73.989c-0.282,0.151-0.646,0.227-1.082,0.227c-1.236,0-1.774-0.707-1.616-2.118l0.479-4.283
		h-1.215l0.108-0.986h1.216l0.196-1.766l1.176-0.373l-0.239,2.141h1.778l-0.11,0.986h-1.779l-0.455,4.076
		c-0.053,0.484-0.014,0.83,0.125,1.039c0.137,0.209,0.393,0.311,0.767,0.311c0.285,0,0.54-0.079,0.765-0.239L181.529,73.989z"/>
	<path fill="#FFFFFF" d="M186.643,73.65l0.156-1.399c0.141,0.142,0.313,0.271,0.521,0.382c0.205,0.112,0.425,0.209,0.656,0.286
		c0.234,0.078,0.469,0.14,0.709,0.181c0.237,0.043,0.461,0.063,0.668,0.063c0.713,0,1.262-0.138,1.643-0.406
		c0.384-0.271,0.605-0.659,0.66-1.169c0.031-0.271-0.002-0.511-0.096-0.714c-0.095-0.202-0.235-0.388-0.425-0.556
		c-0.188-0.166-0.415-0.326-0.683-0.479c-0.27-0.149-0.553-0.313-0.86-0.483c-0.327-0.18-0.626-0.359-0.905-0.545
		c-0.276-0.184-0.517-0.386-0.711-0.605c-0.195-0.223-0.343-0.473-0.437-0.754c-0.097-0.279-0.122-0.605-0.079-0.986
		c0.051-0.462,0.193-0.861,0.432-1.203c0.236-0.342,0.527-0.623,0.875-0.846c0.346-0.221,0.73-0.387,1.155-0.495
		s0.851-0.161,1.278-0.161c0.976,0,1.674,0.118,2.094,0.359l-0.15,1.335c-0.537-0.413-1.265-0.622-2.18-0.622
		c-0.254,0-0.51,0.029-0.77,0.081c-0.26,0.055-0.492,0.144-0.705,0.267c-0.211,0.123-0.391,0.279-0.535,0.475
		c-0.146,0.191-0.234,0.429-0.268,0.707c-0.029,0.26-0.006,0.484,0.065,0.671c0.074,0.188,0.194,0.358,0.36,0.515
		c0.168,0.155,0.373,0.309,0.623,0.453c0.248,0.146,0.535,0.307,0.861,0.48c0.332,0.178,0.647,0.369,0.943,0.563
		c0.295,0.198,0.548,0.416,0.764,0.656c0.213,0.241,0.371,0.508,0.479,0.801c0.109,0.29,0.141,0.627,0.099,1.004
		c-0.057,0.497-0.198,0.921-0.429,1.267s-0.521,0.629-0.868,0.845c-0.349,0.218-0.739,0.374-1.173,0.469
		c-0.436,0.097-0.887,0.147-1.355,0.147c-0.156,0-0.349-0.015-0.574-0.041c-0.229-0.026-0.457-0.063-0.69-0.109
		c-0.233-0.051-0.455-0.111-0.66-0.186C186.922,73.82,186.762,73.74,186.643,73.65z"/>
	<path fill="#FFFFFF" d="M200.469,70.732h-4.99c-0.071,0.807,0.07,1.427,0.429,1.865c0.356,0.438,0.887,0.657,1.596,0.657
		c0.797,0,1.56-0.269,2.285-0.808l-0.122,1.088c-0.671,0.463-1.521,0.693-2.541,0.693c-0.999,0-1.745-0.33-2.241-0.986
		c-0.499-0.657-0.68-1.582-0.546-2.773c0.126-1.123,0.54-2.041,1.24-2.752c0.705-0.708,1.52-1.063,2.443-1.063
		s1.605,0.307,2.043,0.919c0.438,0.61,0.596,1.462,0.473,2.55L200.469,70.732z M199.419,69.75c0.072-0.669-0.028-1.189-0.297-1.563
		c-0.271-0.373-0.679-0.558-1.229-0.558c-0.535,0-1.011,0.194-1.427,0.587c-0.418,0.391-0.706,0.902-0.862,1.532L199.419,69.75
		L199.419,69.75z"/>
	<path fill="#FFFFFF" d="M206.867,74.061h-1.131l0.125-1.131h-0.026c-0.59,0.868-1.362,1.303-2.321,1.303
		c-0.703,0-1.231-0.191-1.589-0.572c-0.354-0.383-0.497-0.889-0.427-1.52c0.15-1.354,1.018-2.141,2.598-2.361l2.152-0.305
		c0.139-1.228-0.277-1.843-1.248-1.843c-0.852,0-1.654,0.295-2.406,0.89l0.135-1.186c0.746-0.452,1.572-0.679,2.478-0.679
		c1.661,0,2.392,0.899,2.188,2.698L206.867,74.061z M206.146,70.4l-1.732,0.238c-0.533,0.075-0.943,0.209-1.23,0.399
		c-0.291,0.192-0.461,0.528-0.516,1.015c-0.039,0.354,0.051,0.643,0.271,0.864c0.222,0.226,0.535,0.336,0.945,0.336
		c0.563,0,1.047-0.2,1.458-0.604c0.411-0.401,0.65-0.912,0.722-1.528L206.146,70.4z"/>
</g>
<path fill="#FFFFFF" d="M67.074,28.235c-0.37-1.148-0.961-2.134-1.757-2.929c-0.767-0.769-1.75-1.364-2.917-1.772
	c-1.144-0.398-2.536-0.601-4.134-0.601c-1.704,0-3.182,0.152-4.393,0.457c-1.196,0.297-2.361,0.691-3.462,1.167l-0.498,0.213
	l1.753,5.356l0.581-0.219c0.874-0.332,1.716-0.588,2.503-0.764c0.771-0.173,1.683-0.261,2.709-0.261
	c1.238,0,2.168,0.261,2.763,0.772c0.477,0.413,0.751,0.983,0.833,1.737c-0.478-0.14-0.962-0.255-1.446-0.352
	c-0.777-0.152-1.699-0.231-2.735-0.231c-1.217,0-2.345,0.137-3.357,0.404c-1.031,0.273-1.937,0.695-2.691,1.25
	c-0.769,0.566-1.378,1.292-1.808,2.153c-0.429,0.861-0.647,1.886-0.647,3.125c0,1.063,0.199,2.015,0.588,2.836
	c0.389,0.816,0.927,1.521,1.603,2.087c0.668,0.562,1.458,0.985,2.346,1.264c0.873,0.273,1.813,0.412,2.797,0.412
	c1.45,0,2.707-0.247,3.734-0.731c0.579-0.274,1.115-0.607,1.607-0.989v1.356h6.573V31.989
	C67.616,30.614,67.433,29.352,67.074,28.235z M55.706,35.925c0.583-0.395,1.418-0.594,2.488-0.594c0.637,0,1.239,0.063,1.792,0.188
	c0.418,0.093,0.809,0.209,1.166,0.347v0.594c0,0.843-0.316,1.507-0.966,2.027c-0.684,0.546-1.624,0.823-2.798,0.823
	c-0.769,0-1.39-0.172-1.844-0.508c-0.411-0.303-0.603-0.71-0.603-1.354C54.94,36.762,55.185,36.28,55.706,35.925z"/>
<rect x="98.819" y="13.157" fill="#E30613" width="5.426" height="3.715"/>
<rect x="95.559" y="16.496" width="11.894" height="5.547"/>
<polygon fill="#E30613" points="101.653,20.94 101.358,20.94 90.665,20.94 90.665,30.406 92.89,29.398 92.89,23.419 96.793,23.419 
	96.793,27.635 99.622,26.356 99.622,23.419 101.358,23.419 101.653,23.419 103.391,23.419 103.391,26.356 106.219,27.635 
	106.219,23.419 110.124,23.419 110.124,29.398 112.348,30.406 112.348,20.94 "/>
<path d="M111.85,31.772l-10.385-4.33L91.44,31.613l-5.269,2.209c0.027,1.059,1.745,7.711,1.83,7.958c0,0,4.018,7.781,12.434,10.933
	V44.68h1.95v8.064c8.694-3.252,12.321-11.186,12.321-11.186l2.1-7.737L111.85,31.772z"/>
<path fill="#FFFFFF" d="M100.434,44.682v8.031c0.34,0.127,0.674,0.262,1.029,0.372c0.319-0.103,0.615-0.226,0.921-0.34v-8.063
	H100.434z"/>
<path fill="none" d="M125.757,31.22c0-11.599-8.146-21.291-19.028-23.682V54.9C117.611,52.511,125.757,42.82,125.757,31.22z"/>
<path fill="none" d="M77.251,31.218c0,11.534,8.051,21.177,18.837,23.638V7.582C85.302,10.043,77.252,19.688,77.251,31.218z"/>
<path fill="none" d="M101.504,6.967c-1.862,0-3.673,0.217-5.416,0.615v47.273c1.742,0.397,3.553,0.615,5.416,0.615l0,0
	c1.794,0,3.542-0.201,5.225-0.57V7.538C105.045,7.168,103.298,6.968,101.504,6.967L101.504,6.967z"/>
</svg>
