<?xml version="1.0" encoding="utf-8"?>
<!-- Generator: Adobe Illustrator 15.0.0, SVG Export Plug-In . SVG Version: 6.00 Build 0)  -->
<!DOCTYPE svg PUBLIC "-//W3C//DTD SVG 1.1//EN" "http://www.w3.org/Graphics/SVG/1.1/DTD/svg11.dtd">
<svg version="1.1" id="Layer_1" xmlns="http://www.w3.org/2000/svg" xmlns:xlink="http://www.w3.org/1999/xlink" x="0px" y="0px"
	 width="256px" height="256px" viewBox="0 0 256 256" enable-background="new 0 0 256 256" xml:space="preserve">
<rect x="115.58" y="42.622" fill="#E30613" width="25.067" height="17.558"/>
<rect x="100.522" y="58.403" width="54.943" height="26.219"/>
<polygon fill="#E30613" points="128.671,79.409 127.309,79.409 77.916,79.409 77.916,124.154 88.194,119.388 88.194,91.126 
	106.223,91.126 106.223,111.055 119.29,105.011 119.29,91.126 127.309,91.126 128.671,91.126 136.698,91.126 136.698,105.011 
	149.761,111.055 149.761,91.126 167.799,91.126 167.799,119.388 178.072,124.154 178.072,79.409 "/>
<path d="M175.772,130.61l-47.971-20.468l-46.307,19.717l-24.338,10.442c0.126,5.002,8.061,36.447,8.453,37.611
	c0,0,18.561,36.783,57.436,51.68v-37.971h9.005v38.119c40.162-15.371,56.915-52.869,56.915-52.869l9.702-36.57L175.772,130.61z"/>
</svg>
