<?xml version="1.0" encoding="UTF-8"?> <?xml-stylesheet href="SVGStyle.css" type="text/css"?><svg xmlns="http://www.w3.org/2000/svg" version="1.2" baseProfile="tiny" xml:space="preserve" style="shape-rendering:geometricPrecision; fill-rule:evenodd;" width="14.57mm" height="14.99mm" viewBox="-7.37 -7.42 14.57 14.99"> <title>TWRDEF51</title> <desc>two way route of a traffic separation scheme, with the direction not defined in the data</desc> <metadata> <iho:S100SVG xmlns:iho="http://www.iho.int/SVGMetadata"> <iho:Description iho:publisher="IHB" iho:creationDate="2014-06-09" iho:source="S52Preslib4.0" iho:format="S100SVG" iho:version="0.1"/> </iho:S100SVG> 
</metadata>   <style type="text/css"><![CDATA[
      .layout {display:none}  /* used to control visibility of symbolBox, svgBox, pivotPoint (none or inline) */
.symbolBox {stroke:black;stroke-width:0.32;}  /* show the cover of the symbol graphics */
.svgBox {stroke:blue;stroke-width:0.32;}  /* show the entire SVG cover */
.pivotPoint {stroke:red;stroke-width:0.64;}  /* show the pivot/anchor point, 0,0 */
.sl {stroke-linecap:round;stroke-linejoin:round} /* default line style elements */
.f0 {fill:none}  /* no fill */
..sNODTA {stroke:#000000}
.fNODTA {fill:#000000}
.sCURSR {stroke:#4d2c18}  /* sRGB line colour for colour token CURSR */
.fCURSR{fill:#4d2c18} /* sRGB fill colour for colour token CURSR*/
.sCHBLK {stroke:#373531}
.fCHBLK {fill:#373531}
.sCHGRD {stroke:#373531}
.fCHGRD {fill:#373531}
.sCHGRF {stroke:#252221}
.fCHGRF {fill:#252221}
.sCHRED {stroke:#541815}
.fCHRED {fill:#541815}
.sCHGRN {stroke:#2b3610}
.fCHGRN {fill:#2b3610}
.sCHYLW {stroke:#413315}
.fCHYLW {fill:#413315}
.sCHMGD {stroke:#4f1b41}
.fCHMGD {fill:#4f1b41}
.sCHMGF {stroke:#4f1b41}
.fCHMGF {fill:#4f1b41}
.sCHBRN {stroke:#231b0c}
.fCHBRN {fill:#231b0c}
.sCHWHT {stroke:#3e3c37}
.fCHWHT {fill:#3e3c37}
.sSCLBR {stroke:#4d2c18}
.fSCLBR {fill:#4d2c18}
.sCHCOR {stroke:#4d2c18}
.fCHCOR {fill:#4d2c18}
.sLITRD {stroke:#541815}
.fLITRD {fill:#541815}
.sLITGN {stroke:#2b3610}
.fLITGN {fill:#2b3610}
.sLITYW {stroke:#413315}
.fLITYW {fill:#413315}
.sISDNG {stroke:#4f1b41}
.fISDNG {fill:#4f1b41}
.sDNGHL {stroke:#541815}
.fDNGHL {fill:#541815}
.sTRFCD {stroke:#561d47}
.fTRFCD {fill:#561d47}
.sTRFCF {stroke:#4f1b41}
.fTRFCF {fill:#4f1b41}
.sLANDA {stroke:#201813}
.fLANDA {fill:#201813}
.sLANDF {stroke:#2c200c}
.fLANDF {fill:#2c200c}
.sCSTLN {stroke:#3e3c37}
.fCSTLN {fill:#3e3c37}
.sSNDG1 {stroke:#373531}
.fSNDG1 {fill:#373531}
.sSNDG2 {stroke:#45443e}
.fSNDG2 {fill:#45443e}
.sDEPSC {stroke:#3e3c37}
.fDEPSC {fill:#3e3c37}
.sDEPCN {stroke:#373531}
.fDEPCN {fill:#373531}
.sDEPDW {stroke:#000000}
.fDEPDW {fill:#000000}
.sDEPMD {stroke:#000000}
.fDEPMD {fill:#000000}
.sDEPMS {stroke:#150a21}
.fDEPMS {fill:#150a21}
.sDEPVS {stroke:#150a21}
.fDEPVS {fill:#150a21}
.sDEPIT {stroke:#191915}
.fDEPIT {fill:#191915}
.sRADHI {stroke:#2b3610}
.fRADHI {fill:#2b3610}
.sRADLO {stroke:#1c2107}
.fRADLO {fill:#1c2107}
.sARPAT {stroke:#213223}
.fARPAT {fill:#213223}
.sNINFO {stroke:#4d2c18}
.fNINFO {fill:#4d2c18}
.sRESBL {stroke:#332f51}
.fRESBL {fill:#332f51}
.sADINF {stroke:#413315}
.fADINF {fill:#413315}
.sRESGR {stroke:#252221}
.fRESGR {fill:#252221}
.sSHIPS {stroke:#3e3c37}
.fSHIPS {fill:#3e3c37}
.sPSTRK {stroke:#3e3c37}
.fPSTRK {fill:#3e3c37}
.sSYTRK {stroke:#373531}
.fSYTRK {fill:#373531}
.sPLRTE {stroke:#5c1917}
.fAPLRT {fill:#4d2c18}
.sAPLRT {stroke:#4d2c18}
.fPLRTE {fill:#5c1917}
.sUINFD {stroke:#45443e}
.fUINFD {fill:#45443e}
.sUINFF {stroke:#373531}
.fUINFF {fill:#373531}
.sUIBCK {stroke:#000000}
.fUIBCK {fill:#000000}
.sUIAFD {stroke:#150a21}
.fUIAFD {fill:#150a21}
.sUINFR {stroke:#541815}
.fUINFR {fill:#541815}
.sUINFG {stroke:#2b3610}
.fUINFG {fill:#2b3610}
.sUINFO {stroke:#4d2c18}
.fUINFO {fill:#4d2c18}
.sUINFB {stroke:#332f51}
.fUINFB {fill:#332f51}
.sUINFM {stroke:#4f1b41}
.fUINFM {fill:#4f1b41}
.sUIBDR {stroke:#373531}
.fUIBDR {fill:#373531}
.sUIAFF {stroke:#201813}
.fUIAFF {fill:#201813}
.sOUTLW {stroke:#000000}
.fOUTLW {fill:#000000}
.sOUTLL {stroke:#201813}
.fOUTLL {fill:#201813}
.sRES01 {stroke:#000000}
.fRES01 {fill:#000000}
.sRES02 {stroke:#000000}
.fRES02 {fill:#000000}
.sRES03{stroke:#000000}
.fRES03 {fill:#000000}
.sBKAJ1 {stroke:#0E1215}
.fBKAJ1 {fill:#0E1215}
.sBKAJ2{stroke:#171313}
.fBKAJ2 {fill:#171313}
.sMARBL{stroke:#0080FF}
.fMARBL {fill:#0080FF}
.sMARCY{stroke:#008F84}
.fMARCY {fill:#008F84}
.sMARMG{stroke:#C64DA6}
.fMARMG {fill:#C64DA6}
.sMARWH{stroke:#717F77}
.fMARWH {fill:#717F77}
    ]]></style>
<rect class="symbolBox layout" fill="none" x="-6.89" y="-6.94" height="14.03" width="13.61"/> <rect class="svgBox layout" fill="none" x="-6.890000000000001" y="-6.94" height="14.03" width="13.61"/> <path d=" M -1.23,-5.32 L 0,-6.94 L 1.23,-5.32" class="sl f0 sTRFCD" style="stroke-width: 0.96;"/> <path d=" M -2.14,-4.16 L -2.97,-3 L -1.49,-3" class="sl f0 sTRFCD" style="stroke-width: 0.96;"/> <path d=" M 1.37,-3.04 L 3,-3.04 L 2.06,-4.27" class="sl f0 sTRFCD" style="stroke-width: 0.96;"/> <path d=" M -1.52,-1.12 L -1.52,1.01" class="sl f0 sTRFCD" style="stroke-width: 0.96;"/> <path d=" M 1.41,-1.18 L 1.41,0.93" class="sl f0 sTRFCD" style="stroke-width: 0.96;"/> <path d=" M -1.2,5.39 L 0.03,7.09 L 1.26,5.39" class="sl f0 sTRFCD" style="stroke-width: 0.96;"/> <path d=" M -1.52,2.96 L -3.11,2.96 L -2.17,4.16" class="sl f0 sTRFCD" style="stroke-width: 0.96;"/> <path d=" M 1.44,2.96 L 2.93,2.96 L 2.09,4.27" class="sl f0 sTRFCD" style="stroke-width: 0.96;"/> <path d=" M -6.89,-1.35 L -6.76,-1.63 L -6.63,-1.88 L -6.46,-2.05 L -6.29,-2.22 L -6.03,-2.31 L -5.8,-2.29 L -5.5,-2.2 L -5.22,-2.14 L -4.99,-1.8 L -4.81,-1.61 L -4.69,-1.39 L -4.69,-1.14 L -4.81,-0.9 L -4.94,-0.69 L -5.14,-0.45 L -5.37,-0.2 L -5.58,0.06 L -5.71,0.25 L -5.82,0.42 L -5.84,0.64 L -5.84,0.87 L -5.84,1.04 L -5.82,1.26 L -5.82,1.28" class="sl f0 sCHMGD" style="stroke-width: 0.32;"/> <path d=" M -6.03,2.12 L -5.5,2.12" class="sl f0 sCHMGD" style="stroke-width: 0.64;"/> <path d=" M 4.52,-1.38 L 4.65,-1.66 L 4.78,-1.91 L 4.95,-2.08 L 5.12,-2.25 L 5.38,-2.34 L 5.61,-2.32 L 5.91,-2.23 L 6.19,-2.17 L 6.42,-1.83 L 6.6,-1.64 L 6.72,-1.42 L 6.72,-1.17 L 6.6,-0.93 L 6.47,-0.72 L 6.27,-0.48 L 6.04,-0.23 L 5.83,0.03 L 5.7,0.22 L 5.59,0.39 L 5.57,0.61 L 5.57,0.84 L 5.57,1.01 L 5.59,1.23 L 5.59,1.25" class="sl f0 sCHMGD" style="stroke-width: 0.32;"/> <path d=" M 5.38,2.09 L 5.91,2.09" class="sl f0 sCHMGD" style="stroke-width: 0.64;"/> <circle class="pivotPoint layout" fill="none" cx="0" cy="0" r="1"/> </svg>