<?xml version="1.0" encoding="utf-8"?>
<!-- Generator: Adobe Illustrator 15.0.0, SVG Export Plug-In . SVG Version: 6.00 Build 0)  -->
<!DOCTYPE svg PUBLIC "-//W3C//DTD SVG 1.1//EN" "http://www.w3.org/Graphics/SVG/1.1/DTD/svg11.dtd" [
	<!ENTITY ns_flows "http://ns.adobe.com/Flows/1.0/">
	<!ENTITY ns_extend "http://ns.adobe.com/Extensibility/1.0/">
	<!ENTITY ns_ai "http://ns.adobe.com/AdobeIllustrator/10.0/">
	<!ENTITY ns_graphs "http://ns.adobe.com/Graphs/1.0/">
]>
<svg version="1.1" id="Layer_1" xmlns:x="&ns_extend;" xmlns:i="&ns_ai;" xmlns:graph="&ns_graphs;"
	 xmlns="http://www.w3.org/2000/svg" xmlns:xlink="http://www.w3.org/1999/xlink" xmlns:a="http://ns.adobe.com/AdobeSVGViewerExtensions/3.0/"
	 x="0px" y="0px" width="128px" height="128px" viewBox="0 0 128 128" enable-background="new 0 0 128 128" xml:space="preserve">
<linearGradient id="SVGID_1_" gradientUnits="userSpaceOnUse" x1="31.8867" y1="77.8398" x2="31.8867" y2="9.6001">
	<stop  offset="0" style="stop-color:#AFD140"/>
	<stop  offset="1" style="stop-color:#00A94F"/>
	<a:midPointStop  offset="0" style="stop-color:#AFD140"/>
	<a:midPointStop  offset="0.5" style="stop-color:#AFD140"/>
	<a:midPointStop  offset="1" style="stop-color:#00A94F"/>
</linearGradient>
<path fill="url(#SVGID_1_)" stroke="#231F20" stroke-miterlimit="10" d="M43.285,76.653V9.6c0,0-22.797,27.102-22.797,68.24
	L43.285,76.653z"/>
<linearGradient id="SVGID_2_" gradientUnits="userSpaceOnUse" x1="54.269" y1="23.2461" x2="54.269" y2="76.3755">
	<stop  offset="0" style="stop-color:#AFD140"/>
	<stop  offset="1" style="stop-color:#00A94F"/>
	<a:midPointStop  offset="0" style="stop-color:#AFD140"/>
	<a:midPointStop  offset="0.5" style="stop-color:#AFD140"/>
	<a:midPointStop  offset="1" style="stop-color:#00A94F"/>
</linearGradient>
<polygon fill="url(#SVGID_2_)" stroke="#231F20" stroke-miterlimit="10" points="47.406,23.246 47.406,76.375 61.132,75.829 "/>
<g>
	<g>
		<linearGradient id="SVGID_3_" gradientUnits="userSpaceOnUse" x1="8.6899" y1="114.6133" x2="99.0527" y2="114.6133">
			<stop  offset="0" style="stop-color:#0095DA"/>
			<stop  offset="0.5" style="stop-color:#00AEEE"/>
			<stop  offset="1" style="stop-color:#2AC4F3"/>
			<a:midPointStop  offset="0" style="stop-color:#0095DA"/>
			<a:midPointStop  offset="0.5" style="stop-color:#0095DA"/>
			<a:midPointStop  offset="0.5" style="stop-color:#00AEEE"/>
			<a:midPointStop  offset="0.5" style="stop-color:#00AEEE"/>
			<a:midPointStop  offset="1" style="stop-color:#2AC4F3"/>
		</linearGradient>
		<path fill="url(#SVGID_3_)" d="M67.304,119.416c-4.083,0-6.93-1.335-9.217-2.407c-1.62-0.759-3.019-1.415-4.437-1.415
			c-1.437,0-2.917,0.667-4.631,1.439c-2.357,1.062-5.292,2.383-9.232,2.383c-3.581,0-6.313-1.166-8.956-2.294
			c-2.336-0.998-4.543-1.939-7.123-1.939c-2.411,0-3.675,0.596-5.139,1.285c-1.73,0.814-3.691,1.738-7.862,1.738
			c-0.729-0.068-2.018-0.536-2.018-1.83c0-1.331,1.32-1.683,2.018-1.683c2.171,0,3.631-0.881,5.322-1.901
			c1.924-1.162,4.105-2.479,7.679-2.479c4.28,0,7.453,1.071,10.252,2.016c2.118,0.716,3.948,1.333,5.826,1.333
			c1.801,0,3.271-0.709,4.974-1.529c2.257-1.088,4.815-2.321,8.889-2.321c3.944,0,6.237,1.178,8.261,2.217
			c1.707,0.877,3.181,1.634,5.392,1.634c2.393,0,4.645-0.77,7.03-1.585c2.538-0.867,5.162-1.764,8.12-1.764
			c4.623,0,7.571,1.568,9.941,2.828c1.685,0.896,3.139,1.67,4.769,1.67c0.762,0.007,1.889,0.492,1.889,1.802
			c0,0.989-0.759,1.604-1.98,1.604c-0.178,0-0.294-0.014-0.294-0.014c-0.008,0-0.017,0-0.024,0c-4.673,0-6.438-0.937-7.997-1.764
			c-1.271-0.674-2.37-1.257-4.989-1.257c-2.794,0-5.043,0.954-7.423,1.964C73.714,118.262,70.993,119.416,67.304,119.416z"/>
	</g>
	<g>
		<path fill="#231F20" d="M53.65,110.312c7.065,0,8.571,3.851,13.653,3.851c5.077,0,9.54-3.349,15.15-3.349
			c7.784,0,10.555,4.498,14.71,4.498c0,0,1.389,0.013,1.389,1.302c0,0.988-1.01,1.104-1.48,1.104c-0.144,0-0.237-0.011-0.237-0.011
			c-8.509,0-7.059-3.023-13.067-3.023c-6.006,0-9.535,4.233-16.464,4.233c-6.861,0-10.022-3.822-13.653-3.822
			c-3.634,0-7.199,3.822-13.863,3.822c-6.667,0-10.472-4.233-16.078-4.233c-5.478,0-5.478,3.023-13.001,3.023
			c0,0-1.518-0.147-1.518-1.33s1.518-1.183,1.518-1.183c4.948,0,6.558-4.38,13.001-4.38c7.456,0,11.59,3.349,16.078,3.349
			C44.142,114.162,46.583,110.312,53.65,110.312 M53.65,109.312c-4.188,0-6.915,1.314-9.106,2.371
			c-1.647,0.794-3.07,1.479-4.757,1.479c-1.796,0-3.59-0.605-5.667-1.307c-2.835-0.957-6.049-2.042-10.412-2.042
			c-3.712,0-5.957,1.354-7.937,2.55c-1.627,0.982-3.032,1.83-5.064,1.83c-1.251,0-2.518,0.75-2.518,2.183
			c0,1.437,1.255,2.212,2.421,2.325l0.048,0.005h0.048c4.283,0,6.298-0.949,8.075-1.786c1.41-0.664,2.627-1.237,4.926-1.237
			c2.477,0,4.638,0.923,6.926,1.899c2.689,1.147,5.469,2.334,9.152,2.334c4.048,0,7.037-1.346,9.438-2.428
			c1.662-0.748,3.097-1.395,4.426-1.395c1.307,0,2.659,0.634,4.224,1.368c2.333,1.094,5.234,2.454,9.429,2.454
			c3.791,0,6.56-1.174,9.236-2.31c2.332-0.989,4.535-1.924,7.228-1.924c2.495,0,3.492,0.529,4.755,1.199
			c1.607,0.853,3.429,1.818,8.267,1.824c0.061,0.005,0.159,0.011,0.283,0.011c1.507,0,2.48-0.826,2.48-2.104
			c0-1.673-1.423-2.293-2.38-2.302c-1.514,0-2.851-0.711-4.543-1.611c-2.419-1.286-5.429-2.887-10.176-2.887
			c-3.041,0-5.705,0.91-8.282,1.791c-2.345,0.801-4.56,1.558-6.868,1.558c-2.091,0-3.515-0.731-5.164-1.578
			C60.066,110.519,57.715,109.312,53.65,109.312L53.65,109.312z"/>
	</g>
</g>
<g>
	<g>
		<path fill="#ED7161" stroke="#231F20" stroke-miterlimit="10" d="M116.579,90.044c0.94,0.877,2.212,1.472,3.65,1.595
			c1.835,0.156,3.527-0.491,4.674-1.614c-0.822-3.576-3.043-6.205-5.623-6.425C118.424,83.527,117.272,86.213,116.579,90.044z
			 M121.4,86.324c0.396,0.035,0.691,0.383,0.659,0.776c-0.036,0.399-0.383,0.691-0.781,0.658c-0.395-0.032-0.688-0.383-0.655-0.778
			C120.655,86.586,121.004,86.292,121.4,86.324z"/>
		<path fill="#38454F" stroke="#231F20" stroke-miterlimit="10" d="M120.132,93.096c-1.43-0.124-2.723-0.637-3.768-1.416
			c-0.088,0.639-0.163,1.298-0.227,1.978l-1.2,1.167c-0.259,0.249-0.415,0.586-0.444,0.942l-0.039,0.463
			c-0.018,0.18,0.062,0.357,0.209,0.465c0.145,0.106,0.333,0.13,0.498,0.06l0.927-0.374c0.168,3.453,1.142,6.773,2.091,8.361
			l-2.111,3.534c-0.093,0.158-0.084,0.359,0.027,0.508c0.113,0.147,0.304,0.214,0.48,0.163l1.81-0.481
			c0.354-0.094,0.729-0.062,1.063,0.091l1.706,0.779c0.166,0.079,0.365,0.046,0.499-0.08c0.138-0.127,0.181-0.325,0.113-0.498
			l-1.484-3.833c0.902-0.935,2.152-2.626,3.17-4.653l0.931,0.38c0.374,0.151,0.796,0.115,1.138-0.092
			c0.342-0.21,0.57-0.566,0.601-0.968l0.469-5.548c0.048-0.551-0.272-1.066-0.782-1.276l-0.586-0.234
			c-0.019-0.294-0.046-0.583-0.08-0.868C123.802,92.695,122.023,93.254,120.132,93.096z"/>
	</g>
</g>
<g>
	<path fill="#38454F" stroke="#231F20" stroke-miterlimit="10" d="M103.693,61.446c2.19-1.871,4.861-3.609,8.119-4.986
		c2.672-1.129,5.35-1.859,7.932-2.309c0,0,0.736-0.224,0.576-1.031c-0.163-0.807-1.093-0.634-1.093-0.634
		c-2.623,0.48-5.347,1.241-8.081,2.398c-3.534,1.494-6.409,3.372-8.754,5.392c0,0-1.653,1.481-2.29,2.165
		c-0.753,0.811-3.05,3.784-3.05,3.784c-3.519,5.11-4.434,9.668-4.495,10.001c-0.088,0.464,0.218,0.911,0.683,1
		c0.054,0.01,0.106,0.014,0.158,0.014c0.403,0,0.764-0.286,0.841-0.697c0.014-0.075,0.863-4.307,4.13-9.13
		c0,0,2.109-2.69,2.963-3.57C101.901,63.258,103.693,61.446,103.693,61.446z"/>
</g>
<g>
	<path fill="#E6E6E6" stroke="#231F20" stroke-miterlimit="10" d="M119.78,82.862l-1.159-27.82c0,0,0.156-0.076,0.752-0.183
		c0.598-0.106,0.927-0.299,0.927-0.299l-0.52,28.284V82.862z"/>
</g>
<g>
	<linearGradient id="SVGID_4_" gradientUnits="userSpaceOnUse" x1="1.0938" y1="104.6855" x2="106.123" y2="104.6855">
		<stop  offset="0" style="stop-color:#2AC4F3"/>
		<stop  offset="0.5" style="stop-color:#00AEEE"/>
		<stop  offset="1" style="stop-color:#0095DA"/>
		<a:midPointStop  offset="0" style="stop-color:#2AC4F3"/>
		<a:midPointStop  offset="0.5" style="stop-color:#2AC4F3"/>
		<a:midPointStop  offset="0.5" style="stop-color:#00AEEE"/>
		<a:midPointStop  offset="0.5" style="stop-color:#00AEEE"/>
		<a:midPointStop  offset="1" style="stop-color:#0095DA"/>
	</linearGradient>
	<path fill="url(#SVGID_4_)" d="M70.487,111.087c-5.007,0-8.499-1.825-11.305-3.293c-2-1.045-3.728-1.948-5.485-1.948
		c-1.78,0-3.607,0.918-5.723,1.98c-2.893,1.453-6.493,3.261-11.326,3.261c-4.415,0-7.081-1.608-9.659-3.164
		c-2.253-1.359-4.382-2.644-7.542-2.644c-2.978,0-4.54,0.821-6.349,1.771c-2.121,1.114-4.524,2.378-9.639,2.378
		c-0.854-0.09-2.367-0.687-2.367-2.325c0-1.679,1.548-2.122,2.367-2.122c2.689,0,4.494-1.216,6.583-2.623
		c2.357-1.588,5.028-3.388,9.405-3.388c5.276,0,8.369,1.476,11.098,2.778c2.042,0.974,3.805,1.815,6.103,1.815
		c2.229,0,4.046-0.977,6.148-2.106c2.769-1.488,5.906-3.175,10.9-3.175c4.833,0,7.646,1.61,10.128,3.031
		c2.108,1.207,3.928,2.25,6.663,2.25c2.922,0,4.918-1.046,7.03-2.154c2.287-1.199,4.651-2.439,8.31-2.439
		c5.668,0,9.285,2.146,12.191,3.871c2.081,1.235,3.878,2.302,5.898,2.302c0.617,0.006,2.206,0.427,2.206,2.285
		c0,1.242-0.89,2.015-2.322,2.015c-0.213,0-0.352-0.019-0.352-0.019c-0.009,0-0.019,0-0.027,0c-5.74,0-7.902-1.28-9.81-2.41
		c-1.573-0.931-2.932-1.735-6.17-1.735c-3.413,0-5.418,1.296-7.54,2.668C77.516,109.491,75.047,111.087,70.487,111.087z"/>
	<path fill="#231F20" d="M53.697,98.783c8.687,0,10.542,5.281,16.791,5.281c6.246,0,8.441-4.594,15.34-4.594
		c9.572,0,12.979,6.173,18.09,6.173c0,0,1.706,0.016,1.706,1.785c0,1.356-1.244,1.515-1.822,1.515c-0.175,0-0.289-0.015-0.289-0.015
		c-10.465,0-8.679-4.149-16.069-4.149c-7.386,0-8.435,5.808-16.955,5.808c-8.438,0-12.325-5.241-16.791-5.241
		c-4.469,0-8.853,5.241-17.048,5.241c-8.198,0-10.305-5.808-17.2-5.808c-6.736,0-6.736,4.149-15.988,4.149
		c0,0-1.867-0.202-1.867-1.825s1.867-1.622,1.867-1.622c6.085,0,8.063-6.011,15.988-6.011c9.169,0,11.681,4.594,17.2,4.594
		C42.004,104.064,45.007,98.783,53.697,98.783 M53.697,97.783c-5.12,0-8.316,1.719-11.137,3.234
		c-2.043,1.099-3.808,2.047-5.912,2.047c-2.185,0-3.9-0.818-5.887-1.767c-2.776-1.325-5.923-2.827-11.313-2.827
		c-4.529,0-7.268,1.845-9.684,3.473c-2.021,1.362-3.767,2.538-6.304,2.538c0,0,0,0-0.001,0c-0.114,0-0.706,0.014-1.331,0.285
		c-0.976,0.424-1.535,1.275-1.535,2.337c0,1.994,1.805,2.716,2.759,2.819l0.054,0.006H3.46c5.239,0,7.7-1.294,9.872-2.436
		c1.75-0.92,3.261-1.714,6.116-1.714c3.021,0,4.996,1.191,7.283,2.572c2.514,1.517,5.363,3.235,9.917,3.235
		c4.952,0,8.61-1.838,11.55-3.314c2.059-1.033,3.837-1.927,5.499-1.927c1.635,0,3.312,0.877,5.254,1.892
		c2.854,1.492,6.407,3.35,11.537,3.35c4.708,0,7.353-1.711,9.687-3.22c2.147-1.389,4.003-2.588,7.269-2.588
		c3.101,0,4.405,0.772,5.915,1.666c1.96,1.16,4.182,2.476,10.103,2.483c0.071,0.007,0.19,0.015,0.341,0.015
		c1.715,0,2.822-0.987,2.822-2.515c0-2.025-1.613-2.775-2.697-2.785c-1.892,0-3.552-0.984-5.652-2.231
		c-2.959-1.756-6.641-3.941-12.446-3.941c-3.781,0-6.201,1.27-8.542,2.497c-2.057,1.078-3.999,2.097-6.798,2.097
		c-2.602,0-4.368-1.012-6.415-2.184C61.537,99.429,58.664,97.783,53.697,97.783L53.697,97.783z"/>
</g>
<path fill="#F36C21" stroke="#231F20" stroke-miterlimit="10" d="M79.536,70.343l6.296,3.817c0,0,0.706,0.333,0.93,0.408
	c0.239,0.079,0.873,0.167,0.873,0.167l9.133,0.722l0.03,0.004c0,0,3.039,0.28,3.464-2.485c0.423-2.769-2.778-3.64-2.778-3.64
	s-0.206-0.038-0.536-0.099c-1.668-0.303-4.77-0.482-6.786-1.061c-0.979-0.279-3.631-3.066-3.631-3.066l-7.998-7.601
	c0,0-2.518-2.321-6.251-1.604c-4.305,0.826-5.355,4.44-5.355,4.44S64.068,74.141,63.01,78.8c-0.113,0.496-0.379,1.611-0.423,2.033
	l14.606-0.698L79.536,70.343z"/>
<linearGradient id="SVGID_5_" gradientUnits="userSpaceOnUse" x1="9.9141" y1="88.7246" x2="101.3691" y2="88.7246">
	<stop  offset="0" style="stop-color:#322106"/>
	<stop  offset="1" style="stop-color:#8F552F"/>
	<a:midPointStop  offset="0" style="stop-color:#322106"/>
	<a:midPointStop  offset="0.5091" style="stop-color:#322106"/>
	<a:midPointStop  offset="1" style="stop-color:#8F552F"/>
</linearGradient>
<path fill="url(#SVGID_5_)" stroke="#231F20" stroke-miterlimit="10" d="M78.557,79.214l-11.744,0.61L9.914,82.785l3.261,13.17
	c1.753-0.656,3.799-1.124,6.273-1.124c6.213,0,10.067,1.838,12.881,3.182c1.944,0.928,3.019,1.411,4.319,1.411
	c1.133,0,2.272-0.583,4.188-1.612c2.88-1.548,6.825-3.668,12.86-3.668c5.935,0,9.547,2.068,12.184,3.578
	c2.008,1.149,3.043,1.702,4.606,1.702c1.903,0,3.179-0.668,5.106-1.68c2.477-1.298,5.555-2.913,10.233-2.913
	c0.175,0,0.328,0.021,0.498,0.023l15.044-16.828L78.557,79.214z"/>
<path fill="#F36C21" stroke="#231F20" stroke-miterlimit="10" d="M83.549,51.4c4.43-2.581,5.926-8.258,3.349-12.688
	c-2.581-4.429-8.263-5.924-12.692-3.341c-4.422,2.576-5.922,8.261-3.342,12.686C73.441,52.486,79.126,53.981,83.549,51.4z"/>
<circle fill="#95A5A5" stroke="#231F20" stroke-miterlimit="10" cx="100.673" cy="63.464" r="3.245"/>
<circle fill="#BDC3C7" stroke="#231F20" stroke-miterlimit="10" cx="100.673" cy="63.464" r="1.854"/>
<path fill="#38454F" stroke="#231F20" stroke-miterlimit="10" d="M105.173,67.308l-1.428-1.427l-0.428-0.428l-2.318-2.316
	c-0.181-0.182-0.473-0.182-0.654,0c-0.182,0.181-0.182,0.473,0,0.655l2.317,2.318l0.429,0.428l1.099,1.098l-1.063,1.063
	c-0.182,0.182-0.182,0.476,0,0.655c0.092,0.092,0.209,0.136,0.327,0.136c0.12,0,0.237-0.044,0.328-0.136l1.392-1.391
	C105.354,67.783,105.354,67.489,105.173,67.308z"/>
</svg>
