<?xml version="1.0" encoding="utf-8"?>
<!-- Generator: Adobe Illustrator 15.0.0, SVG Export Plug-In . SVG Version: 6.00 Build 0)  -->
<!DOCTYPE svg PUBLIC "-//W3C//DTD SVG 1.1//EN" "http://www.w3.org/Graphics/SVG/1.1/DTD/svg11.dtd" [
	<!ENTITY ns_flows "http://ns.adobe.com/Flows/1.0/">
	<!ENTITY ns_extend "http://ns.adobe.com/Extensibility/1.0/">
	<!ENTITY ns_ai "http://ns.adobe.com/AdobeIllustrator/10.0/">
	<!ENTITY ns_graphs "http://ns.adobe.com/Graphs/1.0/">
]>
<svg version="1.1" id="Layer_1" xmlns:x="&ns_extend;" xmlns:i="&ns_ai;" xmlns:graph="&ns_graphs;"
	 xmlns="http://www.w3.org/2000/svg" xmlns:xlink="http://www.w3.org/1999/xlink" xmlns:a="http://ns.adobe.com/AdobeSVGViewerExtensions/3.0/"
	 x="0px" y="0px" width="128px" height="128px" viewBox="0 0 128 128" enable-background="new 0 0 128 128" xml:space="preserve">
<path fill="#F36C21" stroke="#231F20" stroke-miterlimit="10" d="M54.692,31.178c5.667-1.755,8.833-7.772,7.075-13.438
	c-1.755-5.667-7.774-8.834-13.443-7.071c-5.657,1.753-8.832,7.776-7.068,13.438C43.01,29.771,49.032,32.941,54.692,31.178z"/>
<linearGradient id="SVGID_1_" gradientUnits="userSpaceOnUse" x1="1.1567" y1="111.8965" x2="121.5684" y2="111.8965">
	<stop  offset="0" style="stop-color:#2AC4F3"/>
	<stop  offset="0.5" style="stop-color:#00AEEE"/>
	<stop  offset="1" style="stop-color:#0095DA"/>
	<a:midPointStop  offset="0" style="stop-color:#2AC4F3"/>
	<a:midPointStop  offset="0.5" style="stop-color:#2AC4F3"/>
	<a:midPointStop  offset="0.5" style="stop-color:#00AEEE"/>
	<a:midPointStop  offset="0.5" style="stop-color:#00AEEE"/>
	<a:midPointStop  offset="1" style="stop-color:#0095DA"/>
</linearGradient>
<path fill="url(#SVGID_1_)" stroke="#231F20" stroke-miterlimit="10" d="M119.402,112.818c-7.039,0-9.336-6.949-18.5-6.949
	c-10.622,0-13.521,5.314-19.909,5.314c-6.209,0-9.681-6.119-19.734-6.119c-10.06,0-12.2,6.119-19.435,6.119
	c-7.233,0-9.77-5.314-17.756-5.314c-11.08,0-15.023,7.143-20.936,7.143c0,0-1.975,0.018-1.975,2.054
	c0,2.054,2.446,1.736,2.446,1.736c12.114,0,10.045-4.802,18.597-4.802c8.549,0,9.765,6.728,19.625,6.728
	c9.769,0,14.266-6.063,19.435-6.063c5.163,0,10.248,6.063,19.734,6.063c9.487,0,11.928-6.728,19.909-6.728
	c7.792,0,7.792,4.802,18.5,4.802c0,0,2.166-0.222,2.166-2.111C121.568,112.816,119.402,112.818,119.402,112.818z"/>
<linearGradient id="SVGID_2_" gradientUnits="userSpaceOnUse" x1="3.8521" y1="97.875" x2="35.2188" y2="97.875">
	<stop  offset="0" style="stop-color:#AFD140"/>
	<stop  offset="1" style="stop-color:#00A94F"/>
	<a:midPointStop  offset="0" style="stop-color:#AFD140"/>
	<a:midPointStop  offset="0.5" style="stop-color:#AFD140"/>
	<a:midPointStop  offset="1" style="stop-color:#00A94F"/>
</linearGradient>
<path fill="url(#SVGID_2_)" stroke="#231F20" stroke-miterlimit="10" d="M10.623,106.401c3.317-1.964,7.272-4.181,13.445-4.181
	c4.883,0,7.727,1.46,10.853,2.593c-5.057-7.495,0.299-15.464,0.299-15.464S12.614,91.69,7.149,92.244
	c-5.457,0.541-2.495,5.07-2.495,5.07L10.623,106.401z"/>
<linearGradient id="SVGID_3_" gradientUnits="userSpaceOnUse" x1="10.6001" y1="80.9717" x2="37.7114" y2="80.9717">
	<stop  offset="0" style="stop-color:#AFD140"/>
	<stop  offset="1" style="stop-color:#00A94F"/>
	<a:midPointStop  offset="0" style="stop-color:#AFD140"/>
	<a:midPointStop  offset="0.5" style="stop-color:#AFD140"/>
	<a:midPointStop  offset="1" style="stop-color:#00A94F"/>
</linearGradient>
<path fill="url(#SVGID_3_)" stroke="#231F20" stroke-miterlimit="10" d="M13.473,86.772l24.238-2.243c0,0-13.536-4.678-17.917-6.564
	c-1.765-0.76-2.499-1.567-3.669-2.691c-7.174-0.891-5.306,4.324-5.306,4.324L13.473,86.772z"/>
<path fill="#F36C21" stroke="#231F20" stroke-miterlimit="10" d="M77.292,57.447c0-3.646-6.445-4.449-6.445-4.449l-10.885-0.396
	L46.076,35.863c0,0-2.15-3.16-8.853-3.16c-5.25,0-7.265,3.892-7.265,3.892S21.237,54.63,18.236,60.511
	c-5.389,10.513,4.083,14.014,4.083,14.014l20.494,7.318l-5.527,13.112c0,0-3.397,6.141,3.351,8.765
	c5.607,2.189,7.546-3.127,7.546-3.127l8.144-18.665c0,0,1.619-3.31,0.766-5.947c-0.854-2.654-3.397-3.565-3.397-3.565L39.542,65.65
	l6.417-10.119l6.102,7.737c0,0,0.757,0.875,2.759,0.875c2.008,0,17.666,0,17.666,0s2.626-0.125,4.125-2.133
	C76.612,62.01,77.292,61.678,77.292,57.447z"/>
<linearGradient id="SVGID_4_" gradientUnits="userSpaceOnUse" x1="51.9272" y1="77.3105" x2="127.1572" y2="77.3105">
	<stop  offset="0" style="stop-color:#AFD140"/>
	<stop  offset="1" style="stop-color:#00A94F"/>
	<a:midPointStop  offset="0" style="stop-color:#AFD140"/>
	<a:midPointStop  offset="0.5" style="stop-color:#AFD140"/>
	<a:midPointStop  offset="1" style="stop-color:#00A94F"/>
</linearGradient>
<path fill="url(#SVGID_4_)" stroke="#231F20" stroke-miterlimit="10" d="M124.085,81.928c-5.139-4.264-12.904-7.889-16.278-10.264
	c-3.389-2.388-1.373-3.014-10.653-12.027c-9.263-9.021-16.151-10.771-20.415-11.404c-4.251-0.625-5.767,0.125-6.391,1.757
	c-0.624,1.625,0.499,3.008,0.499,3.008s6.445,0.803,6.445,4.449c0,4.231-0.68,4.563-0.68,4.563s2.889,5.263,4.014,12.277
	c0,0-5.514,0-7.262,0.376c-1.752,0.375-5.013,1.876-6.39,4.266c-1.375,2.374-1.126,6.124-8.146,7.764l-6.901,15.869
	c2.375-1.154,5.171-2.131,9.332-2.131c11.607,0,13.996,6.176,20.206,6.176c6.37,0,7.47-4.386,19.438-4.386
	c1.721,0,3.198,0.245,4.502,0.638c0.067,0.017,0.113,0.036,0.182,0.068c15.4-4.521,20-12.392,20-12.392
	C126.586,88.785,129.226,86.193,124.085,81.928z"/>
</svg>
