<?xml version="1.0" encoding="utf-8"?>
<!-- Generator: Adobe Illustrator 15.0.0, SVG Export Plug-In . SVG Version: 6.00 Build 0)  -->
<!DOCTYPE svg PUBLIC "-//W3C//DTD SVG 1.1//EN" "http://www.w3.org/Graphics/SVG/1.1/DTD/svg11.dtd" [
	<!ENTITY ns_flows "http://ns.adobe.com/Flows/1.0/">
	<!ENTITY ns_extend "http://ns.adobe.com/Extensibility/1.0/">
	<!ENTITY ns_ai "http://ns.adobe.com/AdobeIllustrator/10.0/">
	<!ENTITY ns_graphs "http://ns.adobe.com/Graphs/1.0/">
]>
<svg version="1.1" id="Layer_1" xmlns:x="&ns_extend;" xmlns:i="&ns_ai;" xmlns:graph="&ns_graphs;"
	 xmlns="http://www.w3.org/2000/svg" xmlns:xlink="http://www.w3.org/1999/xlink" xmlns:a="http://ns.adobe.com/AdobeSVGViewerExtensions/3.0/"
	 x="0px" y="0px" width="128px" height="128px" viewBox="0 0 128 128" enable-background="new 0 0 128 128" xml:space="preserve">
<path fill="#F36C21" stroke="#231F20" stroke-miterlimit="10" d="M24.016,41.132c4.929-1.53,7.681-6.763,6.152-11.69
	c-1.53-4.93-6.762-7.681-11.694-6.15c-4.92,1.528-7.679,6.766-6.147,11.69C13.856,39.911,19.093,42.664,24.016,41.132z"/>
<linearGradient id="SVGID_1_" gradientUnits="userSpaceOnUse" x1="1.2827" y1="113.7236" x2="126.2832" y2="113.7236">
	<stop  offset="0" style="stop-color:#2AC4F3"/>
	<stop  offset="0.5" style="stop-color:#00AEEE"/>
	<stop  offset="1" style="stop-color:#0095DA"/>
	<a:midPointStop  offset="0" style="stop-color:#2AC4F3"/>
	<a:midPointStop  offset="0.5" style="stop-color:#2AC4F3"/>
	<a:midPointStop  offset="0.5" style="stop-color:#00AEEE"/>
	<a:midPointStop  offset="0.5" style="stop-color:#00AEEE"/>
	<a:midPointStop  offset="1" style="stop-color:#0095DA"/>
</linearGradient>
<path fill="url(#SVGID_1_)" stroke="#231F20" stroke-miterlimit="10" d="M93.942,104.397c-14.011,0-41.309,8.996-55.321,8.996
	c-23.01,0-37.339-10.719-37.339-10.719s9.522,20.628,37.339,22.039c18.689,0.947,39.93-9.938,55.321-10.364
	c12.523-0.347,32.341,2.491,32.341,2.491S111.644,104.397,93.942,104.397z"/>
<linearGradient id="SVGID_2_" gradientUnits="userSpaceOnUse" x1="10.5474" y1="87.0654" x2="116.8097" y2="87.0654">
	<stop  offset="0" style="stop-color:#322106"/>
	<stop  offset="1" style="stop-color:#8F552F"/>
	<a:midPointStop  offset="0" style="stop-color:#322106"/>
	<a:midPointStop  offset="0.5091" style="stop-color:#322106"/>
	<a:midPointStop  offset="1" style="stop-color:#8F552F"/>
</linearGradient>
<path fill="url(#SVGID_2_)" stroke="#231F20" stroke-miterlimit="10" d="M116.19,71.518c-3.893-6.727-19.761-1.031-19.761-1.031
	s-11.644,4.301-23.985,10.327l-10.9,5.537c-6.96,3.661-13.014,7.08-15.947,8.995l-9.186,5.584l-6.698,3.755
	c0,0,2.886,1.759,14.065,1.038c11.18-0.722,35.884-9.725,51.93-9.184l13.343-10.652C109.051,85.887,119.406,77.074,116.19,71.518z"
	/>
<path fill="#F36C21" stroke="#231F20" stroke-miterlimit="10" d="M49.765,43.647c-2.383,0.857-6.118,1.534-9.915,1.718
	c-6.687,0.325-13.563-0.332-13.563-0.332s-6.305-0.898-10.201,1.721c-0.523,0.352-1.597,1.377-2.04,2.426
	c-0.881,2.086-2.107,6.096-2.416,7.767c-1.382,7.492-2.812,17.471,5.102,27.677c10.146,13.084,19.68,16.305,19.68,16.305
	l9.186-5.584c-7.462-3.105-11.647-6.824-13.56-9.343c-1.145-1.506-1.237-2.127-0.984-2.82c0.22-0.607,0.877-1.26,2.238-1.957
	c3.23-1.653,8.628-3.729,9.595-4.147c1.381-0.6,3.212-1.189,6.709,0.583c0,0,6.269,3.484,11.949,8.689l10.9-5.537
	c-4.352-3.042-9.669-6.689-12.351-8.267c-1.001-0.587-2.795-1.765-4.662-2.691c-2.188-1.088-4.477-2.063-5.696-2.567
	c-0.558-0.232-1.881-0.49-2.371-0.526c-6.676-0.507-12.726,2.009-12.726,2.009l1.315-14.468
	c18.145,0.011,28.424-7.319,32.341-10.872l-7.645-5.167C57.856,40.223,54.517,41.937,49.765,43.647z"/>
<path fill="#F36C21" stroke="#231F20" stroke-miterlimit="10" d="M37.258,39.419c0,0-0.526,0.598-0.043,0.97
	c0.562,0.435,1.996,0.98,4.878,0.98c4.238,0,4.93-1.294,4.93-1.294l5.114-7.566l-7.124-4.814L37.258,39.419z"/>
<path fill="#F36C21" stroke="#231F20" stroke-miterlimit="10" d="M54.238,21.922c-1.715-1.113-3.214-0.866-4.33-0.289l6.072,4.104
	C56.18,24.466,55.91,23.008,54.238,21.922z"/>
<linearGradient id="SVGID_3_" gradientUnits="userSpaceOnUse" x1="10.5464" y1="26.1943" x2="116.8099" y2="26.1943">
	<stop  offset="0" style="stop-color:#AFD140"/>
	<stop  offset="1" style="stop-color:#00A94F"/>
	<a:midPointStop  offset="0" style="stop-color:#AFD140"/>
	<a:midPointStop  offset="0.5" style="stop-color:#AFD140"/>
	<a:midPointStop  offset="1" style="stop-color:#00A94F"/>
</linearGradient>
<path fill="url(#SVGID_3_)" stroke="#231F20" stroke-miterlimit="10" d="M99.066,17.511c-1.766-1.223-4.182-0.782-5.402,0.979
	L78.226,40.771l-5.317-3.593l-4.713-3.185l-3.252-2.198l11.193-16.718c1.192-1.781,0.715-4.193-1.066-5.386
	c-1.785-1.194-4.192-0.716-5.386,1.066l-11.175,16.69l-2.529-1.71l-6.072-4.104l-2.325-1.571l7.57-11.721
	c1.153-1.808,0.622-4.208-1.185-5.361c-1.808-1.153-4.208-0.623-5.36,1.186l-9.603,14.909c-1.131,1.773-0.644,4.126,1.1,5.304
	l4.908,3.317l7.124,4.814l8.513,5.754l7.645,5.167l8.762,5.921c0.666,0.451,1.422,0.667,2.169,0.667c1.23,0,2.442-0.584,3.194-1.671
	l17.627-25.434C101.268,21.15,100.828,18.732,99.066,17.511z"/>
<path fill="#F36C21" stroke="#231F20" stroke-miterlimit="10" d="M71.628,34.474c-1.155-0.548-2.34-0.629-3.433-0.481l4.713,3.185
	C73.152,36.105,72.922,35.089,71.628,34.474z"/>
</svg>
