<?xml version="1.0" encoding="utf-8"?>
<!-- Generator: Adobe Illustrator 15.0.0, SVG Export Plug-In . SVG Version: 6.00 Build 0)  -->
<!DOCTYPE svg PUBLIC "-//W3C//DTD SVG 1.1//EN" "http://www.w3.org/Graphics/SVG/1.1/DTD/svg11.dtd">
<svg version="1.1" id="Layer_1" xmlns="http://www.w3.org/2000/svg" xmlns:xlink="http://www.w3.org/1999/xlink" x="0px" y="0px"
	 width="128px" height="128px" viewBox="0 0 128 128" enable-background="new 0 0 128 128" xml:space="preserve">
<path fill="#F36C21" stroke="#231F20" stroke-width="0.4" stroke-miterlimit="10" d="M47.876,54.595
	c1.972-0.612,3.072-2.705,2.461-4.676c-0.612-1.972-2.705-3.073-4.678-2.46c-1.968,0.611-3.072,2.707-2.459,4.676
	C43.812,54.107,45.907,55.208,47.876,54.595z"/>
<linearGradient id="SVGID_1_" gradientUnits="userSpaceOnUse" x1="334.7822" y1="-200.6313" x2="384.7832" y2="-200.6313" gradientTransform="matrix(1 0 0 -1 -296 -117)">
	<stop  offset="0" style="stop-color:#2AC4F3"/>
	<stop  offset="0.5" style="stop-color:#00AEEE"/>
	<stop  offset="1" style="stop-color:#0095DA"/>
</linearGradient>
<path fill="url(#SVGID_1_)" stroke="#231F20" stroke-width="0.4" stroke-miterlimit="10" d="M75.846,79.901
	c-5.604,0-16.523,3.599-22.128,3.599c-9.204,0-14.936-4.288-14.936-4.288s3.809,8.251,14.936,8.815
	c7.476,0.379,15.972-3.975,22.128-4.145c5.01-0.14,12.938,0.996,12.938,0.996S82.928,79.901,75.846,79.901z"/>
<linearGradient id="SVGID_2_" gradientUnits="userSpaceOnUse" x1="338.4883" y1="-189.9688" x2="380.9939" y2="-189.9688" gradientTransform="matrix(1 0 0 -1 -296 -117)">
	<stop  offset="0" style="stop-color:#322106"/>
	<stop  offset="1" style="stop-color:#8F552F"/>
</linearGradient>
<path fill="url(#SVGID_2_)" stroke="#231F20" stroke-width="0.4" stroke-miterlimit="10" d="M84.745,66.75
	c-1.557-2.691-7.903-0.413-7.903-0.413s-4.658,1.721-9.595,4.132l-4.36,2.215c-2.784,1.464-5.206,2.832-6.379,3.598l-3.674,2.233
	l-2.679,1.502c0,0,1.154,0.703,5.626,0.415c4.472-0.289,14.354-3.89,20.772-3.674l5.337-4.261
	C81.89,72.497,86.032,68.973,84.745,66.75z"/>
<path fill="#F36C21" stroke="#231F20" stroke-width="0.4" stroke-miterlimit="10" d="M58.176,55.602
	c-0.954,0.343-2.447,0.613-3.966,0.687c-2.675,0.13-5.425-0.133-5.425-0.133s-2.522-0.359-4.08,0.688
	c-0.209,0.141-0.639,0.551-0.816,0.97c-0.352,0.834-0.843,2.438-0.966,3.107c-0.553,2.997-1.125,6.989,2.041,11.071
	c4.058,5.233,7.872,6.522,7.872,6.522l3.674-2.233c-2.985-1.242-4.659-2.73-5.424-3.738c-0.458-0.602-0.495-0.851-0.394-1.128
	c0.088-0.242,0.351-0.504,0.895-0.782c1.292-0.661,3.451-1.492,3.838-1.659c0.552-0.239,1.285-0.476,2.684,0.233
	c0,0,2.508,1.394,4.78,3.476l4.36-2.215c-1.741-1.217-3.868-2.676-4.941-3.307c-0.4-0.235-1.118-0.706-1.865-1.076
	c-0.875-0.436-1.791-0.825-2.278-1.027c-0.223-0.093-0.752-0.196-0.948-0.21c-2.671-0.203-5.091,0.804-5.091,0.804l0.526-5.788
	c7.258,0.004,11.369-2.928,12.937-4.349l-3.059-2.067C61.412,54.232,60.076,54.917,58.176,55.602z"/>
<path fill="#F36C21" stroke="#231F20" stroke-width="0.4" stroke-miterlimit="10" d="M53.173,53.91c0,0-0.21,0.239-0.018,0.388
	c0.225,0.174,0.799,0.392,1.951,0.392c1.695,0,1.972-0.518,1.972-0.518l2.046-3.027l-2.85-1.925L53.173,53.91z"/>
<path fill="#F36C21" stroke="#231F20" stroke-width="0.4" stroke-miterlimit="10" d="M59.965,46.911
	c-0.686-0.445-1.286-0.346-1.732-0.115l2.429,1.642C60.742,47.929,60.634,47.346,59.965,46.911z"/>
<linearGradient id="SVGID_3_" gradientUnits="userSpaceOnUse" x1="338.4883" y1="-165.6206" x2="380.9933" y2="-165.6206" gradientTransform="matrix(1 0 0 -1 -296 -117)">
	<stop  offset="0" style="stop-color:#AFD140"/>
	<stop  offset="1" style="stop-color:#00A94F"/>
</linearGradient>
<path fill="url(#SVGID_3_)" stroke="#231F20" stroke-width="0.4" stroke-miterlimit="10" d="M77.896,45.147
	c-0.707-0.489-1.674-0.313-2.161,0.392l-6.175,8.913l-2.127-1.438l-1.886-1.274l-1.301-0.879l4.478-6.687
	c0.477-0.712,0.285-1.677-0.427-2.154c-0.714-0.478-1.677-0.287-2.154,0.426l-4.47,6.676l-1.011-0.684l-2.429-1.642l-0.93-0.628
	l3.028-4.688c0.461-0.723,0.249-1.683-0.474-2.145c-0.723-0.461-1.683-0.249-2.144,0.475l-3.841,5.963
	c-0.453,0.709-0.258,1.65,0.44,2.122l1.963,1.327l2.85,1.926l3.405,2.302l3.058,2.067l3.505,2.368
	c0.267,0.181,0.569,0.267,0.867,0.267c0.492,0,0.978-0.234,1.278-0.668l7.051-10.174C78.776,46.603,78.601,45.635,77.896,45.147z"/>
<path fill="#F36C21" stroke="#231F20" stroke-width="0.4" stroke-miterlimit="10" d="M66.921,51.932
	c-0.462-0.219-0.937-0.251-1.373-0.192l1.885,1.274C67.53,52.584,67.438,52.178,66.921,51.932z"/>
</svg>
