<?xml version="1.0" encoding="utf-8"?>
<!-- Generator: Adobe Illustrator 15.0.0, SVG Export Plug-In . SVG Version: 6.00 Build 0)  -->
<!DOCTYPE svg PUBLIC "-//W3C//DTD SVG 1.1//EN" "http://www.w3.org/Graphics/SVG/1.1/DTD/svg11.dtd">
<svg version="1.1" id="Layer_1" xmlns="http://www.w3.org/2000/svg" xmlns:xlink="http://www.w3.org/1999/xlink" x="0px" y="0px"
	 width="128px" height="128px" viewBox="0 0 128 128" enable-background="new 0 0 128 128" xml:space="preserve">
<path fill="#F36C21" stroke="#231F20" stroke-width="0.4" stroke-miterlimit="10" d="M67.2,47.842
	c2.374-0.737,3.701-3.258,2.965-5.633c-0.738-2.375-3.261-3.7-5.637-2.963c-2.37,0.737-3.699,3.261-2.961,5.633
	C62.304,47.253,64.828,48.58,67.2,47.842z"/>
<linearGradient id="SVGID_1_" gradientUnits="userSpaceOnUse" x1="368.9043" y1="-195.9995" x2="384.2744" y2="-195.9995" gradientTransform="matrix(1 0 0 -1 -296 -117)">
	<stop  offset="0" style="stop-color:#AFD140"/>
	<stop  offset="1" style="stop-color:#00A94F"/>
</linearGradient>
<path fill="url(#SVGID_1_)" stroke="#231F20" stroke-width="0.4" stroke-miterlimit="10" d="M74.806,74.723l-1.901,6.072
	c0,0,0.538,0.821,0.898,2.481c10.448-0.436,14.472-1.675,14.472-4.3C88.274,76.437,84.722,75.195,74.806,74.723z"/>
<path fill="#38454F" stroke="#231F20" stroke-width="0.4" stroke-miterlimit="10" d="M71.067,81.185l1.958-6.539l2.889-9.645
	c-0.938,0.154-1.983,0.153-2.891,0.098l-2.821,9.462l-1.771,5.938c-1.579,0.648-2.662,1.789-3.402,2.966
	c-1.257,2.002-1.518,4.114-1.518,4.114c1.018,0,3.55,0,5.605,0.99c2.056,0.989,2.513,0,2.513,0s0.075-0.99,0.38-3.73
	c0.063-0.579,0.057-1.072,0.009-1.496C71.84,81.757,71.067,81.185,71.067,81.185z"/>
<polygon fill="#F36C21" stroke="#231F20" stroke-width="0.4" stroke-miterlimit="10" points="56.371,76.845 58.203,71.517 
	55.993,68.89 53.981,74.622 53.186,76.845 "/>
<linearGradient id="SVGID_2_" gradientUnits="userSpaceOnUse" x1="335.874" y1="-195.9805" x2="364.584" y2="-195.9805" gradientTransform="matrix(1 0 0 -1 -296 -117)">
	<stop  offset="0" style="stop-color:#AFD140"/>
	<stop  offset="1" style="stop-color:#00A94F"/>
</linearGradient>
<path fill="url(#SVGID_2_)" stroke="#231F20" stroke-width="0.4" stroke-miterlimit="10" d="M56.371,76.845h-3.186l0.795-2.224
	c-10.85,0.355-14.107,1.488-14.107,4.355c0,3.643,8.012,4.486,23.48,4.491c0.633-1.335,1.847-3.327,3.783-4.294l1.446-4.646
	c-0.962-0.017-1.941-0.028-2.935-0.035l-1.077,2.353H62.95h-4.846L56.371,76.845L56.371,76.845z"/>
<path fill="#F36C21" stroke="#231F20" stroke-width="0.4" stroke-miterlimit="10" d="M74.827,60.021c0,0-0.099-0.042-0.258-0.111
	c-0.799-0.343-3.291-1.412-4.298-1.793c-1.204-0.457-1.992-1.827-1.992-1.827l-3.122-4.72c0,0-0.905-2.085-3.08-2.085
	c-2.294,0-2.964,1.447-2.964,1.447s-3.578,7.841-4.644,10.049c-1.066,2.208-0.076,3.122-0.076,3.122l5.663,7.034l-1.155,3.378
	l-0.797,2.331h4.845c0,0,0.487-1.056,1.074-2.357c0.397-0.885,0.841-1.882,1.21-2.743c0.913-2.132-0.734-3.653-0.734-3.653
	l-3.072-4.645l2.752-5.347l2.805,3.215l6.532,2.127l0.016,0.005c0,0,1.599,0.837,2.436-0.843
	C76.806,60.922,74.827,60.021,74.827,60.021z"/>
<polygon fill="#F36C21" stroke="#231F20" stroke-width="0.4" stroke-miterlimit="10" points="66.681,50.656 69.497,55.224 
	75.816,55.73 76.944,51.905 "/>
<path fill="#38454F" stroke="#231F20" stroke-width="0.4" stroke-miterlimit="10" d="M79.013,49.922
	c-1.25-0.379-1.657,0.59-1.657,0.59l-0.411,1.392l-1.128,3.825l-0.802,2.687c0.756,0.411,1.653,0.982,2.367,1.681l1.278-4.265
	l0.92-3.105l0.374-1.261C79.954,51.467,80.263,50.301,79.013,49.922z"/>
<path fill="#F36C21" stroke="#231F20" stroke-width="0.4" stroke-miterlimit="10" d="M79.58,52.728l-0.92,3.105
	c0,0,1.495,0.305,1.495-1.675C80.155,53.498,79.908,53.044,79.58,52.728z"/>
</svg>
