<?xml version="1.0" encoding="utf-8"?>
<!-- Generator: Adobe Illustrator 15.0.0, SVG Export Plug-In . SVG Version: 6.00 Build 0)  -->
<!DOCTYPE svg PUBLIC "-//W3C//DTD SVG 1.1//EN" "http://www.w3.org/Graphics/SVG/1.1/DTD/svg11.dtd" [
	<!ENTITY ns_flows "http://ns.adobe.com/Flows/1.0/">
	<!ENTITY ns_extend "http://ns.adobe.com/Extensibility/1.0/">
	<!ENTITY ns_ai "http://ns.adobe.com/AdobeIllustrator/10.0/">
	<!ENTITY ns_graphs "http://ns.adobe.com/Graphs/1.0/">
]>
<svg version="1.1" id="Layer_1" xmlns:x="&ns_extend;" xmlns:i="&ns_ai;" xmlns:graph="&ns_graphs;"
	 xmlns="http://www.w3.org/2000/svg" xmlns:xlink="http://www.w3.org/1999/xlink" xmlns:a="http://ns.adobe.com/AdobeSVGViewerExtensions/3.0/"
	 x="0px" y="0px" width="128px" height="128px" viewBox="0 0 128 128" enable-background="new 0 0 128 128" xml:space="preserve">
<path fill="#F36C21" stroke="#231F20" stroke-miterlimit="10" d="M71.889,23.567c5.936-1.844,9.254-8.146,7.412-14.083
	c-1.845-5.938-8.15-9.251-14.092-7.408c-5.923,1.842-9.247,8.152-7.402,14.083C59.648,22.095,65.959,25.411,71.889,23.567z"/>
<linearGradient id="SVGID_1_" gradientUnits="userSpaceOnUse" x1="86.1504" y1="101.4609" x2="124.5742" y2="101.4609">
	<stop  offset="0" style="stop-color:#AFD140"/>
	<stop  offset="1" style="stop-color:#00A94F"/>
	<a:midPointStop  offset="0" style="stop-color:#AFD140"/>
	<a:midPointStop  offset="0.5" style="stop-color:#AFD140"/>
	<a:midPointStop  offset="1" style="stop-color:#00A94F"/>
</linearGradient>
<path fill="url(#SVGID_1_)" stroke="#231F20" stroke-miterlimit="10" d="M90.904,90.769l-4.754,15.18c0,0,1.346,2.055,2.246,6.204
	c26.121-1.089,36.178-4.186,36.178-10.748C124.574,95.055,115.694,91.951,90.904,90.769z"/>
<path fill="#38454F" stroke="#231F20" stroke-miterlimit="10" d="M81.557,106.923l4.895-16.346l7.223-24.111
	c-2.348,0.385-4.959,0.382-7.228,0.243l-7.052,23.655l-4.427,14.846c-3.948,1.622-6.656,4.472-8.506,7.415
	c-3.141,5.004-3.794,10.286-3.794,10.286c2.544,0,8.874,0,14.013,2.474c5.141,2.474,6.282,0,6.282,0s0.189-2.474,0.95-9.326
	c0.16-1.447,0.142-2.679,0.022-3.739C83.489,108.354,81.557,106.923,81.557,106.923z"/>
<polygon fill="#F36C21" stroke="#231F20" stroke-miterlimit="10" points="44.817,96.075 49.396,82.753 43.872,76.188 38.842,90.517 
	36.853,96.075 "/>
<linearGradient id="SVGID_2_" gradientUnits="userSpaceOnUse" x1="3.5742" y1="101.4141" x2="75.3486" y2="101.4141">
	<stop  offset="0" style="stop-color:#AFD140"/>
	<stop  offset="1" style="stop-color:#00A94F"/>
	<a:midPointStop  offset="0" style="stop-color:#AFD140"/>
	<a:midPointStop  offset="0.5" style="stop-color:#AFD140"/>
	<a:midPointStop  offset="1" style="stop-color:#00A94F"/>
</linearGradient>
<path fill="url(#SVGID_2_)" stroke="#231F20" stroke-miterlimit="10" d="M44.817,96.075h-7.964l1.989-5.559
	c-27.125,0.888-35.268,3.72-35.268,10.888c0,9.106,20.031,11.215,58.702,11.229c1.581-3.339,4.617-8.318,9.457-10.736l3.616-11.614
	c-2.405-0.042-4.854-0.07-7.335-0.087l-2.693,5.88h-4.057H49.151H44.817z"/>
<path fill="#F36C21" stroke="#231F20" stroke-miterlimit="10" d="M90.957,54.013c0,0-0.247-0.106-0.644-0.276
	c-1.996-0.859-8.229-3.529-10.744-4.483c-3.013-1.142-4.981-4.567-4.981-4.567l-7.805-11.8c0,0-2.264-5.214-7.701-5.214
	c-5.736,0-7.409,3.617-7.409,3.617s-8.945,19.603-11.61,25.122c-2.665,5.519-0.19,7.804-0.19,7.804l14.158,17.585l-2.888,8.445
	l-1.992,5.829h12.112c0,0,1.218-2.64,2.685-5.896c0.994-2.21,2.103-4.702,3.024-6.856c2.284-5.329-1.835-9.134-1.835-9.134
	l-7.68-11.611l6.882-13.368l7.011,8.039l16.332,5.317l0.037,0.012c0,0,3.997,2.094,6.089-2.108
	C95.902,56.267,90.957,54.013,90.957,54.013z"/>
<polygon fill="#F36C21" stroke="#231F20" stroke-miterlimit="10" points="70.59,30.603 77.633,42.021 93.43,43.287 96.251,33.724 
	"/>
<path fill="#38454F" stroke="#231F20" stroke-miterlimit="10" d="M101.421,28.768c-3.125-0.947-4.143,1.475-4.143,1.475l-1.027,3.48
	l-2.821,9.563l-2.003,6.718c1.887,1.027,4.132,2.456,5.917,4.203l3.195-10.663l2.3-7.763l0.935-3.152
	C103.773,32.63,104.547,29.716,101.421,28.768z"/>
<path fill="#F36C21" stroke="#231F20" stroke-miterlimit="10" d="M102.839,35.782l-2.3,7.763c0,0,3.738,0.761,3.738-4.187
	C104.277,37.706,103.659,36.572,102.839,35.782z"/>
</svg>
