<?xml version="1.0" encoding="utf-8"?>
<!-- Generator: Adobe Illustrator 15.0.0, SVG Export Plug-In . SVG Version: 6.00 Build 0)  -->
<!DOCTYPE svg PUBLIC "-//W3C//DTD SVG 1.1//EN" "http://www.w3.org/Graphics/SVG/1.1/DTD/svg11.dtd">
<svg version="1.1" id="Layer_1" xmlns="http://www.w3.org/2000/svg" xmlns:xlink="http://www.w3.org/1999/xlink" x="0px" y="0px"
	 width="128px" height="128px" viewBox="0 0 128 128" enable-background="new 0 0 128 128" xml:space="preserve">
<linearGradient id="SVGID_1_" gradientUnits="userSpaceOnUse" x1="335.1426" y1="-189.6924" x2="378.5049" y2="-189.6924" gradientTransform="matrix(1 0 0 -1 -296 -117)">
	<stop  offset="0" style="stop-color:#322106"/>
	<stop  offset="1" style="stop-color:#8F552F"/>
</linearGradient>
<path fill="url(#SVGID_1_)" stroke="#231F20" stroke-width="0.4" stroke-miterlimit="10" d="M50.881,76.596l0.211,0.125
	c0.417,0.246,0.856,0.444,1.302,0.616c0.35,0.112,0.701,0.222,1.05,0.334c2.114,0.528,4.379,0.273,6.345-0.794l1.147-0.625
	c2.258-1.226,4.992-1.178,7.205,0.127c2.669,1.575,5.972,1.634,8.696,0.155l0.522-0.285c1.106-0.601,2.05-0.336,3.263-0.327
	l1.882-6.217l-43.362-2.257l7.393,8.609C48.125,75.956,49.465,75.761,50.881,76.596z"/>
<linearGradient id="SVGID_2_" gradientUnits="userSpaceOnUse" x1="367.1387" y1="-158.439" x2="367.1387" y2="-183.8086" gradientTransform="matrix(1 0 0 -1 -296 -117)">
	<stop  offset="0" style="stop-color:#AFD140"/>
	<stop  offset="1" style="stop-color:#00A94F"/>
</linearGradient>
<path fill="url(#SVGID_2_)" stroke="#231F20" stroke-width="0.4" stroke-miterlimit="10" d="M64.739,41.439v24.707l12.742,0.663
	C78.529,49.525,64.739,41.439,64.739,41.439z"/>
<linearGradient id="SVGID_3_" gradientUnits="userSpaceOnUse" x1="352.9785" y1="-182.9912" x2="352.9785" y2="-160.5562" gradientTransform="matrix(1 0 0 -1 -296 -117)">
	<stop  offset="0" style="stop-color:#AFD140"/>
	<stop  offset="1" style="stop-color:#00A94F"/>
</linearGradient>
<polygon fill="url(#SVGID_3_)" stroke="#231F20" stroke-width="0.4" stroke-miterlimit="10" points="61.788,43.556 52.17,65.492 
	61.788,65.991 "/>
<g>
	<g>
		
			<linearGradient id="SVGID_4_" gradientUnits="userSpaceOnUse" x1="338.8184" y1="-202.2339" x2="381.5889" y2="-202.2339" gradientTransform="matrix(1 0 0 -1 -296 -117)">
			<stop  offset="0" style="stop-color:#0095DA"/>
			<stop  offset="0.5" style="stop-color:#00AEEE"/>
			<stop  offset="1" style="stop-color:#2AC4F3"/>
		</linearGradient>
		<path fill="url(#SVGID_4_)" d="M70.573,87.475c-1.928,0-3.273-0.631-4.354-1.139c-0.772-0.362-1.438-0.676-2.119-0.676
			c-0.688,0-1.394,0.318-2.21,0.687c-1.115,0.503-2.502,1.127-4.363,1.127c-1.69,0-2.982-0.552-4.232-1.085
			c-1.111-0.475-2.161-0.923-3.391-0.923c-1.151,0-1.755,0.284-2.453,0.612c-0.817,0.386-1.743,0.822-3.712,0.822
			c-0.331-0.031-0.92-0.244-0.92-0.831c0-0.603,0.602-0.761,0.92-0.761c1.04,0,1.77-0.441,2.542-0.907
			c0.908-0.549,1.938-1.17,3.622-1.17c2.023,0,3.524,0.507,4.849,0.954c1.007,0.34,1.877,0.633,2.774,0.633
			c0.862,0,1.563-0.338,2.375-0.729c1.067-0.514,2.275-1.097,4.199-1.097c1.86,0,2.944,0.557,3.9,1.048
			c0.813,0.417,1.516,0.777,2.573,0.777c1.141,0,2.211-0.365,3.346-0.753c1.2-0.409,2.441-0.834,3.838-0.834
			c2.183,0,3.576,0.741,4.696,1.337c0.802,0.427,1.496,0.796,2.277,0.796c0.346,0.003,0.858,0.223,0.858,0.816
			c0,0.447-0.346,0.726-0.902,0.726c-0.081,0-0.135-0.007-0.135-0.007c-0.003,0-0.006,0-0.009,0c-2.212,0-3.045-0.442-3.78-0.833
			c-0.607-0.322-1.132-0.601-2.383-0.601c-1.332,0-2.402,0.454-3.534,0.935C73.602,86.929,72.315,87.475,70.573,87.475z"/>
	</g>
	<g>
		<path fill="#231F20" d="M64.1,83.193c3.35,0,4.065,1.825,6.474,1.825c2.407,0,4.523-1.587,7.184-1.587
			c3.69,0,5.004,2.133,6.974,2.133c0,0,0.659,0.006,0.659,0.616c0,0.47-0.48,0.525-0.703,0.525c-0.067,0-0.111-0.006-0.111-0.006
			c-4.034,0-3.347-1.435-6.195-1.435c-2.847,0-4.521,2.008-7.807,2.008c-3.253,0-4.752-1.813-6.474-1.813
			c-1.723,0-3.414,1.813-6.573,1.813c-3.162,0-4.965-2.008-7.623-2.008c-2.598,0-2.598,1.435-6.165,1.435
			c0,0-0.719-0.07-0.719-0.631c0-0.562,0.719-0.562,0.719-0.562c2.346,0,3.109-2.076,6.165-2.076c3.535,0,5.495,1.588,7.623,1.588
			C59.592,85.02,60.749,83.193,64.1,83.193 M64.1,82.793c-1.969,0-3.2,0.594-4.285,1.117c-0.789,0.38-1.471,0.709-2.288,0.709
			c-0.864,0-1.72-0.289-2.71-0.624c-1.339-0.452-2.857-0.964-4.913-0.964c-1.74,0-2.795,0.637-3.726,1.199
			c-0.781,0.471-1.455,0.878-2.439,0.878c-0.45,0-1.119,0.256-1.119,0.961c0,0.729,0.707,0.992,1.08,1.028l0.02,0.002h0.02
			c2.014,0,2.962-0.446,3.797-0.841c0.676-0.318,1.261-0.594,2.367-0.594c1.189,0,2.221,0.44,3.313,0.907
			c1.268,0.541,2.58,1.102,4.311,1.102c1.903,0,3.313-0.635,4.445-1.146c0.795-0.358,1.483-0.668,2.128-0.668
			c0.635,0,1.284,0.304,2.034,0.656c1.1,0.516,2.467,1.157,4.44,1.157c1.782,0,3.088-0.554,4.35-1.09
			c1.113-0.473,2.165-0.918,3.457-0.918c1.201,0,1.706,0.268,2.289,0.576c0.755,0.401,1.609,0.855,3.888,0.858
			c0.026,0.002,0.072,0.005,0.13,0.005c0.67,0,1.103-0.363,1.103-0.925c0-0.739-0.631-1.013-1.055-1.017
			c-0.735,0-1.376-0.341-2.188-0.773c-1.14-0.605-2.558-1.359-4.79-1.359c-1.43,0-2.687,0.43-3.903,0.845
			c-1.117,0.382-2.174,0.742-3.28,0.742c-1.009,0-1.692-0.351-2.482-0.756C67.116,83.361,66.009,82.793,64.1,82.793L64.1,82.793z"/>
	</g>
</g>
<g>
	
		<linearGradient id="SVGID_5_" gradientUnits="userSpaceOnUse" x1="335.2188" y1="-197.5259" x2="384.9424" y2="-197.5259" gradientTransform="matrix(1 0 0 -1 -296 -117)">
		<stop  offset="0" style="stop-color:#2AC4F3"/>
		<stop  offset="0.5" style="stop-color:#00AEEE"/>
		<stop  offset="1" style="stop-color:#0095DA"/>
	</linearGradient>
	<path fill="url(#SVGID_5_)" d="M72.083,83.523c-2.364,0-4.016-0.862-5.342-1.556c-0.953-0.498-1.775-0.928-2.619-0.928
		c-0.853,0-1.723,0.437-2.73,0.942c-1.368,0.687-3.071,1.541-5.354,1.541c-2.083,0-3.342-0.759-4.56-1.494
		c-1.073-0.647-2.086-1.259-3.595-1.259c-1.421,0-2.165,0.392-3.027,0.845c-1.001,0.526-2.137,1.124-4.553,1.124
		c-0.389-0.041-1.084-0.314-1.084-1.066c0-0.767,0.709-0.969,1.084-0.969c1.286,0,2.188-0.607,3.142-1.251
		c1.113-0.749,2.375-1.6,4.438-1.6c2.494,0,3.956,0.698,5.247,1.314c0.972,0.464,1.811,0.864,2.909,0.864
		c1.067,0,1.932-0.465,2.933-1.004c1.309-0.703,2.792-1.5,5.151-1.5c2.281,0,3.61,0.761,4.783,1.433
		c1.005,0.574,1.872,1.071,3.178,1.071c1.396,0,2.345-0.498,3.351-1.025c1.08-0.566,2.197-1.153,3.923-1.153
		c2.677,0,4.388,1.016,5.762,1.831c0.992,0.589,1.848,1.097,2.816,1.097c0.35,0.004,1.008,0.227,1.008,1.046
		c0,0.575-0.397,0.919-1.063,0.919c-0.098,0-0.161-0.009-0.161-0.009c-0.004,0-0.008,0-0.011,0c-2.719,0-3.74-0.604-4.641-1.139
		c-0.751-0.444-1.398-0.828-2.943-0.828c-1.63,0-2.584,0.617-3.595,1.271C75.4,82.771,74.234,83.523,72.083,83.523z"/>
	<path fill="#231F20" d="M64.123,77.728c4.118,0,4.999,2.504,7.96,2.504s4.002-2.178,7.273-2.178c4.539,0,6.155,2.927,8.578,2.927
		c0,0,0.809,0.008,0.809,0.846c0,0.645-0.591,0.719-0.864,0.719c-0.083,0-0.137-0.007-0.137-0.007c-4.963,0-4.116-1.968-7.619-1.968
		c-3.502,0-4,2.754-8.04,2.754c-4,0-5.844-2.484-7.961-2.484c-2.119,0-4.197,2.484-8.084,2.484c-3.886,0-4.886-2.754-8.155-2.754
		c-3.193,0-3.193,1.968-7.58,1.968c0,0-0.885-0.095-0.885-0.866c0-0.77,0.885-0.769,0.885-0.769c2.886,0,3.823-2.851,7.58-2.851
		c4.348,0,5.539,2.179,8.155,2.179C58.578,80.231,60.002,77.728,64.123,77.728 M64.123,77.328c-2.409,0-3.916,0.81-5.246,1.524
		c-0.978,0.525-1.822,0.979-2.838,0.979c-1.053,0-1.873-0.392-2.823-0.846c-1.309-0.625-2.793-1.333-5.333-1.333
		c-2.125,0-3.413,0.868-4.55,1.634c-0.968,0.653-1.805,1.217-3.031,1.217c0,0,0,0-0.001,0c-0.063,0-0.606,0.011-0.972,0.376
		c-0.204,0.204-0.312,0.478-0.312,0.792c0,0.895,0.813,1.219,1.242,1.264l0.021,0.003h0.021c2.466,0,3.624-0.609,4.646-1.146
		c0.838-0.441,1.563-0.822,2.934-0.822c1.453,0,2.443,0.598,3.492,1.23c1.184,0.714,2.525,1.523,4.664,1.523
		c2.331,0,4.057-0.866,5.443-1.563c0.985-0.494,1.835-0.922,2.641-0.922c0.793,0,1.596,0.42,2.525,0.905
		c1.347,0.704,3.022,1.579,5.436,1.579c2.21,0,3.455-0.805,4.553-1.515c0.986-0.637,1.916-1.239,3.487-1.239
		c1.49,0,2.116,0.371,2.841,0.801c0.923,0.546,1.967,1.165,4.758,1.168c0.031,0.003,0.087,0.007,0.157,0.007
		c0.769,0,1.264-0.439,1.264-1.119c0-0.905-0.72-1.241-1.204-1.245c-0.918,0-1.752-0.495-2.719-1.069
		c-1.395-0.828-3.131-1.858-5.863-1.858c-1.775,0-2.914,0.598-4.016,1.175c-0.983,0.516-1.912,1.004-3.258,1.004
		c-1.253,0-2.099-0.484-3.078-1.045C67.81,78.104,66.457,77.328,64.123,77.328L64.123,77.328z"/>
</g>
</svg>
