<?xml version="1.0" encoding="utf-8"?>
<!-- Generator: Adobe Illustrator 15.0.0, SVG Export Plug-In . SVG Version: 6.00 Build 0)  -->
<!DOCTYPE svg PUBLIC "-//W3C//DTD SVG 1.1//EN" "http://www.w3.org/Graphics/SVG/1.1/DTD/svg11.dtd" [
	<!ENTITY ns_flows "http://ns.adobe.com/Flows/1.0/">
	<!ENTITY ns_extend "http://ns.adobe.com/Extensibility/1.0/">
	<!ENTITY ns_ai "http://ns.adobe.com/AdobeIllustrator/10.0/">
	<!ENTITY ns_graphs "http://ns.adobe.com/Graphs/1.0/">
]>
<svg version="1.1" id="Layer_1" xmlns:x="&ns_extend;" xmlns:i="&ns_ai;" xmlns:graph="&ns_graphs;"
	 xmlns="http://www.w3.org/2000/svg" xmlns:xlink="http://www.w3.org/1999/xlink" xmlns:a="http://ns.adobe.com/AdobeSVGViewerExtensions/3.0/"
	 x="0px" y="0px" width="128px" height="128px" viewBox="0 0 128 128" enable-background="new 0 0 128 128" xml:space="preserve">
<linearGradient id="SVGID_1_" gradientUnits="userSpaceOnUse" x1="1.7363" y1="84.8965" x2="110.1426" y2="84.8965">
	<stop  offset="0" style="stop-color:#322106"/>
	<stop  offset="1" style="stop-color:#8F552F"/>
	<a:midPointStop  offset="0" style="stop-color:#322106"/>
	<a:midPointStop  offset="0.5091" style="stop-color:#322106"/>
	<a:midPointStop  offset="1" style="stop-color:#8F552F"/>
</linearGradient>
<path fill="url(#SVGID_1_)" stroke="#231F20" stroke-miterlimit="10" d="M31.083,94.654l0.529,0.312
	c1.042,0.617,2.141,1.111,3.253,1.542c0.875,0.28,1.752,0.554,2.625,0.835c5.285,1.32,10.948,0.683,15.863-1.985l2.867-1.563
	c5.645-3.065,12.481-2.946,18.013,0.317c6.673,3.939,14.93,4.085,21.741,0.389l1.307-0.714c2.766-1.501,5.123-0.84,8.156-0.817
	l4.706-15.543L1.736,71.786l18.482,21.522C24.193,93.054,27.542,92.567,31.083,94.654z"/>
<linearGradient id="SVGID_2_" gradientUnits="userSpaceOnUse" x1="81.7285" y1="6.7627" x2="81.7285" y2="70.187">
	<stop  offset="0" style="stop-color:#AFD140"/>
	<stop  offset="1" style="stop-color:#00A94F"/>
	<a:midPointStop  offset="0" style="stop-color:#AFD140"/>
	<a:midPointStop  offset="0.5" style="stop-color:#AFD140"/>
	<a:midPointStop  offset="1" style="stop-color:#00A94F"/>
</linearGradient>
<path fill="url(#SVGID_2_)" stroke="#231F20" stroke-miterlimit="10" d="M65.729,6.763V68.53l31.855,1.656
	C100.203,26.978,65.729,6.763,65.729,6.763z"/>
<linearGradient id="SVGID_3_" gradientUnits="userSpaceOnUse" x1="46.3257" y1="68.1426" x2="46.3257" y2="12.0557">
	<stop  offset="0" style="stop-color:#AFD140"/>
	<stop  offset="1" style="stop-color:#00A94F"/>
	<a:midPointStop  offset="0" style="stop-color:#AFD140"/>
	<a:midPointStop  offset="0.5" style="stop-color:#AFD140"/>
	<a:midPointStop  offset="1" style="stop-color:#00A94F"/>
</linearGradient>
<polygon fill="url(#SVGID_3_)" stroke="#231F20" stroke-miterlimit="10" points="58.348,12.055 34.304,66.894 58.348,68.143 "/>
<g>
	<g>
		<linearGradient id="SVGID_4_" gradientUnits="userSpaceOnUse" x1="10.9287" y1="116.25" x2="117.8535" y2="116.25">
			<stop  offset="0" style="stop-color:#0095DA"/>
			<stop  offset="0.5" style="stop-color:#00AEEE"/>
			<stop  offset="1" style="stop-color:#2AC4F3"/>
			<a:midPointStop  offset="0" style="stop-color:#0095DA"/>
			<a:midPointStop  offset="0.5" style="stop-color:#0095DA"/>
			<a:midPointStop  offset="0.5" style="stop-color:#00AEEE"/>
			<a:midPointStop  offset="0.5" style="stop-color:#00AEEE"/>
			<a:midPointStop  offset="1" style="stop-color:#2AC4F3"/>
		</linearGradient>
		<path fill="url(#SVGID_4_)" d="M80.313,121.851c-4.82,0-8.184-1.578-10.887-2.846c-1.93-0.905-3.596-1.688-5.297-1.688
			c-1.722,0-3.485,0.795-5.527,1.715c-2.787,1.256-6.255,2.818-10.906,2.818c-4.226,0-7.456-1.38-10.581-2.714
			c-2.778-1.187-5.402-2.307-8.478-2.307c-2.878,0-4.386,0.711-6.131,1.533c-2.042,0.963-4.357,2.054-9.28,2.054
			c-0.827-0.079-2.299-0.611-2.299-2.077c0-1.506,1.504-1.903,2.299-1.903c2.6,0,4.424-1.102,6.356-2.268
			c2.271-1.371,4.845-2.925,9.055-2.925c5.059,0,8.811,1.267,12.122,2.385c2.519,0.85,4.694,1.584,6.936,1.584
			c2.156,0,3.908-0.845,5.937-1.822c2.667-1.284,5.688-2.741,10.496-2.741c4.652,0,7.361,1.391,9.751,2.618
			c2.034,1.044,3.79,1.945,6.433,1.945c2.852,0,5.529-0.915,8.364-1.883c3.001-1.025,6.104-2.086,9.596-2.086
			c5.456,0,8.939,1.854,11.739,3.342c2.007,1.068,3.741,1.99,5.695,1.99c0.865,0.008,2.146,0.558,2.146,2.041
			c0,1.118-0.865,1.813-2.257,1.813c-0.203,0-0.335-0.016-0.335-0.016c-0.008,0-0.016,0-0.023,0c-5.531,0-7.613-1.106-9.451-2.082
			c-1.519-0.806-2.829-1.502-5.957-1.502c-3.33,0-6.005,1.135-8.836,2.336C87.884,120.486,84.668,121.851,80.313,121.851z"/>
	</g>
	<g>
		<path fill="#231F20" d="M64.13,111.149c8.375,0,10.161,4.563,16.184,4.563c6.019,0,11.31-3.969,17.96-3.969
			c9.227,0,12.51,5.332,17.435,5.332c0,0,1.646,0.015,1.646,1.541c0,1.176-1.2,1.313-1.757,1.313c-0.169,0-0.278-0.013-0.278-0.013
			c-10.086,0-8.366-3.587-15.488-3.587c-7.118,0-11.305,5.021-19.517,5.021c-8.134,0-11.88-4.533-16.184-4.533
			c-4.307,0-8.534,4.533-16.433,4.533c-7.904,0-12.414-5.021-19.058-5.021c-6.494,0-6.494,3.587-15.412,3.587
			c0,0-1.799-0.177-1.799-1.577c0-1.403,1.799-1.403,1.799-1.403c5.864,0,7.773-5.192,15.412-5.192
			c8.837,0,13.738,3.969,19.058,3.969C52.859,115.713,55.752,111.149,64.13,111.149 M64.13,110.149
			c-4.922,0-7.999,1.482-10.713,2.791c-1.973,0.951-3.678,1.772-5.719,1.772c-2.16,0-4.299-0.722-6.776-1.559
			c-3.348-1.13-7.142-2.41-12.282-2.41c-4.35,0-6.987,1.592-9.314,2.997c-1.952,1.178-3.637,2.195-6.098,2.195
			c-1.125,0-2.799,0.64-2.799,2.403c0,1.825,1.767,2.48,2.701,2.572l0.049,0.005h0.049c5.035,0,7.404-1.116,9.493-2.102
			c1.691-0.797,3.152-1.485,5.918-1.485c2.974,0,5.552,1.101,8.281,2.267c3.17,1.354,6.449,2.754,10.777,2.754
			c4.758,0,8.281-1.587,11.111-2.862c1.989-0.896,3.708-1.671,5.322-1.671c1.589,0,3.209,0.76,5.085,1.64
			c2.747,1.289,6.167,2.894,11.099,2.894c4.456,0,7.72-1.385,10.876-2.725c2.783-1.181,5.412-2.296,8.641-2.296
			c3.003,0,4.264,0.669,5.723,1.443c1.887,1.002,4.024,2.138,9.719,2.144c0.066,0.006,0.181,0.013,0.325,0.013
			c1.675,0,2.757-0.908,2.757-2.313c0-1.847-1.577-2.531-2.637-2.541c-1.839,0-3.44-0.853-5.47-1.932
			c-2.848-1.515-6.393-3.4-11.974-3.4c-3.574,0-6.718,1.074-9.758,2.112c-2.794,0.955-5.434,1.856-8.202,1.856
			c-2.521,0-4.229-0.876-6.204-1.891C71.669,111.569,68.903,110.149,64.13,110.149L64.13,110.149z"/>
	</g>
</g>
<g>
	<linearGradient id="SVGID_5_" gradientUnits="userSpaceOnUse" x1="1.9248" y1="104.4805" x2="126.2363" y2="104.4805">
		<stop  offset="0" style="stop-color:#2AC4F3"/>
		<stop  offset="0.5" style="stop-color:#00AEEE"/>
		<stop  offset="1" style="stop-color:#0095DA"/>
		<a:midPointStop  offset="0" style="stop-color:#2AC4F3"/>
		<a:midPointStop  offset="0.5" style="stop-color:#2AC4F3"/>
		<a:midPointStop  offset="0.5" style="stop-color:#00AEEE"/>
		<a:midPointStop  offset="0.5" style="stop-color:#00AEEE"/>
		<a:midPointStop  offset="1" style="stop-color:#0095DA"/>
	</linearGradient>
	<path fill="url(#SVGID_5_)" d="M84.088,111.975c-5.911,0-10.039-2.157-13.356-3.891c-2.382-1.244-4.439-2.319-6.546-2.319
		c-2.132,0-4.308,1.092-6.826,2.356c-3.42,1.717-7.677,3.854-13.384,3.854c-5.207,0-8.355-1.899-11.4-3.736
		c-2.683-1.619-5.216-3.147-8.988-3.147c-3.553,0-5.413,0.979-7.567,2.111c-2.504,1.317-5.343,2.81-11.384,2.81
		c-0.973-0.102-2.711-0.786-2.711-2.666c0-1.916,1.773-2.422,2.711-2.422c3.216,0,5.47-1.519,7.856-3.126
		c2.783-1.874,5.937-3.999,11.095-3.999c6.234,0,9.89,1.745,13.116,3.284c2.429,1.16,4.528,2.161,7.272,2.161
		c2.667,0,4.829-1.162,7.333-2.508c3.272-1.758,6.981-3.751,12.877-3.751c5.703,0,9.025,1.902,11.957,3.58
		c2.511,1.438,4.68,2.679,7.945,2.679c3.487,0,5.861-1.245,8.375-2.563c2.701-1.417,5.493-2.882,9.808-2.882
		c6.692,0,10.969,2.537,14.404,4.576c2.479,1.472,4.62,2.742,7.04,2.742c0.875,0.009,2.521,0.565,2.521,2.614
		c0,1.438-0.994,2.297-2.66,2.297c-0.244,0-0.403-0.021-0.403-0.021c-0.009,0-0.019,0-0.026,0c-6.798,0-9.35-1.512-11.602-2.846
		c-1.876-1.111-3.495-2.071-7.357-2.071c-4.074,0-6.461,1.543-8.989,3.178C92.38,110.091,89.466,111.975,84.088,111.975z"/>
	<path fill="#231F20" d="M64.186,97.485c10.295,0,12.496,6.259,19.902,6.259c7.404,0,10.004-5.445,18.183-5.445
		c11.346,0,15.387,7.318,21.444,7.318c0,0,2.021,0.02,2.021,2.114c0,1.61-1.476,1.797-2.16,1.797c-0.206,0-0.341-0.017-0.341-0.017
		c-12.408,0-10.289-4.921-19.048-4.921c-8.756,0-9.999,6.884-20.1,6.884c-9.999,0-14.609-6.21-19.902-6.21
		c-5.298,0-10.494,6.21-20.21,6.21s-12.214-6.884-20.388-6.884c-7.984,0-7.984,4.921-18.951,4.921c0,0-2.211-0.238-2.211-2.166
		c0-1.925,2.211-1.922,2.211-1.922c7.214,0,9.558-7.125,18.951-7.125c10.87,0,13.846,5.445,20.388,5.445
		C50.325,103.744,53.885,97.485,64.186,97.485 M64.186,96.485c-6.022,0-9.79,2.024-13.114,3.811
		c-2.444,1.313-4.555,2.448-7.096,2.448c-2.632,0-4.683-0.979-7.057-2.112c-3.273-1.563-6.984-3.333-13.331-3.333
		c-5.312,0-8.533,2.17-11.375,4.085c-2.421,1.631-4.513,3.04-7.577,3.04c0,0-0.001,0-0.002,0c-0.159,0-1.515,0.028-2.429,0.941
		c-0.511,0.51-0.78,1.194-0.78,1.98c0,2.235,2.031,3.045,3.104,3.16l0.053,0.006h0.054c6.165,0,9.061-1.523,11.616-2.867
		c2.096-1.102,3.906-2.054,7.335-2.054c3.632,0,6.108,1.494,8.729,3.075c2.959,1.785,6.313,3.809,11.659,3.809
		c5.826,0,10.141-2.166,13.608-3.906c2.462-1.236,4.588-2.304,6.602-2.304c1.983,0,3.99,1.049,6.314,2.263
		c3.366,1.759,7.555,3.947,13.588,3.947c5.525,0,8.637-2.012,11.382-3.786c2.464-1.593,4.791-3.098,8.718-3.098
		c3.725,0,5.29,0.928,7.103,2.001c2.305,1.365,4.915,2.912,11.893,2.92c0.079,0.007,0.217,0.017,0.394,0.017
		c1.92,0,3.16-1.098,3.16-2.797c0-2.264-1.801-3.103-3.012-3.114c-2.293,0-4.379-1.238-6.795-2.672
		c-3.488-2.07-7.829-4.646-14.659-4.646c-4.438,0-7.285,1.494-10.04,2.938c-2.457,1.289-4.779,2.507-8.143,2.507
		c-3.133,0-5.248-1.211-7.696-2.612C73.405,98.423,70.021,96.485,64.186,96.485L64.186,96.485z"/>
</g>
</svg>
