<?xml version="1.0" encoding="utf-8"?>
<!-- Generator: Adobe Illustrator 15.0.0, SVG Export Plug-In . SVG Version: 6.00 Build 0)  -->
<!DOCTYPE svg PUBLIC "-//W3C//DTD SVG 1.1//EN" "http://www.w3.org/Graphics/SVG/1.1/DTD/svg11.dtd">
<svg version="1.1" id="Layer_1" xmlns="http://www.w3.org/2000/svg" xmlns:xlink="http://www.w3.org/1999/xlink" x="0px" y="0px"
	 width="128px" height="128px" viewBox="0 0 128 128" enable-background="new 0 0 128 128" xml:space="preserve">
<path fill="#38454F" stroke="#231F20" stroke-width="0.4" stroke-miterlimit="10" d="M87.375,72.341h1.614v2.42h-1.614V72.341z"/>
<path fill="#38454F" stroke="#231F20" stroke-width="0.4" stroke-miterlimit="10" d="M84.148,72.341h1.613v2.42h-1.613V72.341z"/>
<path fill="#38454F" stroke="#231F20" stroke-width="0.4" stroke-miterlimit="10" d="M80.922,72.341h1.613v2.42h-1.613V72.341z"/>
<g>
	<path fill="#F36C21" d="M52.611,88.049c-1.255,0-2.276-1.031-2.276-2.298v-8.532h-0.523l0.001,8.532
		c0,1.267-1.021,2.297-2.276,2.297c-1.255,0-2.277-1.03-2.277-2.297v-13.06l-0.506,1.365c-0.254,0.683-0.91,1.142-1.632,1.142
		c-0.209,0-0.415-0.038-0.612-0.112c-0.898-0.341-1.355-1.355-1.02-2.262l3.137-9.538c0.294-0.792,0.984-1.243,1.896-1.243h6.491
		c0.092,0,0.149-0.002,0.215-0.004c0.088-0.003,0.19-0.006,0.397-0.006c0.856,0,1.617,0.5,1.894,1.245l3.142,9.553
		c0.334,0.899-0.123,1.914-1.021,2.255c-0.197,0.074-0.403,0.112-0.612,0.112l0,0c-0.722,0-1.378-0.458-1.631-1.142l-0.507-1.364
		v13.059C54.888,87.018,53.867,88.049,52.611,88.049z"/>
	<g>
		<path fill="#231F20" d="M53.625,62.233c0.727,0,1.442,0.403,1.707,1.115l3.139,9.545c0.299,0.806-0.105,1.702-0.902,2.005
			c-0.178,0.068-0.361,0.1-0.542,0.1c-0.624,0-1.211-0.386-1.444-1.01l-0.807-2.174c0,0-0.013-0.047-0.029-0.047
			c-0.025,0-0.058,0.119-0.058,0.735v13.248c0,1.158-0.93,2.098-2.077,2.098c-1.146,0-2.076-0.939-2.076-2.098v-8.654
			c0,0,0.005-0.077-0.072-0.077c-0.195,0-0.585,0-0.78,0c-0.081,0-0.07,0.077-0.07,0.077v8.654c0,1.158-0.93,2.098-2.077,2.098
			c-1.147,0-2.077-0.939-2.077-2.098V72.503c0-0.679-0.028-0.785-0.045-0.785c-0.008,0-0.014,0.022-0.014,0.022l-0.835,2.248
			c-0.232,0.625-0.819,1.01-1.444,1.01c-0.18,0-0.363-0.031-0.542-0.1c-0.797-0.303-1.202-1.199-0.903-2.005l3.14-9.545
			c0.264-0.712,0.876-1.105,1.706-1.105c0.204,0,0.396,0,0.612,0h5.878C53.229,62.243,53.262,62.233,53.625,62.233 M53.625,61.833
			c-0.211,0-0.314,0.003-0.404,0.006c-0.063,0.002-0.12,0.003-0.208,0.003h-5.878h-0.612c-1,0-1.759,0.498-2.081,1.367l-3.144,9.559
			c-0.37,0.996,0.14,2.125,1.141,2.505c0.22,0.083,0.45,0.125,0.683,0.125c0.806,0,1.537-0.511,1.819-1.271l0.119-0.321V85.75
			c0,1.377,1.111,2.498,2.477,2.498c1.365,0,2.477-1.121,2.477-2.498v-8.331h0.123v8.332c0,1.376,1.111,2.497,2.476,2.497
			c1.366,0,2.477-1.121,2.477-2.497V73.806l0.119,0.321c0.283,0.76,1.014,1.271,1.819,1.271c0.233,0,0.463-0.042,0.683-0.125
			c1.001-0.38,1.51-1.51,1.136-2.519l-3.133-9.532C55.4,62.386,54.564,61.833,53.625,61.833L53.625,61.833z"/>
	</g>
</g>
<g>
	<path fill="#F36C21" d="M50.114,59.947c-2.497,0-4.528-2.031-4.528-4.528s2.031-4.528,4.528-4.528c2.497,0,4.528,2.031,4.528,4.528
		S52.611,59.947,50.114,59.947z"/>
	<g>
		<path fill="#231F20" d="M50.114,51.09c2.391,0,4.328,1.936,4.328,4.328s-1.938,4.328-4.328,4.328c-2.39,0-4.328-1.936-4.328-4.328
			S47.724,51.09,50.114,51.09 M50.114,50.69c-2.607,0-4.728,2.121-4.728,4.728s2.121,4.728,4.728,4.728
			c2.607,0,4.729-2.121,4.729-4.728S52.722,50.69,50.114,50.69L50.114,50.69z"/>
	</g>
</g>
<linearGradient id="SVGID_1_" gradientUnits="userSpaceOnUse" x1="334.5889" y1="-202.0498" x2="384.9893" y2="-202.0498" gradientTransform="matrix(1 0 0 -1 -296 -117)">
	<stop  offset="0" style="stop-color:#322106"/>
	<stop  offset="1" style="stop-color:#8F552F"/>
</linearGradient>
<path fill="url(#SVGID_1_)" stroke="#231F20" stroke-width="0.4" stroke-miterlimit="10" d="M41.398,88.947
	c0.091,0.362,0.454,0.635,0.816,0.635h36.803c5.167,0,9.428-3.897,9.972-9.064h-50.4L41.398,88.947z M75.392,82.33h1.813v1.813
	h-1.813V82.33z M71.766,82.33h1.813v1.813h-1.813V82.33z M68.141,82.33h1.813v1.813h-1.813V82.33z"/>
<linearGradient id="SVGID_2_" gradientUnits="userSpaceOnUse" x1="356.1572" y1="-175.3535" x2="384.9886" y2="-175.3535" gradientTransform="matrix(1 0 0 -1 -296 -117)">
	<stop  offset="0" style="stop-color:#AFD140"/>
	<stop  offset="1" style="stop-color:#00A94F"/>
</linearGradient>
<polygon fill="url(#SVGID_2_)" stroke="#231F20" stroke-width="0.4" stroke-miterlimit="10" points="79.113,40.722 60.157,69.639 
	77.3,69.639 77.3,75.984 79.113,75.984 "/>
<linearGradient id="SVGID_3_" gradientUnits="userSpaceOnUse" x1="356.1582" y1="-194.3438" x2="384.9894" y2="-194.3438" gradientTransform="matrix(1 0 0 -1 -296 -117)">
	<stop  offset="0" style="stop-color:#322106"/>
	<stop  offset="1" style="stop-color:#8F552F"/>
</linearGradient>
<polygon fill="url(#SVGID_3_)" stroke="#231F20" stroke-width="0.4" stroke-miterlimit="10" points="79.113,75.984 77.3,75.984 
	66.327,75.984 63.064,78.703 88.989,78.703 88.989,75.984 "/>
</svg>
