<?xml version="1.0" encoding="utf-8"?>
<!-- Generator: Adobe Illustrator 15.0.0, SVG Export Plug-In . SVG Version: 6.00 Build 0)  -->
<!DOCTYPE svg PUBLIC "-//W3C//DTD SVG 1.1//EN" "http://www.w3.org/Graphics/SVG/1.1/DTD/svg11.dtd" [
	<!ENTITY ns_flows "http://ns.adobe.com/Flows/1.0/">
	<!ENTITY ns_extend "http://ns.adobe.com/Extensibility/1.0/">
	<!ENTITY ns_ai "http://ns.adobe.com/AdobeIllustrator/10.0/">
	<!ENTITY ns_graphs "http://ns.adobe.com/Graphs/1.0/">
]>
<svg version="1.1" id="Layer_1" xmlns:x="&ns_extend;" xmlns:i="&ns_ai;" xmlns:graph="&ns_graphs;"
	 xmlns="http://www.w3.org/2000/svg" xmlns:xlink="http://www.w3.org/1999/xlink" xmlns:a="http://ns.adobe.com/AdobeSVGViewerExtensions/3.0/"
	 x="0px" y="0px" width="128px" height="128px" viewBox="0 0 128 128" enable-background="new 0 0 128 128" xml:space="preserve">
<path fill="#38454F" stroke="#231F20" stroke-miterlimit="10" d="M122.755,83.124h4.034v6.05h-4.034V83.124z"/>
<path fill="#38454F" stroke="#231F20" stroke-miterlimit="10" d="M114.688,83.124h4.033v6.05h-4.033V83.124z"/>
<path fill="#38454F" stroke="#231F20" stroke-miterlimit="10" d="M106.622,83.124h4.033v6.05h-4.033V83.124z"/>
<g>
	<path fill="#F36C21" d="M35.845,122.392c-3.138,0-5.691-2.576-5.691-5.743V95.319h-1.309l0.003,21.329
		c0,3.167-2.554,5.743-5.692,5.743s-5.692-2.576-5.692-5.743V84.001l-1.266,3.413c-0.634,1.706-2.273,2.853-4.079,2.853
		c-0.522,0-1.038-0.095-1.531-0.281c-2.246-0.852-3.389-3.389-2.548-5.654l7.841-23.845c0.735-1.981,2.46-3.107,4.74-3.107h16.227
		c0.229,0,0.374-0.004,0.537-0.01c0.221-0.007,0.475-0.015,0.994-0.015c2.14,0,4.043,1.251,4.735,3.113l7.854,23.882
		c0.835,2.248-0.308,4.784-2.554,5.636c-0.493,0.187-1.008,0.281-1.53,0.281l0,0c-1.805,0-3.445-1.146-4.079-2.853l-1.267-3.411
		v32.646C41.537,119.815,38.983,122.392,35.845,122.392z"/>
	<g>
		<path fill="#231F20" d="M38.378,57.854c1.817,0,3.604,1.007,4.266,2.788l7.848,23.864c0.748,2.014-0.263,4.256-2.256,5.012
			c-0.446,0.169-0.903,0.249-1.353,0.249c-1.561,0-3.029-0.964-3.61-2.526l-2.017-5.433c0,0-0.033-0.118-0.073-0.118
			c-0.063,0-0.146,0.298-0.146,1.839v33.12c0,2.896-2.325,5.243-5.192,5.243s-5.191-2.347-5.191-5.243V95.013
			c0,0,0.012-0.193-0.181-0.193c-0.487,0-1.462,0-1.949,0c-0.202,0-0.176,0.193-0.176,0.193v21.636c0,2.896-2.325,5.243-5.192,5.243
			s-5.192-2.347-5.192-5.243v-33.12c0-1.696-0.07-1.963-0.113-1.963c-0.02,0-0.035,0.056-0.035,0.056l-2.087,5.619
			c-0.581,1.563-2.049,2.526-3.61,2.526c-0.45,0-0.908-0.08-1.354-0.249c-1.993-0.756-3.004-2.998-2.256-5.013l7.848-23.863
			c0.661-1.781,2.19-2.763,4.265-2.763c0.511,0,0.99,0,1.531,0h14.696C37.388,57.879,37.472,57.854,38.378,57.854 M38.378,56.854
			c-0.528,0-0.785,0.008-1.01,0.015c-0.159,0.005-0.299,0.009-0.521,0.009H22.151h-1.531c-2.501,0-4.397,1.245-5.203,3.416
			l-7.86,23.898c-0.924,2.487,0.35,5.312,2.852,6.26c0.55,0.209,1.125,0.314,1.708,0.314c2.014,0,3.842-1.277,4.548-3.178
			l0.297-0.802v29.861c0,3.442,2.778,6.243,6.192,6.243s6.192-2.801,6.192-6.243V95.819h0.306v20.829
			c0,3.442,2.777,6.243,6.191,6.243c3.415,0,6.192-2.801,6.192-6.243V86.786l0.298,0.802c0.707,1.901,2.535,3.179,4.548,3.179
			c0.583,0,1.158-0.105,1.707-0.313c2.502-0.949,3.776-3.772,2.84-6.295L43.595,60.33C42.817,58.237,40.727,56.854,38.378,56.854
			L38.378,56.854z"/>
	</g>
</g>
<g>
	<path fill="#F36C21" d="M29.602,52.139c-6.242,0-11.32-5.078-11.32-11.32s5.078-11.32,11.32-11.32s11.321,5.078,11.321,11.32
		S35.844,52.139,29.602,52.139z"/>
	<g>
		<path fill="#231F20" d="M29.602,29.998c5.977,0,10.821,4.839,10.821,10.82s-4.844,10.82-10.821,10.82
			c-5.975,0-10.82-4.839-10.82-10.82S23.627,29.998,29.602,29.998 M29.602,28.998c-6.518,0-11.82,5.303-11.82,11.82
			s5.303,11.82,11.82,11.82c6.518,0,11.821-5.303,11.821-11.82S36.12,28.998,29.602,28.998L29.602,28.998z"/>
	</g>
</g>
<linearGradient id="SVGID_1_" gradientUnits="userSpaceOnUse" x1="0.7891" y1="114.8945" x2="126.7891" y2="114.8945">
	<stop  offset="0" style="stop-color:#322106"/>
	<stop  offset="1" style="stop-color:#8F552F"/>
	<a:midPointStop  offset="0" style="stop-color:#322106"/>
	<a:midPointStop  offset="0.5091" style="stop-color:#322106"/>
	<a:midPointStop  offset="1" style="stop-color:#8F552F"/>
</linearGradient>
<path fill="url(#SVGID_1_)" stroke="#231F20" stroke-miterlimit="10" d="M7.813,124.639c0.226,0.907,1.135,1.587,2.039,1.587h92.009
	c12.917,0,23.568-9.744,24.928-22.662h-126L7.813,124.639z M92.796,108.097h4.533v4.532h-4.533V108.097z M83.731,108.097h4.533
	v4.532h-4.533V108.097z M74.667,108.097h4.532v4.532h-4.532V108.097z"/>
<linearGradient id="SVGID_2_" gradientUnits="userSpaceOnUse" x1="54.7104" y1="48.1553" x2="126.788" y2="48.1553">
	<stop  offset="0" style="stop-color:#AFD140"/>
	<stop  offset="1" style="stop-color:#00A94F"/>
	<a:midPointStop  offset="0" style="stop-color:#AFD140"/>
	<a:midPointStop  offset="0.5" style="stop-color:#AFD140"/>
	<a:midPointStop  offset="1" style="stop-color:#00A94F"/>
</linearGradient>
<polygon fill="url(#SVGID_2_)" stroke="#231F20" stroke-miterlimit="10" points="102.099,4.077 54.71,76.368 97.566,76.368 
	97.566,92.233 102.099,92.233 "/>
<linearGradient id="SVGID_3_" gradientUnits="userSpaceOnUse" x1="54.7109" y1="95.6318" x2="126.789" y2="95.6318">
	<stop  offset="0" style="stop-color:#322106"/>
	<stop  offset="1" style="stop-color:#8F552F"/>
	<a:midPointStop  offset="0" style="stop-color:#322106"/>
	<a:midPointStop  offset="0.5091" style="stop-color:#322106"/>
	<a:midPointStop  offset="1" style="stop-color:#8F552F"/>
</linearGradient>
<polygon fill="url(#SVGID_3_)" stroke="#231F20" stroke-miterlimit="10" points="102.099,92.233 97.566,92.233 70.135,92.233 
	61.977,99.03 126.789,99.03 126.789,92.233 "/>
</svg>
