<?xml version="1.0" encoding="utf-8"?>
<!-- Generator: Adobe Illustrator 15.0.0, SVG Export Plug-In . SVG Version: 6.00 Build 0)  -->
<!DOCTYPE svg PUBLIC "-//W3C//DTD SVG 1.1//EN" "http://www.w3.org/Graphics/SVG/1.1/DTD/svg11.dtd">
<svg version="1.1" id="Layer_1" xmlns="http://www.w3.org/2000/svg" xmlns:xlink="http://www.w3.org/1999/xlink" x="0px" y="0px"
	 width="128px" height="128px" viewBox="0 0 128 128" enable-background="new 0 0 128 128" xml:space="preserve">
<path fill="#F36C21" stroke="#231F20" stroke-width="0.4" stroke-miterlimit="10" d="M68.898,47.598
	c2.316-0.221,4.016-2.275,3.795-4.592c-0.222-2.313-2.276-4.012-4.593-3.791c-2.313,0.22-4.009,2.275-3.791,4.589
	C64.53,46.119,66.585,47.818,68.898,47.598z"/>
<path fill="#F36C21" stroke="#231F20" stroke-width="0.4" stroke-miterlimit="10" d="M57.885,68.459l3.83-1.38l6.946-0.37
	l-0.682,7.656l4.983,0.289l0.946-10.357c0.072-0.797-0.207-1.585-0.763-2.16c-0.554-0.574-1.325-0.877-2.13-0.838l-3.149-0.012
	l2.06-7.625l7.034-2.036c0.429-0.107,0.803-0.366,1.055-0.726l4.168-5.935c0.583-0.831,0.381-1.977-0.449-2.56
	c-0.831-0.582-1.98-0.382-2.56,0.448l-3.773,5.375l-5.61,1.411L65.5,48.632c-0.257-0.06-0.521-0.083-0.781-0.069l-8.925,0.492
	c-0.344,0.018-0.673,0.132-0.956,0.33l-6.048,4.243c-0.83,0.584-1.032,1.73-0.449,2.561c0.329,0.467,0.833,0.734,1.358,0.777
	c0.412,0.032,0.838-0.072,1.202-0.328l5.618-3.942l4.287-0.019l-2.646,9.801l-3.933,1.629c-1.32,0.474-2.072,1.864-1.75,3.23
	l1.774,7.468l5.05-0.375L57.885,68.459z"/>
<g>
	<g>
		
			<linearGradient id="SVGID_1_" gradientUnits="userSpaceOnUse" x1="340.0254" y1="-204.1479" x2="380.9727" y2="-204.1479" gradientTransform="matrix(1 0 0 -1 -296 -117)">
			<stop  offset="0" style="stop-color:#0095DA"/>
			<stop  offset="0.5" style="stop-color:#00AEEE"/>
			<stop  offset="1" style="stop-color:#2AC4F3"/>
		</linearGradient>
		<path fill="url(#SVGID_1_)" d="M70.594,89.301c-1.847,0-3.135-0.604-4.17-1.09c-0.738-0.347-1.375-0.646-2.025-0.646
			c-0.657,0-1.331,0.305-2.112,0.656c-1.067,0.481-2.396,1.08-4.178,1.08c-1.62,0-2.857-0.528-4.054-1.04
			c-1.063-0.454-2.066-0.883-3.241-0.883c-1.101,0-1.677,0.272-2.344,0.587c-0.783,0.369-1.669,0.787-3.555,0.787
			c-0.32-0.03-0.89-0.236-0.89-0.804c0-0.583,0.582-0.738,0.89-0.738c0.992,0,1.658-0.401,2.428-0.866
			c0.87-0.525,1.857-1.121,3.471-1.121c1.938,0,3.375,0.484,4.642,0.912c0.963,0.325,1.795,0.606,2.652,0.606
			c0.823,0,1.492-0.322,2.268-0.696c1.021-0.492,2.18-1.05,4.022-1.05c1.783,0,2.82,0.532,3.736,1.003
			c0.777,0.398,1.448,0.743,2.458,0.743c1.09,0,2.114-0.35,3.198-0.72c1.149-0.393,2.338-0.799,3.676-0.799
			c2.09,0,3.425,0.709,4.497,1.28c0.768,0.408,1.431,0.761,2.177,0.761c0.335,0.004,0.832,0.216,0.832,0.79
			c0,0.434-0.336,0.703-0.874,0.703c-0.078,0-0.13-0.006-0.13-0.006c-0.003,0-0.006,0-0.009,0c-2.118,0-2.917-0.425-3.621-0.799
			c-0.58-0.309-1.081-0.574-2.276-0.574c-1.273,0-2.296,0.435-3.379,0.894C73.494,88.778,72.262,89.301,70.594,89.301z"/>
	</g>
	<g>
		<path fill="#231F20" d="M64.398,85.195c3.206,0,3.889,1.746,6.195,1.746c2.303,0,4.328-1.519,6.874-1.519
			c3.53,0,4.789,2.041,6.674,2.041c0,0,0.632,0.007,0.632,0.59c0,0.451-0.46,0.503-0.674,0.503c-0.064,0-0.106-0.004-0.106-0.004
			c-3.862,0-3.204-1.375-5.93-1.375s-4.326,1.923-7.47,1.923c-3.113,0-4.547-1.735-6.195-1.735s-3.266,1.735-6.29,1.735
			c-3.025,0-4.751-1.923-7.294-1.923c-2.486,0-2.486,1.375-5.899,1.375c0,0-0.69-0.068-0.69-0.604c0-0.538,0.69-0.538,0.69-0.538
			c2.244,0,2.975-1.988,5.899-1.988c3.383,0,5.257,1.52,7.294,1.52C60.084,86.941,61.192,85.195,64.398,85.195 M64.398,84.795
			c-1.888,0-3.068,0.568-4.109,1.07c-0.753,0.363-1.403,0.677-2.181,0.677c-0.824,0-1.642-0.276-2.589-0.596
			c-1.282-0.433-2.735-0.924-4.706-0.924c-1.67,0-2.682,0.611-3.574,1.15c-0.745,0.449-1.388,0.838-2.325,0.838
			c-0.542,0-1.09,0.322-1.09,0.938c0,0.617,0.544,0.951,1.05,1.002l0.02,0.001h0.02c1.931,0,2.839-0.428,3.64-0.806
			c0.646-0.305,1.204-0.568,2.259-0.568c1.134,0,2.12,0.422,3.163,0.867c1.215,0.52,2.472,1.057,4.132,1.057
			c1.826,0,3.176-0.609,4.261-1.099c0.759-0.342,1.415-0.638,2.029-0.638c0.605,0,1.224,0.29,1.94,0.626
			c1.053,0.494,2.364,1.109,4.255,1.109c1.709,0,2.96-0.53,4.169-1.044c1.063-0.452,2.068-0.879,3.301-0.879
			c1.146,0,1.625,0.256,2.183,0.551c0.724,0.385,1.544,0.821,3.728,0.823c0.026,0.003,0.07,0.005,0.126,0.005
			c0.651,0,1.073-0.354,1.073-0.902c0-0.72-0.614-0.986-1.028-0.99c-0.699,0-1.312-0.325-2.086-0.737
			c-1.092-0.581-2.452-1.305-4.592-1.305c-1.371,0-2.575,0.412-3.74,0.81c-1.068,0.365-2.077,0.709-3.134,0.709
			c-0.961,0-1.612-0.334-2.367-0.722C67.29,85.34,66.23,84.795,64.398,84.795L64.398,84.795z"/>
	</g>
</g>
<linearGradient id="SVGID_2_" gradientUnits="userSpaceOnUse" x1="361.583" y1="-140.4058" x2="404.0947" y2="-140.4058" gradientTransform="matrix(0.9968 0.0795 0.0795 -0.9968 -306.9128 -92.8724)">
	<stop  offset="0" style="stop-color:#AFD140"/>
	<stop  offset="1" style="stop-color:#00A94F"/>
</linearGradient>
<path fill="url(#SVGID_2_)" stroke="#231F20" stroke-width="0.4" stroke-miterlimit="10" d="M54.044,79.725
	c0.895,0.427,1.666,0.796,2.641,0.796c0.936,0,1.729-0.427,2.648-0.921c1.223-0.658,2.746-1.476,5.086-1.476
	c2.274,0,3.585,0.751,4.744,1.414c0.919,0.527,1.714,0.982,2.876,0.982c1.253,0,2.125-0.458,3.051-0.944
	c1.021-0.534,2.174-1.141,3.908-1.141c1.49,0,2.665,0.317,3.657,0.734c1.402-0.466,2.198-0.986,2.195-1.535
	c-0.007-1.323-4.624-2.447-11.362-2.98l-5.509-0.289c-1.329-0.035-2.7-0.053-4.111-0.044c-1.571,0.008-3.096,0.046-4.568,0.108
	l-5.578,0.376c-4.827,0.463-9.314,1.591-10.005,2.12c-0.69,0.526-3.411,1.392,0.533,2.588c0.184,0.054,0.417,0.116,0.692,0.182
	c0.993-0.643,2.163-1.26,3.938-1.26C51.343,78.436,52.841,79.151,54.044,79.725z"/>
<g>
	
		<linearGradient id="SVGID_3_" gradientUnits="userSpaceOnUse" x1="336.5801" y1="-199.3799" x2="384.1807" y2="-199.3799" gradientTransform="matrix(1 0 0 -1 -296 -117)">
		<stop  offset="0" style="stop-color:#2AC4F3"/>
		<stop  offset="0.5" style="stop-color:#00AEEE"/>
		<stop  offset="1" style="stop-color:#0095DA"/>
	</linearGradient>
	<path fill="url(#SVGID_3_)" d="M72.038,85.257c-2.265,0-3.846-0.825-5.116-1.489c-0.911-0.477-1.698-0.888-2.502-0.888
		c-0.814,0-1.646,0.418-2.608,0.9c-1.31,0.658-2.94,1.477-5.126,1.477c-1.996,0-3.202-0.728-4.369-1.431
		c-1.025-0.618-1.994-1.202-3.435-1.202c-1.358,0-2.07,0.374-2.893,0.807c-0.959,0.504-2.047,1.075-4.361,1.075
		c-0.376-0.039-1.046-0.304-1.046-1.027c0-0.741,0.684-0.937,1.046-0.937c1.229,0,2.09-0.58,3.002-1.194
		c1.066-0.719,2.275-1.533,4.252-1.533c2.388,0,3.789,0.669,5.024,1.259c0.929,0.443,1.731,0.826,2.78,0.826
		c1.018,0,1.844-0.444,2.801-0.958c1.253-0.674,2.674-1.438,4.933-1.438c2.186,0,3.459,0.729,4.582,1.372
		c0.96,0.55,1.789,1.025,3.038,1.025c1.332,0,2.24-0.477,3.201-0.98c1.035-0.543,2.105-1.104,3.758-1.104
		c2.564,0,4.202,0.972,5.518,1.752c0.947,0.562,1.767,1.048,2.691,1.048c0.338,0.004,0.974,0.219,0.974,1.009
		c0,0.548-0.394,0.889-1.027,0.889c-0.094,0-0.155-0.008-0.155-0.008c-0.004,0-0.007,0-0.01,0c-2.603,0-3.58-0.579-4.443-1.09
		c-0.718-0.425-1.337-0.791-2.813-0.791c-1.557,0-2.47,0.589-3.436,1.214C75.216,84.535,74.1,85.257,72.038,85.257z"/>
	<path fill="#231F20" d="M64.419,79.703c3.943,0,4.783,2.396,7.62,2.396c2.832,0,3.83-2.085,6.959-2.085
		c4.344,0,5.889,2.8,8.209,2.8c0,0,0.773,0.008,0.773,0.809c0,0.618-0.565,0.689-0.827,0.689c-0.078,0-0.13-0.007-0.13-0.007
		c-4.748,0-3.939-1.882-7.292-1.882c-3.351,0-3.827,2.633-7.692,2.633c-3.828,0-5.593-2.377-7.619-2.377
		c-2.027,0-4.016,2.377-7.734,2.377c-3.72,0-4.675-2.633-7.804-2.633c-3.057,0-3.057,1.882-7.254,1.882c0,0-0.847-0.092-0.847-0.827
		c0-0.736,0.847-0.736,0.847-0.736c2.761,0,3.659-2.728,7.254-2.728c4.16,0,5.301,2.085,7.804,2.085
		C59.114,82.1,60.477,79.703,64.419,79.703 M64.419,79.303c-2.309,0-3.753,0.776-5.027,1.462c-0.933,0.502-1.739,0.935-2.707,0.935
		c-1.003,0-1.786-0.374-2.693-0.807c-1.255-0.599-2.677-1.277-5.11-1.277c-2.038,0-3.273,0.832-4.364,1.566
		c-0.925,0.623-1.723,1.16-2.89,1.16l0,0c-0.031,0-0.304,0.004-0.583,0.125c-0.422,0.184-0.664,0.552-0.664,1.012
		c0,0.866,0.787,1.18,1.204,1.225l0.021,0.003h0.021c2.364,0,3.475-0.584,4.454-1.099c0.8-0.421,1.492-0.783,2.8-0.783
		c1.386,0,2.332,0.569,3.332,1.174c1.134,0.684,2.42,1.459,4.472,1.459c2.234,0,3.888-0.83,5.216-1.498
		c0.94-0.472,1.752-0.879,2.519-0.879c0.755,0,1.522,0.4,2.409,0.863c1.29,0.675,2.896,1.514,5.209,1.514
		c2.12,0,3.313-0.771,4.366-1.451c0.981-0.635,1.829-1.182,3.327-1.182c1.421,0,2.019,0.354,2.711,0.763
		c0.884,0.523,1.886,1.115,4.559,1.119c0.031,0.003,0.084,0.007,0.151,0.007c0.745,0,1.228-0.428,1.228-1.09
		c0-0.878-0.699-1.204-1.17-1.208c-0.874,0-1.671-0.474-2.593-1.021c-1.337-0.793-3-1.779-5.619-1.779
		c-1.702,0-2.795,0.573-3.852,1.127c-0.939,0.491-1.826,0.957-3.108,0.957c-1.195,0-2.003-0.463-2.938-0.998
		C67.956,80.047,66.659,79.303,64.419,79.303L64.419,79.303z"/>
</g>
</svg>
