<?xml version="1.0" encoding="utf-8"?>
<!-- Generator: Adobe Illustrator 15.0.0, SVG Export Plug-In . SVG Version: 6.00 Build 0)  -->
<!DOCTYPE svg PUBLIC "-//W3C//DTD SVG 1.1//EN" "http://www.w3.org/Graphics/SVG/1.1/DTD/svg11.dtd">
<svg version="1.1" id="Layer_1" xmlns="http://www.w3.org/2000/svg" xmlns:xlink="http://www.w3.org/1999/xlink" x="0px" y="0px"
	 width="128px" height="128px" viewBox="0 0 128 128" enable-background="new 0 0 128 128" xml:space="preserve">
<path fill="#F36C21" stroke="#231F20" stroke-width="0.4" stroke-miterlimit="10" d="M66.758,52.539
	c2.113-0.656,3.292-2.898,2.638-5.011c-0.656-2.112-2.898-3.292-5.012-2.636c-2.109,0.655-3.291,2.9-2.635,5.01
	C62.404,52.015,64.648,53.194,66.758,52.539z"/>
<linearGradient id="SVGID_1_" gradientUnits="userSpaceOnUse" x1="343.7109" y1="-198.6519" x2="385.3398" y2="-198.6519" gradientTransform="matrix(1 0 0 -1 -296 -117)">
	<stop  offset="0" style="stop-color:#2AC4F3"/>
	<stop  offset="0.5" style="stop-color:#00AEEE"/>
	<stop  offset="1" style="stop-color:#0095DA"/>
</linearGradient>
<path fill="url(#SVGID_1_)" stroke="#231F20" stroke-width="0.4" stroke-miterlimit="10" d="M88.593,81.97
	c-2.437,0-3.227-2.404-6.397-2.404c-3.669,0-4.676,1.838-6.884,1.838c-2.143,0-3.345-2.113-6.821-2.113s-4.219,2.113-6.72,2.113
	c-2.5,0-3.377-1.838-6.138-1.838c-3.831,0-5.194,2.469-7.239,2.469c0,0-0.683,0.008-0.683,0.715c0,0.708,0.845,0.601,0.845,0.601
	c4.188,0,3.474-1.66,6.43-1.66c2.956,0,3.375,2.324,6.785,2.324c3.377,0,4.932-2.098,6.72-2.098s3.541,2.098,6.821,2.098
	c3.282,0,4.125-2.324,6.884-2.324c2.695,0,2.695,1.66,6.397,1.66c0,0,0.747-0.081,0.747-0.73S88.593,81.97,88.593,81.97z"/>
<g>
	
		<linearGradient id="SVGID_2_" gradientUnits="userSpaceOnUse" x1="363.2725" y1="-201.1694" x2="367.2285" y2="-201.1694" gradientTransform="matrix(1 0 0 -1 -296 -117)">
		<stop  offset="0" style="stop-color:#322106"/>
		<stop  offset="1" style="stop-color:#8F552F"/>
	</linearGradient>
	<path fill="url(#SVGID_2_)" stroke="#231F20" stroke-width="0.4" stroke-miterlimit="10" d="M68.49,83.159
		c-0.334,0-0.747,0.172-1.218,0.407c0.259,0.387,0.528,0.776,0.743,1.069c0.628,0.856,1.246,0.445,1.246,0.445
		s0.758-0.251,1.967-0.794c-0.324-0.149-0.63-0.302-0.917-0.445C69.584,83.476,68.955,83.159,68.49,83.159z"/>
	
		<linearGradient id="SVGID_3_" gradientUnits="userSpaceOnUse" x1="364.2861" y1="-188.4141" x2="385.3398" y2="-188.4141" gradientTransform="matrix(1 0 0 -1 -296 -117)">
		<stop  offset="0" style="stop-color:#322106"/>
		<stop  offset="1" style="stop-color:#8F552F"/>
	</linearGradient>
	<path fill="url(#SVGID_3_)" stroke="#231F20" stroke-width="0.4" stroke-miterlimit="10" d="M89.202,66.009l-1.393-2.982
		c-0.243-0.748-1.365-0.091-1.365-0.091c-2.097,0.895-4.045,1.984-5.839,3.174l-3.223,2.365c-1.901,1.534-3.576,3.134-5.002,4.654
		l-2.666,3.069c-0.543,0.674-1.02,1.299-1.429,1.856c0.069-0.002,0.133-0.009,0.204-0.009c2.261,0,3.7,0.773,4.855,1.396
		c0.775,0.417,1.337,0.718,1.967,0.718c0.683,0,1.231-0.262,1.991-0.625c0.747-0.355,1.621-0.766,2.798-1.007
		c0.49-0.444,0.977-0.912,1.452-1.408c5.489-5.718,7.581-9.894,7.581-9.894C89.553,66.655,89.202,66.009,89.202,66.009z"/>
</g>
<path fill="#38454F" stroke="#231F20" stroke-width="0.4" stroke-miterlimit="10" d="M50.234,59.904l-3.262-1.765l-1.811-0.979
	l1.323-0.847l2.497-1.599l0.328,1.362l1.738-0.589l-0.592-2.448c-0.069-0.287-0.273-0.522-0.547-0.633
	c-0.274-0.109-0.585-0.081-0.833,0.079l-5.977,3.829h-3.246c-0.503,0-0.912,0.409-0.912,0.914c0,0.504,0.409,0.913,0.912,0.913
	h3.282l8.035,4.348c0.137,0.074,0.286,0.111,0.434,0.111h0.005c0.5,0.016,0.918-0.408,0.918-0.914c0-0.119-0.023-0.233-0.065-0.337
	l-0.712-2.955l-1.825,0.229L50.234,59.904z"/>
<path fill="#F36C21" stroke="#231F20" stroke-width="0.4" stroke-miterlimit="10" d="M79.134,57.54c0,0-3.979-2.835-13.331-3.272
	c-9.353-0.436-13.958,0.993-13.958,0.993s-0.374,0.105-0.798,0.225l-1.738,0.589c-0.366,0.237-0.651,0.645-0.42,1.394
	c0.236,0.766,0.633,1.06,1.034,1.152l1.825-0.229c0.5-0.06,1.717-0.226,2.298-0.251c3.554-0.156,5.64,0.02,5.64,0.02
	s-2.228,4.233-0.604,8.867c1.498,4.276,9.256,8.541,10.633,9.172l2.665-3.069c-0.777-0.373-1.896-0.935-2.89-1.521
	c-1.743-1.025-3.356-2.367-3.356-2.367s2.688-2.734,6.403-2.714c2.41,0.013,4.013,1.148,4.846,1.947l3.222-2.364
	c-0.99-1.155-3.247-3.352-6.323-3.653c-4.196-0.412-7.365,1.259-7.365,1.259s-0.13-1.138,0.225-2.806s0.867-2.582,0.867-2.582
	s1.449,0.084,2.996,0.325c1.235,0.192,1.699,0.317,2.371,0.487c1.492,0.375,3.917,1.016,3.917,1.016s1.542,0.575,2.269-0.54
	C80.288,58.501,79.134,57.54,79.134,57.54z"/>
</svg>
