<?xml version="1.0" encoding="utf-8"?>
<!-- Generator: Adobe Illustrator 15.0.0, SVG Export Plug-In . SVG Version: 6.00 Build 0)  -->
<!DOCTYPE svg PUBLIC "-//W3C//DTD SVG 1.1//EN" "http://www.w3.org/Graphics/SVG/1.1/DTD/svg11.dtd">
<svg version="1.1" id="Layer_1" xmlns="http://www.w3.org/2000/svg" xmlns:xlink="http://www.w3.org/1999/xlink" x="0px" y="0px"
	 width="128px" height="128px" viewBox="0 0 128 128" enable-background="new 0 0 128 128" xml:space="preserve">
<path fill="#F36C21" stroke="#231F20" stroke-width="0.4" stroke-miterlimit="10" d="M54.155,50.431
	c2.079-0.645,3.239-2.852,2.595-4.93c-0.646-2.079-2.853-3.239-4.931-2.593c-2.075,0.645-3.239,2.854-2.592,4.929
	C49.872,49.916,52.081,51.077,54.155,50.431z"/>
<linearGradient id="SVGID_1_" gradientUnits="userSpaceOnUse" x1="335.0986" y1="-192.6772" x2="349.3477" y2="-192.6772" gradientTransform="matrix(1 0 0 -1 -296 -117)">
	<stop  offset="0" style="stop-color:#2AC4F3"/>
	<stop  offset="0.5" style="stop-color:#00AEEE"/>
	<stop  offset="1" style="stop-color:#0095DA"/>
</linearGradient>
<path fill="url(#SVGID_1_)" stroke="#231F20" stroke-width="0.4" stroke-miterlimit="10" d="M40.092,75.435
	c0,0,0.799-0.196,2.086-0.354c7.86-0.951,10.892,2.571,10.892,2.571c0.064,0.056,0.164,0.054,0.227-0.007
	c0.066-0.065,0.069-0.172,0.003-0.239c0,0-2.865-4.033-11.225-3.728c-1.345,0.05-2.277,0.179-2.277,0.179l-0.014,0.002
	c-0.024,0.004-0.048,0.009-0.071,0.014c-0.432,0.105-0.695,0.539-0.592,0.971C39.227,75.273,39.66,75.539,40.092,75.435z"/>
<linearGradient id="SVGID_2_" gradientUnits="userSpaceOnUse" x1="340.7568" y1="-190.5684" x2="352.9473" y2="-190.5684" gradientTransform="matrix(1 0 0 -1 -296 -117)">
	<stop  offset="0" style="stop-color:#0095DA"/>
	<stop  offset="0.5" style="stop-color:#00AEEE"/>
	<stop  offset="1" style="stop-color:#2AC4F3"/>
</linearGradient>
<path fill="url(#SVGID_2_)" stroke="#231F20" stroke-width="0.4" stroke-miterlimit="10" d="M46.071,71.754
	c0.03,0,0.158-0.034,0.497-0.061c0.332-0.033,0.825-0.057,1.415-0.025c6.511,0.349,8.463,5.967,8.463,5.967
	c0.058,0.118,0.194,0.176,0.322,0.134c0.137-0.046,0.213-0.196,0.166-0.335c0,0-1.181-6.401-8.695-7.861
	c-0.692-0.135-1.282-0.186-1.704-0.205c-0.417-0.024-0.719-0.004-0.689-0.008c-0.662,0.062-1.146,0.648-1.084,1.31
	C44.823,71.33,45.41,71.816,46.071,71.754z"/>
<linearGradient id="SVGID_3_" gradientUnits="userSpaceOnUse" x1="338.4434" y1="-201.8506" x2="379.1982" y2="-201.8506" gradientTransform="matrix(1 0 0 -1 -296 -117)">
	<stop  offset="0" style="stop-color:#0095DA"/>
	<stop  offset="0.5" style="stop-color:#00AEEE"/>
	<stop  offset="1" style="stop-color:#2AC4F3"/>
</linearGradient>
<path fill="url(#SVGID_3_)" stroke="#231F20" stroke-width="0.4" stroke-miterlimit="10" d="M42.443,85.654
	c0,0.539,0.692,0.607,0.692,0.607c3.431,0,3.431-1.379,5.929-1.379c2.557,0,4.292,1.93,7.333,1.93c3.039,0,4.665-1.743,6.322-1.743
	c1.657,0,3.099,1.743,6.226,1.743c3.16,0,4.77-1.93,7.51-1.93c2.739,0,2.078,1.379,5.958,1.379c0,0,0.784,0.088,0.784-0.5
	c0-0.587-0.634-0.594-0.634-0.594c-1.894,0-3.158-2.051-6.709-2.051c-2.558,0-4.593,1.527-6.909,1.527
	c-2.317,0-3.006-1.756-6.226-1.756c-3.223,0-4.336,1.756-6.322,1.756c-2.047,0-3.933-1.527-7.333-1.527
	c-2.938,0-3.672,1.998-5.929,1.998C43.136,85.115,42.443,85.115,42.443,85.654z"/>
<g>
	
		<linearGradient id="SVGID_4_" gradientUnits="userSpaceOnUse" x1="335.0986" y1="-197.4565" x2="356.4268" y2="-197.4565" gradientTransform="matrix(1 0 0 -1 -296 -117)">
		<stop  offset="0" style="stop-color:#2AC4F3"/>
		<stop  offset="0.5" style="stop-color:#00AEEE"/>
		<stop  offset="1" style="stop-color:#0095DA"/>
	</linearGradient>
	<path fill="url(#SVGID_4_)" stroke="#231F20" stroke-width="0.4" stroke-miterlimit="10" d="M47.242,77.922
		c-3.614,0-4.517,2.741-7.292,2.741c0,0-0.852-0.001-0.852,0.739c0,0.741,0.852,0.832,0.852,0.832c4.219,0,4.219-1.893,7.292-1.893
		c3.145,0,4.106,2.649,7.844,2.649c2.283,0,3.917-0.892,5.308-1.585l0.033-3.451c-2.238,0.665-3.48,2.062-5.341,2.062
		C52.568,80.018,51.423,77.922,47.242,77.922z"/>
	
		<linearGradient id="SVGID_5_" gradientUnits="userSpaceOnUse" x1="362.4971" y1="-197.457" x2="382.542" y2="-197.457" gradientTransform="matrix(1 0 0 -1 -296 -117)">
		<stop  offset="0" style="stop-color:#2AC4F3"/>
		<stop  offset="0.5" style="stop-color:#00AEEE"/>
		<stop  offset="1" style="stop-color:#0095DA"/>
	</linearGradient>
	<path fill="url(#SVGID_5_)" stroke="#231F20" stroke-width="0.4" stroke-miterlimit="10" d="M85.764,80.736
		c-2.33,0-3.884-2.814-8.249-2.814c-3.146,0-4.148,2.096-6.997,2.096c-1.573,0-2.536-0.734-3.75-1.393l-0.271,3.41
		c1.079,0.508,2.354,0.957,4.021,0.957c3.885,0,4.365-2.649,7.732-2.649c3.371,0,2.557,1.893,7.329,1.893
		c0,0,0.963,0.122,0.963-0.684C86.542,80.744,85.764,80.736,85.764,80.736z"/>
</g>
<path fill="#38454F" stroke="#231F20" stroke-width="0.4" stroke-miterlimit="10" d="M88.698,59.565H75.354l-3.728-3.694
	c-0.416-0.419-1.071-0.545-1.608-0.32c-0.554,0.229-0.912,0.764-0.912,1.365v1.734c0,0,1.22-0.061,1.604,0.247v-1.675l3.285,3.285
	l-3.285,3.284v-1.927c0,0-0.621,0.246-1.604,0.246v1.987c0,0.601,0.358,1.135,0.912,1.364c0.179,0.075,0.369,0.112,0.566,0.112
	c0.395,0,0.764-0.153,1.043-0.433l3.797-3.979l13.273,0.007c0.441,0,0.801-0.359,0.801-0.803
	C89.499,59.923,89.14,59.565,88.698,59.565z"/>
<path fill="#F36C21" stroke="#231F20" stroke-width="0.4" stroke-miterlimit="10" d="M71.512,60.506c0-0.918-0.331-1.33-0.803-1.61
	c-0.384-0.308-1.604-0.247-1.604-0.247h-4.826c0,0-5.752-5.07-6.542-5.627c-0.79-0.557-1.741-1.003-3.349-0.724
	c-2.217,0.461-3.792,2.336-3.45,4.319l2.001,9.712c0.156,0.892,0.657,1.685,1.394,2.205c0.377,0.267,0.995,0.603,1.404,0.799
	c1.476,0.71,5.979,2.46,5.979,2.46l-0.098,10.144c0,0,2.33-0.464,3.608,0.535l1.025-12.97c0.031-0.854-0.426-1.65-1.177-2.057
	l-3.59-1.938l-1.258-5.164c0,0,2.914,1.765,3.506,1.765h5.371c0.982,0,1.604-0.246,1.604-0.246
	C71.181,61.585,71.512,61.094,71.512,60.506z"/>
</svg>
