<?xml version="1.0" encoding="utf-8"?>
<!-- Generator: Adobe Illustrator 15.0.0, SVG Export Plug-In . SVG Version: 6.00 Build 0)  -->
<!DOCTYPE svg PUBLIC "-//W3C//DTD SVG 1.1//EN" "http://www.w3.org/Graphics/SVG/1.1/DTD/svg11.dtd">
<svg version="1.1" id="Layer_1" xmlns="http://www.w3.org/2000/svg" xmlns:xlink="http://www.w3.org/1999/xlink" x="0px" y="0px"
	 width="128px" height="128px" viewBox="0 0 128 128" enable-background="new 0 0 128 128" xml:space="preserve">
<linearGradient id="SVGID_1_" gradientUnits="userSpaceOnUse" x1="346.9121" y1="-186.9902" x2="346.9121" y2="-159.6943" gradientTransform="matrix(1 0 0 -1 -296 -117)">
	<stop  offset="0" style="stop-color:#AFD140"/>
	<stop  offset="1" style="stop-color:#00A94F"/>
</linearGradient>
<path fill="url(#SVGID_1_)" stroke="#231F20" stroke-width="0.4" stroke-miterlimit="10" d="M55.471,69.516V42.694
	c0,0-9.119,10.841-9.119,27.296L55.471,69.516z"/>
<linearGradient id="SVGID_2_" gradientUnits="userSpaceOnUse" x1="355.8643" y1="-165.1528" x2="355.8643" y2="-186.4043" gradientTransform="matrix(1 0 0 -1 -296 -117)">
	<stop  offset="0" style="stop-color:#AFD140"/>
	<stop  offset="1" style="stop-color:#00A94F"/>
</linearGradient>
<polygon fill="url(#SVGID_2_)" stroke="#231F20" stroke-width="0.4" stroke-miterlimit="10" points="57.119,48.153 57.119,69.404 
	62.609,69.187 "/>
<g>
	<g>
		
			<linearGradient id="SVGID_3_" gradientUnits="userSpaceOnUse" x1="337.6328" y1="-201.7002" x2="373.7773" y2="-201.7002" gradientTransform="matrix(1 0 0 -1 -296 -117)">
			<stop  offset="0" style="stop-color:#0095DA"/>
			<stop  offset="0.5" style="stop-color:#00AEEE"/>
			<stop  offset="1" style="stop-color:#2AC4F3"/>
		</linearGradient>
		<path fill="url(#SVGID_3_)" d="M65.079,86.621c-1.634,0-2.773-0.534-3.688-0.963c-0.648-0.304-1.208-0.566-1.775-0.566
			c-0.575,0-1.167,0.268-1.853,0.576c-0.942,0.425-2.117,0.953-3.692,0.953c-1.433,0-2.525-0.467-3.583-0.918
			c-0.935-0.399-1.817-0.775-2.849-0.775c-0.965,0-1.47,0.238-2.056,0.514c-0.692,0.326-1.477,0.695-3.145,0.695
			c-0.292-0.026-0.807-0.214-0.807-0.731c0-0.533,0.528-0.674,0.807-0.674c0.869,0,1.453-0.352,2.129-0.76
			c0.77-0.465,1.642-0.992,3.072-0.992c1.712,0,2.981,0.429,4.101,0.807c0.847,0.286,1.579,0.533,2.331,0.533
			c0.72,0,1.308-0.283,1.989-0.611c0.903-0.436,1.926-0.929,3.556-0.929c1.578,0,2.495,0.472,3.305,0.887
			c0.683,0.351,1.272,0.653,2.156,0.653c0.958,0,1.858-0.308,2.813-0.634c1.016-0.347,2.064-0.705,3.248-0.705
			c1.85,0,3.028,0.627,3.977,1.131c0.674,0.358,1.256,0.668,1.907,0.668c0.305,0.003,0.756,0.197,0.756,0.721
			c0,0.396-0.304,0.642-0.792,0.642c-0.071,0-0.117-0.006-0.117-0.006c-0.004,0-0.008,0-0.01,0c-1.869,0-2.576-0.374-3.199-0.705
			c-0.509-0.27-0.948-0.503-1.995-0.503c-1.118,0-2.018,0.382-2.97,0.785C67.643,86.159,66.554,86.621,65.079,86.621z"/>
	</g>
	<g>
		<path fill="#231F20" d="M59.617,82.979c2.826,0,3.429,1.54,5.461,1.54c2.03,0,3.815-1.339,6.06-1.339
			c3.113,0,4.223,1.799,5.885,1.799c0,0,0.555,0.005,0.555,0.521c0,0.396-0.403,0.441-0.592,0.441c-0.058,0-0.095-0.004-0.095-0.004
			c-3.403,0-2.823-1.21-5.227-1.21c-2.402,0-3.814,1.693-6.585,1.693c-2.745,0-4.009-1.528-5.462-1.528
			c-1.454,0-2.879,1.528-5.545,1.528c-2.667,0-4.188-1.693-6.431-1.693c-2.191,0-2.191,1.21-5.2,1.21c0,0-0.607-0.059-0.607-0.532
			s0.607-0.474,0.607-0.474c1.979,0,2.623-1.751,5.2-1.751c2.982,0,4.636,1.339,6.431,1.339
			C55.813,84.52,56.79,82.979,59.617,82.979 M59.617,82.579c-1.675,0-2.766,0.525-3.643,0.949c-0.659,0.316-1.228,0.591-1.902,0.591
			c-0.719,0-1.437-0.242-2.267-0.522c-1.134-0.383-2.419-0.817-4.165-0.817c-1.485,0-2.383,0.542-3.175,1.021
			c-0.651,0.393-1.213,0.732-2.026,0.732c-0.5,0-1.007,0.3-1.007,0.873c0,0.574,0.502,0.885,0.969,0.93l0.019,0.002h0.019
			c1.713,0,2.52-0.38,3.23-0.715c0.563-0.266,1.051-0.494,1.97-0.494c0.991,0,1.855,0.369,2.77,0.76
			c1.076,0.458,2.188,0.934,3.661,0.934c1.619,0,2.814-0.539,3.775-0.972c0.665-0.299,1.238-0.558,1.77-0.558
			c0.523,0,1.064,0.253,1.69,0.547c0.933,0.438,2.093,0.981,3.771,0.981c1.517,0,2.624-0.47,3.695-0.924
			c0.933-0.396,1.813-0.77,2.891-0.77c0.998,0,1.396,0.212,1.902,0.479c0.643,0.341,1.371,0.728,3.307,0.729
			c0.024,0.002,0.063,0.005,0.113,0.005c0.603,0,0.992-0.331,0.992-0.842c0-0.67-0.569-0.917-0.952-0.921
			c-0.605,0-1.141-0.284-1.817-0.645c-0.968-0.515-2.172-1.155-4.07-1.155c-1.217,0-2.282,0.364-3.313,0.717
			c-0.938,0.32-1.824,0.623-2.748,0.623c-0.836,0-1.406-0.292-2.065-0.631C62.183,83.063,61.243,82.579,59.617,82.579L59.617,82.579
			z"/>
	</g>
</g>
<g>
	<g>
		<path fill="#ED7161" stroke="#231F20" stroke-width="0.4" stroke-miterlimit="10" d="M84.788,74.872
			c0.377,0.351,0.885,0.589,1.46,0.638c0.734,0.063,1.411-0.196,1.87-0.646c-0.329-1.43-1.218-2.481-2.25-2.57
			C85.526,72.266,85.065,73.34,84.788,74.872z M86.717,73.384c0.158,0.015,0.276,0.153,0.264,0.311
			c-0.015,0.16-0.153,0.276-0.313,0.264c-0.158-0.013-0.275-0.153-0.262-0.312C86.419,73.489,86.559,73.371,86.717,73.384z"/>
		<path fill="#38454F" stroke="#231F20" stroke-width="0.4" stroke-miterlimit="10" d="M86.21,76.093
			c-0.572-0.049-1.09-0.255-1.508-0.566c-0.035,0.256-0.064,0.52-0.091,0.791l-0.479,0.467c-0.104,0.1-0.166,0.234-0.178,0.377
			l-0.016,0.186c-0.008,0.072,0.024,0.143,0.084,0.186c0.058,0.043,0.133,0.053,0.199,0.024l0.37-0.149
			c0.067,1.381,0.457,2.709,0.837,3.344l-0.845,1.414c-0.037,0.063-0.033,0.144,0.011,0.203c0.045,0.059,0.121,0.086,0.192,0.065
			l0.724-0.192c0.142-0.038,0.292-0.025,0.426,0.036l0.682,0.312c0.066,0.031,0.146,0.019,0.199-0.032
			c0.056-0.051,0.073-0.13,0.046-0.199l-0.594-1.533c0.36-0.374,0.86-1.05,1.269-1.861l0.372,0.152
			c0.149,0.061,0.318,0.046,0.455-0.036c0.137-0.085,0.228-0.227,0.24-0.388l0.188-2.22c0.02-0.22-0.108-0.426-0.313-0.51
			l-0.234-0.094c-0.008-0.117-0.019-0.233-0.032-0.348C87.678,75.933,86.966,76.156,86.21,76.093z"/>
	</g>
</g>
<g>
	<path fill="#38454F" stroke="#231F20" stroke-width="0.4" stroke-miterlimit="10" d="M79.634,63.433
		c0.876-0.748,1.945-1.443,3.248-1.994c1.068-0.452,2.14-0.744,3.173-0.924c0,0,0.294-0.089,0.23-0.412
		c-0.065-0.323-0.438-0.254-0.438-0.254c-1.05,0.192-2.139,0.497-3.232,0.959c-1.414,0.598-2.563,1.349-3.501,2.157
		c0,0-0.662,0.592-0.917,0.866c-0.301,0.324-1.22,1.514-1.22,1.514c-1.407,2.044-1.773,3.867-1.798,4
		c-0.035,0.186,0.087,0.364,0.273,0.4c0.021,0.004,0.042,0.006,0.063,0.006c0.16,0,0.305-0.115,0.336-0.279
		c0.006-0.03,0.345-1.723,1.652-3.652c0,0,0.844-1.076,1.185-1.428C78.917,64.158,79.634,63.433,79.634,63.433z"/>
</g>
<g>
	<path fill="#E6E6E6" stroke="#231F20" stroke-width="0.4" stroke-miterlimit="10" d="M86.068,71.999l-0.463-11.128
		c0,0,0.063-0.03,0.301-0.073c0.239-0.042,0.37-0.119,0.37-0.119l-0.208,11.313V71.999z"/>
</g>
<g>
	
		<linearGradient id="SVGID_4_" gradientUnits="userSpaceOnUse" x1="334.5938" y1="-197.728" x2="376.6055" y2="-197.728" gradientTransform="matrix(1 0 0 -1 -296 -117)">
		<stop  offset="0" style="stop-color:#2AC4F3"/>
		<stop  offset="0.5" style="stop-color:#00AEEE"/>
		<stop  offset="1" style="stop-color:#0095DA"/>
	</linearGradient>
	<path fill="url(#SVGID_4_)" d="M66.352,83.289c-2.002,0-3.4-0.729-4.522-1.317c-0.8-0.418-1.491-0.779-2.194-0.779
		c-0.712,0-1.442,0.367-2.289,0.793c-1.157,0.581-2.597,1.304-4.53,1.304c-1.766,0-2.833-0.644-3.863-1.266
		c-0.901-0.543-1.753-1.058-3.017-1.058c-1.191,0-1.816,0.328-2.54,0.709c-0.849,0.445-1.81,0.951-3.855,0.951
		c-0.342-0.036-0.947-0.275-0.947-0.93c0-0.672,0.62-0.85,0.947-0.85c1.075,0,1.797-0.486,2.633-1.049
		c0.943-0.636,2.011-1.355,3.762-1.355c2.11,0,3.348,0.59,4.439,1.111c0.817,0.39,1.522,0.726,2.441,0.726
		c0.892,0,1.618-0.391,2.459-0.842c1.108-0.596,2.363-1.271,4.36-1.271c1.933,0,3.058,0.645,4.051,1.213
		c0.843,0.482,1.571,0.899,2.665,0.899c1.169,0,1.967-0.418,2.813-0.861c0.915-0.479,1.86-0.976,3.323-0.976
		c2.268,0,3.714,0.858,4.877,1.549c0.832,0.494,1.551,0.92,2.359,0.92c0.246,0.003,0.882,0.172,0.882,0.914
		c0,0.497-0.355,0.807-0.929,0.807c-0.085,0-0.141-0.008-0.141-0.008c-0.004,0-0.008,0-0.011,0c-2.296,0-3.161-0.512-3.924-0.964
		c-0.63-0.372-1.173-0.694-2.468-0.694c-1.366,0-2.168,0.519-3.017,1.067C69.163,82.651,68.176,83.289,66.352,83.289z"/>
	<path fill="#231F20" d="M59.635,78.368c3.475,0,4.217,2.112,6.717,2.112c2.498,0,3.376-1.838,6.136-1.838
		c3.829,0,5.191,2.469,7.235,2.469c0,0,0.683,0.007,0.683,0.714c0,0.543-0.497,0.606-0.729,0.606c-0.07,0-0.115-0.006-0.115-0.006
		c-4.187,0-3.472-1.659-6.429-1.659c-2.953,0-3.373,2.322-6.781,2.322c-3.375,0-4.93-2.096-6.716-2.096
		c-1.788,0-3.542,2.096-6.819,2.096c-3.279,0-4.122-2.322-6.88-2.322c-2.695,0-2.695,1.659-6.396,1.659c0,0-0.747-0.081-0.747-0.729
		c0-0.649,0.747-0.649,0.747-0.649c2.434,0,3.225-2.404,6.396-2.404c3.667,0,4.672,1.838,6.88,1.838
		C54.958,80.48,56.16,78.368,59.635,78.368 M59.635,77.968c-2.048,0-3.326,0.688-4.455,1.294c-0.817,0.439-1.523,0.818-2.365,0.818
		c-0.874,0-1.56-0.327-2.355-0.707c-1.11-0.529-2.369-1.13-4.525-1.13c-1.812,0-2.907,0.737-3.874,1.389
		c-0.809,0.545-1.507,1.015-2.522,1.015l0,0c-0.046,0-0.283,0.006-0.533,0.114c-0.39,0.17-0.614,0.51-0.614,0.936
		c0,0.797,0.722,1.086,1.104,1.127l0.021,0.002h0.021c2.096,0,3.08-0.518,3.949-0.974c0.7-0.368,1.304-0.687,2.446-0.687
		c1.208,0,1.998,0.477,2.913,1.029c1.006,0.607,2.145,1.294,3.967,1.294c1.981,0,3.444-0.735,4.62-1.325
		c0.823-0.413,1.535-0.771,2.199-0.771c0.654,0,1.325,0.352,2.102,0.758c1.142,0.597,2.563,1.34,4.615,1.34
		c1.883,0,2.94-0.685,3.874-1.288c0.859-0.556,1.602-1.036,2.907-1.036c1.241,0,1.763,0.31,2.367,0.667
		c0.783,0.464,1.672,0.99,4.041,0.993c0.028,0.003,0.076,0.006,0.136,0.006c0.687,0,1.129-0.395,1.129-1.006
		c0-0.81-0.646-1.109-1.079-1.113c-0.756,0-1.42-0.395-2.261-0.893c-1.184-0.703-2.656-1.577-4.978-1.577
		c-1.513,0-2.48,0.509-3.417,0.999c-0.823,0.432-1.6,0.839-2.72,0.839c-1.04,0-1.747-0.405-2.566-0.874
		C62.771,78.626,61.623,77.968,59.635,77.968L59.635,77.968z"/>
</g>
<path fill="#F36C21" stroke="#231F20" stroke-width="0.4" stroke-miterlimit="10" d="M69.972,66.991l2.518,1.527
	c0,0,0.283,0.133,0.372,0.163c0.096,0.031,0.35,0.066,0.35,0.066l3.653,0.289l0.012,0.002c0,0,1.216,0.112,1.386-0.994
	c0.169-1.107-1.111-1.456-1.111-1.456s-0.083-0.016-0.214-0.04c-0.668-0.121-1.908-0.192-2.715-0.424
	c-0.392-0.112-1.452-1.227-1.452-1.227l-3.199-3.041c0,0-1.007-0.928-2.501-0.642c-1.722,0.331-2.142,1.776-2.142,1.776
	s-1.144,5.518-1.567,7.381c-0.045,0.199-0.152,0.645-0.169,0.813l5.843-0.279L69.972,66.991z"/>
<linearGradient id="SVGID_5_" gradientUnits="userSpaceOnUse" x1="338.123" y1="-191.3442" x2="374.7041" y2="-191.3442" gradientTransform="matrix(1 0 0 -1 -296 -117)">
	<stop  offset="0" style="stop-color:#322106"/>
	<stop  offset="1" style="stop-color:#8F552F"/>
</linearGradient>
<path fill="url(#SVGID_5_)" stroke="#231F20" stroke-width="0.4" stroke-miterlimit="10" d="M69.579,70.54l-4.697,0.244
	l-22.759,1.185l1.304,5.268c0.701-0.263,1.52-0.449,2.509-0.449c2.485,0,4.027,0.735,5.152,1.272
	c0.777,0.371,1.208,0.564,1.728,0.564c0.453,0,0.909-0.233,1.675-0.645c1.152-0.619,2.73-1.467,5.144-1.467
	c2.374,0,3.819,0.826,4.874,1.431c0.804,0.46,1.217,0.681,1.843,0.681c0.761,0,1.271-0.268,2.042-0.672
	c0.99-0.52,2.222-1.165,4.094-1.165c0.069,0,0.131,0.008,0.199,0.009l6.018-6.731L69.579,70.54z"/>
<path fill="#F36C21" stroke="#231F20" stroke-width="0.4" stroke-miterlimit="10" d="M71.576,59.415
	c1.772-1.033,2.37-3.303,1.34-5.075c-1.032-1.771-3.306-2.37-5.077-1.336c-1.769,1.03-2.368,3.304-1.337,5.074
	C67.533,59.849,69.808,60.447,71.576,59.415z"/>
<circle fill="#95A5A5" stroke="#231F20" stroke-width="0.4" stroke-miterlimit="10" cx="78.426" cy="64.24" r="1.298"/>
<circle fill="#BDC3C7" stroke="#231F20" stroke-width="0.4" stroke-miterlimit="10" cx="78.426" cy="64.24" r="0.741"/>
<path fill="#38454F" stroke="#231F20" stroke-width="0.4" stroke-miterlimit="10" d="M80.226,65.778l-0.57-0.571l-0.172-0.171
	l-0.927-0.927c-0.072-0.073-0.189-0.073-0.262,0c-0.073,0.072-0.073,0.189,0,0.262l0.927,0.927l0.172,0.172l0.439,0.439
	l-0.426,0.425c-0.072,0.073-0.072,0.19,0,0.262c0.037,0.037,0.084,0.055,0.131,0.055c0.049,0,0.096-0.018,0.132-0.055l0.557-0.556
	C80.298,65.968,80.298,65.851,80.226,65.778z"/>
</svg>
