<?xml version="1.0"?>
<svg xmlns="http://www.w3.org/2000/svg" viewBox="0 0 512 512" width="512px" height="512px"><path d="m32 480h270v32h30v-92h-30v30h-150v-90h-90v-150h30v-30h-92v30h32zm0 0" fill="#2c3e50"/><path d="m490.789062 0h-98.789062v60h-30v-60h-30v90h-30v-90h-30v60h-30v-60h-30v90h-30v-90h-30v60h-30v-60h-30v90h-30v-90h-62v150h340.789062zm0 0" fill="#2c3e50"/><path d="m362 512h150v-62h-90v-30h90v-30h-60v-30h60v-30h-90v-30h90v-30h-60v-30h60v-30h-90v-30h90v-30h-60v-30h60v-98.789062l-150 150zm0 0" fill="#2c3e50"/></svg>
