<?xml version="1.0" encoding="utf-8"?>
<!-- Generator: Adobe Illustrator 15.0.0, SVG Export Plug-In . SVG Version: 6.00 Build 0)  -->
<!DOCTYPE svg PUBLIC "-//W3C//DTD SVG 1.1//EN" "http://www.w3.org/Graphics/SVG/1.1/DTD/svg11.dtd">
<svg version="1.1" id="Layer_1" xmlns="http://www.w3.org/2000/svg" xmlns:xlink="http://www.w3.org/1999/xlink" x="0px" y="0px"
	 width="512px" height="512px" viewBox="0 0 512 512" enable-background="new 0 0 512 512" xml:space="preserve">
<line fill="none" stroke="#2C3E50" stroke-width="50" stroke-linecap="round" stroke-linejoin="round" stroke-miterlimit="10" x1="197.032" y1="69.829" x2="484.5" y2="69.829"/>
<line fill="none" stroke="#2C3E50" stroke-width="50" stroke-linecap="round" stroke-linejoin="round" stroke-miterlimit="10" x1="197.032" y1="254.125" x2="484.5" y2="254.125"/>
<line fill="none" stroke="#2C3E50" stroke-width="50" stroke-linecap="round" stroke-linejoin="round" stroke-miterlimit="10" x1="197.032" y1="438.423" x2="484.5" y2="438.423"/>
<circle fill="#2C3E50" cx="73.021" cy="438.423" r="71.324"/>
<path fill="#2C3E50" d="M137.091,300.869c0,9.567-7.758,17.327-17.326,17.327H26.276c-9.567,0-17.325-7.76-17.325-17.327v-93.488
	c0-9.567,7.758-17.327,17.325-17.327h93.489c9.567,0,17.326,7.758,17.326,17.327V300.869L137.091,300.869z"/>
<path fill="#2C3E50" d="M16.555,129.102c-9.329,0-13.143-6.608-8.479-14.684l56.469-97.805c4.661-8.077,12.292-8.077,16.954,0
	l56.468,97.805c4.666,8.076,0.85,14.684-8.477,14.684H16.555z"/>
</svg>
