<svg height="512pt" viewBox="0 0 512 512.00405" width="512pt" xmlns="http://www.w3.org/2000/svg"><path d="m183.382812 38.488281c-32.777343-32.742187-83.457031-39.394531-123.578124-16.226562-40.117188 23.167969-59.683594 70.390625-47.707032 115.144531 11.972656 44.753906 52.507813 75.894531 98.835938 75.929688v34.132812h102.402344v-136.53125c.054687-27.171875-10.722657-53.25-29.953126-72.449219zm0 0" fill="#e91e63"/><path d="m494.933594 187.738281h-281.597656c-4.714844 0-8.535157-3.820312-8.535157-8.535156 0-4.710937 3.820313-8.53125 8.535157-8.53125h285.867187c7.066406 0 12.800781 5.730469 12.800781 12.796875zm0 0" fill="#f0c419"/><path d="m170.667969 110.9375c0 32.988281-26.742188 59.734375-59.734375 59.734375-4.300782-.015625-8.589844-.472656-12.796875-1.367187-27.457031-5.972657-47.035157-30.269532-47.035157-58.367188s19.578126-52.394531 47.035157-58.367188c4.207031-.894531 8.496093-1.351562 12.796875-1.367187 32.992187 0 59.734375 26.746094 59.734375 59.734375zm0 0" fill="#6a1b9a"/><path d="m213.335938 110.9375v102.398438h-102.402344v-42.664063c24.164062 0 45.945312-14.554687 55.191406-36.875s4.136719-48.015625-12.949219-65.097656l30.207031-30.210938c19.230469 19.199219 30.007813 45.277344 29.953126 72.449219zm0 0" fill="#ad1457"/><path d="m145.070312 110.9375c.007813 28.066406-19.519531 52.355469-46.933593 58.367188-27.457031-5.972657-47.035157-30.269532-47.035157-58.367188s19.578126-52.394531 47.035157-58.367188c27.402343 6.027344 46.925781 30.308594 46.933593 58.367188zm0 0" fill="#9d27b0"/><path d="m187.734375 110.9375v102.398438h-76.800781v-42.664063c24.164062 0 45.945312-14.554687 55.191406-36.875s4.136719-48.015625-12.949219-65.097656l16.296875-16.300781c11.949219 17.179687 18.324219 37.613281 18.261719 58.539062zm0 0" fill="#e91e63"/><path d="m17.070312 213.335938h443.730469c4.714844 0 8.535157 3.820312 8.535157 8.535156v273.066406c0 4.710938-3.820313 8.53125-8.535157 8.53125h-443.730469c-4.714843 0-8.535156-3.820312-8.535156-8.53125v-273.066406c0-4.714844 3.820313-8.535156 8.535156-8.535156zm0 0" fill="#f57c00"/><path d="m17.070312 213.335938h418.132813c4.710937 0 8.53125 3.820312 8.53125 8.535156v273.066406c0 4.710938-3.820313 8.53125-8.53125 8.53125h-418.132813c-4.714843 0-8.535156-3.820312-8.535156-8.53125v-273.066406c0-4.714844 3.820313-8.535156 8.535156-8.535156zm0 0" fill="#ff9801"/><path d="m503.46875 170.671875c4.710938 0 8.535156 3.820313 8.535156 8.53125v33.953125c0 4.714844-3.824218 8.535156-8.535156 8.535156s-8.535156-3.820312-8.535156-8.535156v-33.953125c0-4.710937 3.824218-8.53125 8.535156-8.53125zm0 0" fill="#bdc3c7"/><path d="m17.070312 512.003906h443.730469c9.425781 0 17.066407-7.640625 17.066407-17.066406v-273.066406c0-9.425782-7.640626-17.066406-17.066407-17.066406h-238.933593v-17.066407h273.066406v25.597657c0 4.714843 3.824218 8.535156 8.535156 8.535156s8.535156-3.820313 8.535156-8.535156v-29.867188c0-7.066406-5.734375-12.796875-12.800781-12.796875h-277.335937v-59.734375c.015624-29.300781-11.601563-57.414062-32.296876-78.15625-.085937-.085938-.109374-.195312-.195312-.28125s-.199219-.113281-.28125-.199219c-30.167969-30.039062-74.875-40.144531-115.03125-26.003906-40.15625 14.136719-68.667969 50.027344-73.355469 92.339844-4.691406 42.3125 15.265625 83.574219 51.347657 106.167969h-34.984376c-9.425781 0-17.06640575 7.640624-17.06640575 17.066406v273.066406c0 9.425781 7.64062475 17.066406 17.06640575 17.066406zm443.730469-137.386718c-33.246093.359374-66.160156 6.65625-97.195312 18.59375-1.023438.425781-103.019531 42.429687-207.445313 9.53125-79.28125-24.96875-108.558594-27.066407-139.089844-27.273438v-45.738281c30 .179687 57.085938 2.246093 133.972657 26.453125 41.796875 12.820312 85.304687 19.210937 129.023437 18.953125 26.910156.046875 53.773438-2.210938 80.296875-6.75 3.730469-.679688 7.484375-1.277344 11.273438-1.875l5.5625-.90625c28.34375-4.804688 56.289062-11.71875 83.601562-20.683594zm0-47.617188c-28.152343 9.492188-57.003906 16.777344-86.289062 21.785156l-5.578125.90625c-3.902344.613282-7.785156 1.238282-11.589844 1.929688-67.082031 11.363281-135.867188 7.367187-201.183594-11.683594-79.28125-24.96875-108.558594-27.066406-139.089844-27.246094v-30.59375c45.78125 10.992188 92.691407 16.574219 139.773438 16.632813 27.351562.074219 54.667969-2.066407 81.671875-6.398438 59.503906-9.703125 89.234375-16.675781 108.914063-21.292969 29.285156-8.636718 60.4375-8.667968 89.742187-.09375 6.476563 1.511719 14.175781 3.304688 23.628906 5.351563zm-443.730469 125.738281c22.351563 2.238281 44.277344 7.625 65.125 16 10.546876 4.882813 20.558594 10.851563 29.867188 17.8125 4.113281 2.8125 8.269531 5.65625 12.464844 8.386719h-107.457032zm230.398438 42.199219h-84.222656c-15.03125-5.078125-29.085938-12.675781-41.566406-22.46875-10.335938-7.726562-21.480469-14.308594-33.238282-19.625-22.816406-9.222656-46.863281-15.039062-71.371094-17.265625v-43.039063c30 .167969 57.085938 2.242188 133.972657 26.453126 29.539062 9.136718 60.300781 13.710937 91.21875 13.558593 43.699219.011719 87.03125-7.984375 127.847656-23.585937 28.980469-11.050782 59.679687-16.898438 90.691406-17.28125v77.652344c-27.730469-18.773438-60.925781-27.78125-94.34375-25.597657-4.871093 0-31.207031 1.507813-64.484375 27.382813-30.730468 23.816406-46.148437 23.816406-52.730468 23.816406zm50.441406 0c4.53125-2.925781 9.34375-6.304688 14.503906-10.324219 30.78125-23.894531 53.523438-23.894531 54.1875-23.808593.460938.011718.917969-.011719 1.375-.070313 33.570313-1.945313 66.664063 8.683594 92.824219 29.816406v4.386719zm-135.773437-384c0 28.277344-22.925781 51.199219-51.203125 51.199219-28.273438 0-51.199219-22.921875-51.199219-51.199219s22.925781-51.199219 51.199219-51.199219c28.265625.027344 51.171875 22.933594 51.203125 51.199219zm95.863281 110.933594c-7.460938 7.808594-22.691406 17.066406-53.214844 17.066406-23.40625.082031-46.449218-5.789062-66.960937-17.066406zm-53.199219-17.066406h-85.332031v-26.191407c24.339844-3.007812 45.183594-18.878906 54.5625-41.539062 9.378906-22.664063 5.84375-48.617188-9.25-67.949219l18.226562-18.238281c14.09375 16.835937 21.8125 38.09375 21.792969 60.050781zm-187.730469-93.867188c-.023437-36.410156 21.03125-69.546875 54.003907-84.992188 32.972656-15.449218 71.902343-10.417968 99.867187 12.902344l-18.191406 18.226563c-22.722656-17.648438-54.078125-19.140625-78.375-3.730469s-36.3125 44.410156-30.027344 72.488281c6.28125 28.078125 29.507813 49.195313 58.054688 52.78125v25.753907c-48.296875-4.449219-85.269532-44.929688-85.332032-93.429688zm90.554688 110.933594c27.332031 22.519531 61.765625 34.617187 97.175781 34.132812 50.117188 0 68.046875-22.65625 73.925781-34.132812h182.074219v36.964844c-7.679687-1.707032-14.191406-3.207032-19.738281-4.503907-31.863281-9.179687-65.675781-9.148437-97.527344.09375-19.445312 4.554688-48.84375 11.453125-107.765625 21.058594-72.929687 10.410156-147.183593 6.667969-218.699219-11.015625v-42.597656zm0 0"/></svg>